<svg width="50" height="24" viewBox="0 0 50 24" fill="none" xmlns="http://www.w3.org/2000/svg">
<g clip-path="url(#clip0_142_2804)">
<path d="M11.9341 12.0595L20.0446 7.40229C21.9481 6.31493 22.6102 3.894 21.5136 1.98598C20.417 0.0779617 17.9756 -0.558044 16.0514 0.529321L2.02344 8.55121L11.9341 12.0595Z" fill="#EA4335"/>
<path d="M18.0376 24C19.4239 24 20.7687 23.2819 21.4929 22.0099C22.5895 20.1224 21.9481 17.7015 20.0239 16.5936L5.99591 8.57171C4.09241 7.48434 1.65096 8.12035 0.533689 10.0284C-0.562894 11.9159 0.0785036 14.3368 2.00269 15.4447L16.0307 23.4666C16.6721 23.8153 17.3755 24 18.0376 24Z" fill="#4285F4"/>
<path d="M32.0035 24C32.6863 24 33.3691 23.8359 33.9898 23.4666L48.0177 15.4447L38.2519 11.8954L30.0172 16.6141C28.1137 17.7015 27.4516 20.1224 28.5482 22.0304C29.2724 23.2819 30.6173 24 32.0035 24Z" fill="#FBBC04"/>
<path d="M46.0111 15.9576C47.3973 15.9576 48.7422 15.2395 49.4663 13.988C50.5629 12.1005 49.9215 9.67959 47.9973 8.57171L33.99 0.549829C32.0865 -0.537537 29.6451 0.0984694 28.5278 2.00649C27.4312 3.89399 28.0726 6.31492 29.9968 7.4228L44.0248 15.4447C44.6455 15.7935 45.3283 15.9576 46.0111 15.9576Z" fill="#0F9D58"/>
</g>
<defs>
<clipPath id="clip0_142_2804">
<rect width="50" height="24" fill="white"/>
</clipPath>
</defs>
</svg>
