<svg width="76" height="75" viewBox="0 0 76 75" fill="none" xmlns="http://www.w3.org/2000/svg">
<path d="M58.444 74.2667C57.9726 74.2328 58.1427 74.8444 58.0708 74.9585C58.8912 74.7878 58.4129 74.1063 58.444 74.2667Z" fill="#F9AB00"/>
<path d="M65.1374 70.9009L65.1588 71.1836C65.353 70.8159 65.5507 70.4814 65.7013 70.1047C65.5368 70.3909 65.3323 70.6307 65.1374 70.9009Z" fill="#F9AB00"/>
<path d="M69.7913 66.2789C69.4845 66.2761 69.2668 66.3998 69.0954 66.603C68.906 66.7937 68.7581 67.0633 68.6123 67.3632C68.4755 67.6701 68.3047 67.9783 68.1105 68.2596C67.915 68.5381 67.7049 68.798 67.4167 68.9182L67.1112 68.8719C67.1769 69.1946 67.2349 69.525 67.284 69.8616C67.5335 69.5858 67.7947 69.2845 68.0262 68.9528C68.2433 68.6141 68.4637 68.2699 68.6766 67.9375C69.0567 67.2457 69.4209 66.6458 69.7913 66.2789Z" fill="#F9AB00"/>
<path d="M73.4148 63.7017C73.1854 63.7653 73.1577 63.5268 73.1543 63.5026C73.1425 63.4771 73.2047 63.6706 72.9863 64.5704C73.0603 64.4985 73.0941 64.4819 73.1439 64.4418C73.1881 64.2808 73.289 64.0728 73.4148 63.7017Z" fill="#F9AB00"/>
<path d="M73.1439 64.4425C72.8923 65.2228 73.6526 64.0521 73.1439 64.4425V64.4425Z" fill="#F9AB00"/>
<path d="M73.7348 60.7575C73.8101 61.1183 73.8779 61.4873 73.9428 61.864C74.2193 61.6843 74.4135 60.716 74.5358 61.0975C74.4446 59.9413 74.1598 60.1846 73.7348 60.7575Z" fill="#F9AB00"/>
<path d="M73.0209 59.7319L73.1488 60.2613C73.2552 60.1784 73.2988 60.0353 73.0209 59.7319Z" fill="#F9AB00"/>
<path d="M73.3506 61.4154C73.3015 61.0242 73.249 60.6407 73.1488 60.262C72.9677 60.3988 72.6353 60.3739 73.231 60.7837C72.9325 60.6621 73.2027 60.904 73.3506 61.4154Z" fill="#F9AB00"/>
<path d="M73.0928 62.0229C72.7638 62.553 72.4258 63.1923 72.3173 62.1564C72.1639 63.0762 72.2655 63.5337 72.4618 63.5206C72.6477 63.5068 72.967 63.0023 73.0928 62.0229Z" fill="#F9AB00"/>
<path d="M69.0201 65.4451L68.4306 65.8203C68.4409 66.0394 68.4382 66.2564 68.4202 66.4686C68.4555 66.1693 69.3166 65.575 69.0201 65.4451Z" fill="#F9AB00"/>
<path d="M74.3616 55.5237C74.137 55.4753 73.7631 55.7836 73.4763 55.8409L73.7341 56.4118C73.8875 56.118 74.0292 55.5624 74.3616 55.5237Z" fill="#F9AB00"/>
<path d="M73.4763 55.8411L73.0907 54.9875C73.0451 55.7498 73.2282 55.8895 73.4763 55.8411Z" fill="#F9AB00"/>
<path d="M71.8578 59.5239C72.1011 60.0892 72.3533 60.6877 72.5116 61.3125C72.3727 60.5744 72.0969 59.8667 71.8612 59.2012L71.8578 59.5239Z" fill="#F9AB00"/>
<path d="M74.39 52.2638L74.9097 52.7476L74.1239 51.8857L74.39 52.2638Z" fill="#F9AB00"/>
<path d="M74.2988 50.1011C74.7286 50.4591 75.0272 49.6105 75.2919 49.9885C75.2152 49.401 74.8454 48.8993 74.513 48.448C74.6989 48.9276 74.6512 49.4391 74.2988 50.1011Z" fill="#F9AB00"/>
<path d="M74.0293 47.6899C74.1323 47.9298 74.3175 48.1779 74.5138 48.4481C74.4135 48.1931 74.2705 47.9422 74.0293 47.6899Z" fill="#F9AB00"/>
<path d="M73.202 53.5333C73.3374 53.467 73.6927 53.3405 73.8426 52.8616L73.211 53.1974C73.2082 53.2997 73.2047 53.4158 73.202 53.5333Z" fill="#F9AB00"/>
<path d="M73.1909 53.2091L73.211 53.1974C73.2289 52.8332 73.2407 52.5802 73.2462 52.4724C73.2393 52.565 73.2227 52.7869 73.1909 53.2091Z" fill="#F9AB00"/>
<path d="M73.1987 53.6169C73.1994 53.5861 73.2007 53.5635 73.2014 53.5334C73.1399 53.5656 73.1193 53.5848 73.1987 53.6169Z" fill="#F9AB00"/>
<path d="M72.4452 57.2273C72.092 56.7256 71.7133 55.6806 71.1749 56.6917C71.6076 57.0518 71.9137 56.4726 72.4452 57.2273Z" fill="#F9AB00"/>
<path d="M72.4093 54.0352L72.2649 54.9419C72.4315 54.9239 72.6747 54.7608 72.8503 55.0089L72.4093 54.0352Z" fill="#F9AB00"/>
<path d="M72.2089 53.5908L72.4093 54.0352L72.4625 53.6986L72.2089 53.5908Z" fill="#F9AB00"/>
<path d="M73.4376 49.2426C73.1626 48.8508 73.1398 48.4223 73.0955 47.9385C72.9711 48.4568 72.9041 48.9931 72.9055 49.5025C73.1045 49.5743 73.4597 49.7983 73.4376 49.2426Z" fill="#F9AB00"/>
<path d="M73.2613 51.1694C73.247 51.1428 73.2401 51.1086 73.2258 51.0833C73.1731 51.1359 73.156 51.1783 73.2613 51.1694Z" fill="#F9AB00"/>
<path d="M73.0997 43.1743L72.985 43.251C73.0216 43.2572 73.0562 43.2628 73.0942 43.269L73.0997 43.1743Z" fill="#F9AB00"/>
<path d="M72.788 49.5897C72.6664 49.9795 72.8205 50.2124 73.0154 50.4349C72.9518 50.1433 72.911 49.8343 72.9055 49.5026C72.8164 49.4708 72.7569 49.4646 72.788 49.5897Z" fill="#F9AB00"/>
<path d="M73.7334 46.3608C73.6014 46.564 73.4895 46.7942 73.3865 47.036C73.5862 46.837 73.8979 46.4327 73.7334 46.3608Z" fill="#F9AB00"/>
<path d="M73.4011 50.9519C73.4114 50.9713 73.4225 50.9893 73.4294 51.01C73.5648 50.8821 73.4985 50.898 73.4011 50.9519Z" fill="#F9AB00"/>
<path d="M73.401 50.952C73.3098 50.7516 73.1543 50.594 73.0154 50.4351C73.0651 50.6721 73.1329 50.8926 73.2262 51.0833C73.2711 51.035 73.3388 50.9866 73.401 50.952Z" fill="#F9AB00"/>
<path d="M69.0449 41.7311C69.6303 41.7996 70.1714 42.8252 69.5439 43.7098C69.9828 44.5806 71.9082 44.0111 72.9856 43.2509C72.7299 43.2239 72.4943 43.2239 72.148 42.3276C71.828 42.6413 71.4002 44.3159 70.8708 43.5598C70.5688 42.3732 71.0782 42.5874 71.3878 42.0103C70.658 42.501 70.3262 40.5003 69.2536 40.7588L69.631 41.7996C69.4637 41.8196 69.197 41.4423 69.0449 41.7311Z" fill="#F9AB00"/>
<path d="M72.9255 44.9581L72.9981 45.3272C73.0997 44.907 73.334 44.6057 73.7922 44.0521C73.5068 43.4384 73.2891 43.3112 73.0942 43.269L73.0126 45.0846L72.9255 44.9581Z" fill="#F9AB00"/>
<path d="M73.0002 46.9824C72.363 46.6942 72.0921 45.8088 71.403 46.3514C71.4472 47.433 71.9352 47.1095 72.2116 47.7557C72.0534 46.01 72.5668 48.2575 72.9276 46.9955C73.0361 47.339 73.0693 47.6472 73.0956 47.9389C73.173 47.6244 73.2683 47.321 73.3865 47.0356C73.3713 47.0515 73.3603 47.0625 73.3471 47.0757L73.3492 47.084L73.3388 47.0826C73.2593 47.1579 73.211 47.1828 73.2573 47.0978C73.2497 47.0923 73.2462 47.0708 73.2441 47.0612C73.1557 47.0494 73.0783 47.0169 73.0036 46.9824C73.1349 46.4765 73.1688 46.9029 73.2441 47.0612C73.2752 47.0667 73.3056 47.0805 73.3388 47.0826C73.3423 47.0805 73.3471 47.0764 73.3471 47.0764L72.9981 45.3271C72.9096 45.6969 72.9276 46.1606 73.0002 46.9824Z" fill="#F9AB00"/>
<path d="M69.8052 55.7595C69.8612 55.7049 69.9068 55.7077 69.9531 55.7035C69.875 55.5902 69.8218 55.5473 69.8052 55.7595Z" fill="#F9AB00"/>
<path d="M70.1894 55.04C70.2785 55.1672 70.5329 55.2729 70.4672 55.6862C70.2758 56.0449 70.1617 55.6848 69.9523 55.7035C70.121 55.9523 70.4092 56.5757 70.7188 55.794L70.6324 55.6703C70.8508 54.9661 71.6456 54.0614 71.7333 54.1844C71.1604 54.3897 70.752 54.5714 70.1894 55.04Z" fill="#F9AB00"/>
<path d="M71.4327 50.9611L71.1204 49.5049L70.5688 50.2464L70.8999 50.2091C70.77 51.0371 71.1777 50.8581 71.4327 50.9611Z" fill="#F9AB00"/>
<path d="M73.417 43.0077L74.0894 43.2012L73.1398 42.3601L73.417 43.0077Z" fill="#F9AB00"/>
<path d="M73.3361 41.1154L73.9214 41.1852L73.5683 40.6855L73.3361 41.1154Z" fill="#F9AB00"/>
<path d="M7.07358 18.8755L7.23945 19.3033C7.18831 19.1008 7.13232 18.9709 7.07358 18.8755Z" fill="#F9AB00"/>
<path d="M7.13096 15.8987L6.84622 15.8345C6.99896 15.9437 7.11368 15.9858 7.13096 15.8987Z" fill="#F9AB00"/>
<path d="M54.6145 0.975425C53.9911 0.428755 53.2945 -0.418545 53.3698 0.240085L53.5613 0.880747C53.9967 0.766023 54.3305 0.837203 54.6145 0.975425Z" fill="#F9AB00"/>
<path d="M22.7791 4.8043C22.8379 4.86719 22.9001 4.93355 22.9616 4.99921C23.1129 4.77874 23.2546 4.57279 23.3825 4.3855C23.2007 4.51197 22.9947 4.65502 22.7791 4.8043Z" fill="#F9AB00"/>
<path d="M22.3396 7.45821L21.5178 7.04492C21.7023 7.18936 21.9671 7.3269 22.3396 7.45821Z" fill="#F9AB00"/>
<path d="M7.75296 35.7966L8.40606 36.2963C8.4026 35.5146 8.07364 35.8588 7.75296 35.7966Z" fill="#F9AB00"/>
<path d="M73.0997 21.7303C73.3499 21.1919 73.4556 20.7641 73.4867 20.3882C73.119 21.0364 72.5661 21.5589 73.0997 21.7303Z" fill="#F9AB00"/>
<path d="M0.267517 17.6563C0.383624 17.9182 0.514241 18.0302 0.657301 18.0226C0.547414 17.7524 0.4244 17.6003 0.267517 17.6563Z" fill="#F9AB00"/>
<path d="M73.4846 18.8347C73.4204 18.9294 73.3879 19.0227 73.334 19.1188C73.4418 19.512 73.5282 19.908 73.4867 20.3883C73.7611 19.9094 73.9297 19.3613 73.4846 18.8347Z" fill="#F9AB00"/>
<path d="M34.9938 67.0237C35.0388 67.0528 35.092 67.0666 35.1328 67.1005C35.1459 67.0134 35.0844 67.0092 34.9938 67.0237Z" fill="#F9AB00"/>
<path d="M52.8722 73.4954C52.696 73.5354 52.4092 73.5361 52.1382 73.5444C52.2702 73.5887 52.4914 73.5838 52.8722 73.4954Z" fill="#F9AB00"/>
<path d="M73.616 33.5C73.6581 33.9015 73.6872 33.5636 73.616 33.5V33.5Z" fill="#F9AB00"/>
<path d="M71.0796 35.4518C71.0077 35.3661 70.9158 35.3019 70.7679 35.2915C70.922 35.3247 71.0202 35.3807 71.0796 35.4518Z" fill="#F9AB00"/>
<path d="M69.4091 14.8501C69.4084 14.8385 69.407 14.8296 69.4063 14.8159C69.3003 14.9459 69.3208 14.9233 69.4091 14.8501Z" fill="#F9AB00"/>
<path d="M73.3243 34.1038C73.4031 33.9532 73.4687 33.7797 73.515 33.5903C73.4653 33.6733 73.4031 33.8295 73.3243 34.1038Z" fill="#F9AB00"/>
<path d="M73.6277 34.0225C73.6035 34.1614 73.5842 34.2699 73.5655 34.3735C73.6726 34.424 73.7396 34.3791 73.6277 34.0225Z" fill="#F9AB00"/>
<path d="M73.5814 32.9409C73.5918 33.1704 73.5614 33.3846 73.5151 33.5906C73.5586 33.5118 73.5946 33.4786 73.616 33.5C73.6091 33.3819 73.5987 33.216 73.5814 32.9409Z" fill="#F9AB00"/>
<path d="M6.44537 63.2766C6.43639 63.3049 6.4357 63.334 6.42188 63.3678C6.80475 63.5517 6.70385 63.4383 6.44537 63.2766Z" fill="#F9AB00"/>
<path d="M44.167 7.63526C44.1856 7.62904 44.196 7.61174 44.2126 7.60413C44.194 7.59721 44.1704 7.58822 44.1531 7.5813L44.167 7.63526Z" fill="#F9AB00"/>
<path d="M42.7253 8.11355C43.339 7.31532 43.688 7.41346 44.1531 7.58209L43.6763 5.73267L42.7253 8.11355Z" fill="#F9AB00"/>
<path d="M7.25811 25.8441L7.8345 24.8317C8.78271 26.0536 8.45581 26.9382 9.26649 25.9872C7.25812 25.8441 9.06054 22.052 7.05493 21.911L7.4772 21.2434C7.45784 21.4349 7.57602 21.4653 7.55598 21.6546C8.51732 20.3567 6.10465 20.6905 6.39008 19.018C6.5442 18.4354 6.83584 18.0284 7.07359 18.4257L6.57737 17.1271C6.61607 16.7491 6.96508 16.8417 6.92638 17.2177L6.84621 16.2273L6.80613 15.7318L6.78816 15.3717L6.8469 15.3849C6.53452 15.1761 6.07839 14.6385 5.93187 14.3544C6.27674 14.004 6.11225 14.5838 6.37557 14.5161C6.26361 14.2196 6.12123 13.9003 6.05419 13.5817C6.35206 13.4691 6.57668 13.6273 6.70315 13.8561C6.81857 14.0856 6.91048 14.4042 6.82133 14.6668C7.88288 14.4436 7.73567 14.3143 7.58916 14.0158C7.50968 13.8699 7.41154 13.6868 7.42536 13.4622C7.43573 13.2396 7.6251 12.9908 8.00659 12.7524L8.0142 13.4753C8.63827 13.4511 8.86909 13.3205 9.07643 13.1422C9.31693 12.9853 9.46484 12.74 9.95276 12.6715C9.85393 12.655 9.66802 12.655 9.43235 12.6626C9.1953 12.6805 8.92163 12.7006 8.68734 12.7179C8.16002 12.7379 7.63684 12.7144 7.60021 12.2258C7.83933 12.0661 8.02179 11.8415 7.93471 11.2368C8.24019 11.4255 8.40536 11.3999 8.53391 11.2755C8.67559 11.1601 8.77718 10.9362 8.92024 10.7026L9.63416 11.3273C9.76962 10.7641 9.39157 10.4648 9.32661 9.90778C9.89885 9.51731 10.4566 9.99141 10.948 10.4109C11.346 10.2084 11.0585 10.0536 10.7448 9.87323C10.431 9.68732 10.0827 9.48551 10.5354 9.02731C11.4808 8.8642 11.7566 8.26708 12.684 7.38315C13.398 7.53865 12.729 7.96853 13.0248 8.1731C13.1305 7.88974 13.2501 7.5891 13.3904 7.30229C13.5355 7.30021 13.5313 7.5345 13.5313 7.65268C13.9598 7.29814 13.3883 6.71416 14.1879 6.34442C14.2204 6.08248 14.3621 6.04171 14.5611 6.10736C14.6606 6.13984 14.774 6.19928 14.8935 6.27116C15.0048 6.34027 15.143 6.42804 15.3179 6.52134C15.9744 6.88417 16.7561 7.22972 17.396 6.63813C17.7119 6.90628 17.2433 7.21798 17.3401 7.58358C19.0976 6.80746 18.8467 7.01962 20.2897 5.97535L21.5192 6.59598C20.6159 5.88621 21.7701 5.04581 22.7812 4.35539C22.4605 4.0126 22.1868 3.71266 22.003 3.5696L23.6161 3.06232C23.8109 3.21782 23.6485 3.54265 23.3838 3.93727C23.4937 3.85917 23.5981 3.78177 23.6796 3.71058C24.2567 4.0596 23.9575 4.60557 23.5442 5.13427C23.3479 4.94767 23.1523 4.74864 22.9629 4.55098C22.5649 5.12529 22.1917 5.7618 22.2746 6.31538C22.3796 6.20619 22.5815 6.1122 22.8033 6.05968C22.6989 6.21518 22.6326 6.35478 22.681 6.44946C22.7356 6.54898 22.9042 6.33958 23.1675 6.09838L23.5345 7.15232L23.6237 6.7335L25.7343 7.39352C27.2444 6.33266 28.5575 4.77074 30.9543 4.33534C30.3599 5.10801 30.8264 5.59801 30.7939 6.51373C30.1402 5.5441 28.9376 6.92564 27.6957 6.72867C28.344 6.83027 28.2016 7.26705 28.0364 7.41909L30.2514 6.53723C30.2017 7.2864 30.7221 7.09911 31.3005 7.40872C30.8631 5.92836 32.9516 6.42251 33.8528 5.96845C33.9088 6.46605 33.6925 6.97333 32.5929 6.85377C33.8065 7.96853 34.161 5.11492 35.3518 6.06174C35.083 6.07418 34.9385 5.99748 34.8328 6.25042C35.4603 5.8088 36.9932 6.1585 36.6325 6.59182L36.3643 6.6022C38.1467 6.77774 41.7909 6.61326 42.057 5.35543C42.075 5.51785 41.8234 6.87104 41.7156 7.12537L44.8961 2.89507C44.6155 3.97527 45.6916 6.5469 44.2133 7.15646C44.6376 7.31058 45.1628 7.48958 46.0578 7.10878C45.7683 6.95535 45.3363 5.54756 45.7316 5.44873C46.8181 6.65127 46.4856 6.09147 47.8243 7.11708C47.3903 6.88555 47.8727 5.19233 48.5583 5.24624C48.4512 5.49987 48.6157 6.91803 48.3648 7.09427L50.0718 5.43214C49.6454 5.73139 49.9965 6.84132 50.3787 7.31127C50.2011 6.98576 51.8549 7.34168 52.3097 7.1772L51.5861 6.79156C53.5136 7.04243 53.4901 4.45353 55.4024 4.54061C55.1709 4.8841 54.8308 6.65403 55.8032 6.86344C56.0258 6.43771 56.5192 5.41349 57.1682 4.41414C57.5006 3.91861 57.8385 3.41202 58.2622 3.02016C58.6941 2.64074 59.2007 2.30763 59.7156 2.21986L60.0231 2.75823C60.2802 2.7057 60.5436 2.64765 60.8096 2.60411L61.6141 2.52256C61.2969 2.77827 60.8746 3.06992 60.4205 3.45072C59.9644 3.8412 59.4903 4.24343 59.0542 4.69473C58.6009 5.16123 58.2532 5.60215 57.8579 6.02304C57.4584 6.44324 57.0846 6.80815 56.7749 7.07077C57.4965 7.45641 56.976 7.64439 58.0563 7.60085C58.1896 7.8379 58.1178 7.99894 57.8655 8.12126C57.6312 8.24083 57.3092 8.30647 57.1502 8.3196L57.7791 8.39287L58.0853 8.43088L58.2843 8.48202C58.5476 8.55251 58.8103 8.58569 59.0563 8.69489C59.0832 8.20351 59.435 7.98373 59.8172 7.83445C60.1904 7.70037 60.6009 7.58427 60.6894 7.18066C59.9084 7.32855 59.1966 7.52206 58.5469 7.84758C58.5338 7.36449 58.8559 6.62431 59.4613 6.17232C59.7619 5.93804 60.1365 5.73001 60.5263 5.68025C60.9202 5.60768 61.3404 5.63325 61.7039 5.83091C61.8311 6.08801 61.592 6.47088 61.3377 6.84063C61.0806 7.20899 60.8124 7.56353 60.773 7.72594C60.9036 7.5974 61.263 7.54141 61.5947 7.58081C61.9168 7.64024 62.2147 7.76119 62.214 7.89458C61.9555 7.96922 61.7081 8.04731 61.4724 8.12817C61.7109 8.45645 62.1214 8.26432 62.5271 8.23115C62.7309 8.20627 62.941 8.19866 63.1124 8.28298C63.2728 8.38181 63.3992 8.56772 63.4345 8.8884C63.5485 8.99829 63.5119 9.40466 63.487 9.70737C63.4656 10.0108 63.4649 10.2181 63.6909 10.0253C64.1601 8.92709 66.2632 6.09285 67.2404 5.83161C67.2584 5.87376 67.3344 6.05068 67.4429 6.30156C67.5362 6.56142 67.6399 6.90559 67.7339 7.25392C67.9316 7.94917 67.9703 8.7405 67.8922 9.07915C67.7014 9.62443 67.1319 9.67074 66.5611 9.78339C65.9923 9.88291 65.4691 10.0142 65.2984 10.4241C65.523 10.2775 65.9916 10.3211 66.1485 10.3784C66.1381 10.8097 65.371 10.7212 65.8561 11.2824C66.8265 10.8802 66.4609 12.7172 66.7788 11.1898C67.0739 11.4787 67.1271 11.6936 67.1437 11.9293C67.1444 12.1739 67.1181 12.4366 67.2971 12.8512C67.5618 12.6176 68.1541 12.6308 68.7346 12.8754C69.027 12.9957 69.3248 13.1691 69.5785 13.3751C69.81 13.5845 70.0007 13.8243 70.1079 14.0552C69.8459 14.0358 69.5474 14.2908 69.4105 14.4042C69.4541 15.3385 69.3165 16.0497 69.1838 16.7622C69.0567 17.4699 68.9406 18.161 68.9364 19.0388C68.6925 19.2005 68.3974 20.0478 67.9633 19.687C68.1417 19.9393 68.4831 20.1715 68.5079 20.7126C67.6364 21.7604 68.3725 19.5053 67.3254 20.3042C67.9108 20.3726 68.1334 21.7044 68.499 22.4757C69.4036 22.2386 68.6724 20.694 68.3068 19.9213C69.5543 19.9179 70.8605 21.2621 71.4376 23.097C71.7472 24.5552 70.631 23.7293 70.8087 23.9823C70.591 26.7212 72.987 26.3162 72.0872 28.5906C71.2924 29.4932 70.506 28.6314 69.9323 28.8311C69.6317 27.6431 70.4368 27.0073 70.405 26.2021L70.0291 27.1932C69.7651 26.8152 69.5647 26.0225 69.7948 25.5898C69.0809 26.3459 69.6572 30.2175 68.9986 32.3309C69.2647 32.7062 69.5405 33.3545 69.8604 33.0476L69.7492 32.3793C70.3898 31.7649 70.6359 33.6378 70.9351 32.7912C71.3857 33.6883 72.0934 34.6938 71.7313 35.9565L70.8245 36.1935C71.0892 36.1666 71.3643 35.3684 71.0886 35.0131C71.4901 35.5397 69.8618 36.9496 71.0485 37.526L71.6767 36.6407C72.1321 37.5412 73.0942 38.6546 72.8087 39.7735C73.7037 39.2641 72.7064 39.5157 73.7535 38.7203C72.4507 39.4093 73.8081 35.857 72.439 36.9648C73.6546 36.1486 72.9546 35.5522 73.9912 34.4858C73.6927 34.519 73.4197 34.8638 73.5669 33.9239C73.4798 33.8818 73.3685 33.7816 73.3036 33.718C73.3132 33.6896 73.3174 33.6793 73.3257 33.6544C73.3132 33.6731 73.3029 33.6876 73.2904 33.7062C73.2455 33.6655 73.2365 33.662 73.278 33.7256C73.1474 33.9495 72.9898 34.1306 72.8232 34.2045C72.137 33.738 72.1584 32.2438 71.8032 31.7386C71.9455 31.1809 72.146 31.9715 72.4653 31.6675L71.9338 30.9128C72.5979 30.8381 73.0368 29.4317 73.4259 30.7448L73.4556 29.563C73.8281 28.8671 73.976 27.9099 73.6968 27.3197C73.8406 26.7619 72.9622 25.9112 73.4819 26.397L73.0707 24.5435L73.2365 24.5262C73.3202 22.6975 72.137 20.761 73.3354 18.6697C73.1681 18.0539 72.9628 17.4174 73.1515 16.3877L73.7258 16.1865C73.6374 15.8735 73.7438 15.0054 73.7915 14.2715C73.8095 13.5327 73.7286 12.8595 73.4031 12.6909C73.7307 12.3322 73.8115 11.8104 73.7652 11.2002C73.7189 10.5906 73.4535 9.92092 73.155 9.25469C72.4881 7.93536 71.4991 6.74319 70.9932 5.90625L70.3539 6.30364C69.6068 5.25591 68.575 4.48394 67.1637 3.78523L66.8348 4.36714C66.4934 4.28766 66.1948 4.09069 65.8713 3.8647C65.5438 3.64492 65.2196 3.3519 64.8623 3.05057C64.4926 2.77413 64.1035 2.45759 63.6708 2.18944C63.2278 1.94824 62.7607 1.69876 62.2554 1.57505C62.4676 1.35389 62.9555 1.6096 63.2534 1.87983C62.3418 0.704244 60.8373 0.681438 59.5401 0.852143C59.2146 0.914343 58.8904 0.97585 58.5711 1.03667C58.2885 1.08505 58.0093 1.13273 57.7363 1.17973C57.258 1.24538 56.7943 1.20254 56.3554 0.930243C55.918 1.17144 55.6014 1.0892 55.2946 0.922639C55.3353 0.921257 55.372 0.908815 55.4031 0.888082C55.3581 0.879788 55.2918 0.8784 55.2234 0.879782C55.0299 0.765749 54.8315 0.633065 54.6159 0.526634C54.799 0.687663 54.9746 0.820351 55.1273 0.88186C54.7901 0.895682 54.2786 0.977923 53.7769 1.14379L53.5633 0.431945C53.5226 0.441621 53.4901 0.440243 53.4472 0.451992C52.9552 0.18937 53.0512 0.789255 53.3138 1.32487C53.0616 1.44167 52.8301 1.58264 52.6504 1.75404C52.2509 0.604719 51.3345 2.14106 50.7885 0.915722C50.4506 1.51353 48.2673 1.36564 47.9999 2.62277C47.9826 2.45898 47.8347 2.38089 48.1056 2.37052C47.5465 2.22677 46.9881 2.08439 46.4863 2.43824L46.2493 1.53289L45.0281 2.74994C44.2865 2.19843 43.979 1.87775 44.715 1.18111C42.9368 2.25233 43.272 1.58472 41.7598 2.64627L41.8338 2.06089C41.2933 2.08301 40.4287 2.86743 40.1025 2.38365C38.8931 1.27165 34.1189 2.23022 31.0151 1.19632C31.6171 2.91926 29.5721 0.423655 29.449 1.75958C29.268 1.35251 28.8353 1.12237 29.3385 0.767831C27.7544 1.16798 26.9583 0.121636 25.8642 1.24815C25.6832 0.83901 26.2029 0.650339 26.0419 0.40845C25.9147 0.496912 25.5387 0.762987 25.3736 0.519716C25.2125 0.277135 25.6058 0.177616 25.8566 0C24.238 0.0684201 24.0749 1.32486 23.9568 2.5032C23.1364 1.94548 22.7273 2.02427 22.135 2.79693C21.8496 2.41129 21.3734 2.00837 22.379 1.86946C21.8129 1.81279 18.9234 1.30413 18.8653 2.24888C18.6884 2.00906 18.0747 2.17908 17.9254 2.28828C16.6559 2.2323 16.5446 2.1466 15.2978 2.23644L15.6434 2.39125C15.1803 3.53297 14.5549 2.6359 13.4263 2.89852L13.4436 2.77758C12.0793 2.54536 11.8001 2.79002 11.5548 2.92272C11.2928 3.07476 11.08 3.1881 9.6618 3.24892L10.0696 3.84052C10.2562 4.59936 9.70051 4.59728 8.9078 4.62976C8.52285 4.66432 8.07087 4.69611 7.65827 4.81843C7.26088 4.9608 6.89528 5.18196 6.68657 5.52337L7.36731 5.51785C7.19661 5.95048 6.47439 5.90486 5.60981 5.87722C4.75698 5.84197 3.81223 5.88274 3.42106 6.17785C3.18539 6.25318 3.46529 5.79152 3.59522 5.51231C2.99257 5.82538 2.75551 6.08524 2.68226 6.25595C2.61176 6.43011 2.72097 6.53723 2.86956 6.6485C3.17365 6.87311 3.60421 7.11638 3.19852 7.88974C2.60279 7.90494 2.37057 6.79986 1.62347 7.84689C1.26893 8.01207 1.17702 9.05703 1.09961 10.1352C1.02497 11.234 0.995259 12.3543 0.385006 13.0924C0.826627 12.789 1.25373 12.5485 1.41407 13.382C1.40509 13.6868 1.26686 14.0247 1.11897 14.3966C0.985581 14.7691 0.815569 15.1748 0.682876 15.5901C0.441678 16.3116 0.354592 16.9274 0.960698 17.3932C0.855649 17.5211 0.754053 17.5695 0.657988 17.5743C0.971753 18.3428 1.17978 20.0713 1.83979 20.5336C-0.609507 21.2434 3.03058 25.3099 0.772028 25.2926L0.892278 27.6556L0.662143 27.594C0.512863 29.1048 1.054 29.6384 1.59583 30.1698C1.44241 30.5188 1.23162 30.2638 1.11344 30.2355C0.657996 32.4429 0.754052 32.662 1.87918 34.5128L1.14661 34.7049C1.57233 35.2066 -0.00271103 37.8958 0.852195 40.0603C0.769261 40.0389 0.626888 39.994 0.523912 39.8226C1.38366 42.2581 -1.50864 45.6528 1.15974 46.5457L1.81698 48.1532C2.02432 46.0737 2.9746 48.4629 3.41829 47.6073C3.57518 48.4249 2.61315 49.7214 2.47631 48.7165L2.60969 48.5596C1.21848 48.1906 2.11693 51.143 1.16942 51.0877C1.20397 53.1334 1.02843 55.1535 0.836988 57.1405C0.78861 57.6374 0.740929 58.1322 0.693242 58.625C0.669744 59.191 0.634498 59.8434 0.672509 60.4474C0.725725 61.0611 0.765113 61.6797 0.913011 62.2782C0.980049 62.5781 1.03534 62.8822 1.12311 63.1759L1.41891 64.0454C1.68914 63.7385 1.96558 63.4441 2.24686 63.1628C2.40098 63.6673 2.56823 64.1684 2.79491 64.6473C2.74999 65.129 2.29178 65.5575 1.81284 64.4483C1.66563 64.856 2.00912 65.2742 2.40305 65.543C2.82187 65.8029 3.29321 65.9114 3.39964 65.8637C3.589 66.4 3.61526 66.6605 3.52541 66.7649C3.43557 66.8699 3.20889 66.8313 2.98773 66.7172C2.54058 66.4967 2.01534 66.0351 2.1971 66.3613C2.3989 66.6336 2.58551 66.9149 2.80252 67.1713C2.79284 67.0863 2.78178 67.0033 2.77901 66.9149C3.19022 67.125 3.51022 67.1574 3.81361 67.2915C4.11494 67.4284 4.4135 67.6488 4.86825 68.1699C5.30642 68.9668 4.70238 68.9716 4.92907 69.2501C4.87378 69.3033 4.94012 69.4146 5.31885 69.6482C5.81369 70.1666 6.39146 70.5964 6.95886 71.038C6.8704 70.651 6.81926 70.2377 6.7695 69.8521C7.01277 69.9025 7.22563 69.9979 7.4067 70.094C7.59745 70.1762 7.75571 70.2591 7.87458 70.2985C8.11578 70.3787 8.18213 70.2723 8.06533 69.6344C8.18006 70.6185 9.82422 71.6932 11.6066 72.1335C11.8284 72.1888 12.0489 72.2434 12.2659 72.2973C12.4871 72.3297 12.7048 72.3615 12.9169 72.3926C13.3413 72.4514 13.7408 72.508 14.1001 72.5129C14.4588 72.5315 14.7726 72.5523 15.0248 72.5848C15.2536 72.611 15.3966 72.6428 15.4886 72.7016C16.5342 72.0796 17.5661 72.0899 18.8446 72.1653C18.5267 71.9876 18.3366 71.0277 19.439 71.1452C19.036 73.1259 21.4584 72.0049 22.3492 73.43C21.5531 72.4852 25.4841 73.1964 24.2346 71.8549C25.1552 72.0153 24.2906 72.5965 24.9886 73.0623C27.1787 72.2952 29.8146 73.5613 32.5217 73.3021C32.5639 73.0423 32.1105 72.6449 32.691 72.2579L34.1203 73.5578C34.6552 73.43 34.6123 72.0567 35.5896 72.9593C35.4514 72.7409 35.2454 72.4106 35.6041 72.3277C40.907 73.5945 46.44 71.2896 51.8259 73.6705C51.0967 73.1667 51.5826 73.1169 52.1396 73.0983C51.7775 72.978 52.1479 72.4562 52.0767 72.1037L54.3312 73.0824C54.7424 72.1044 56.7487 73.016 56.9837 72.0809L56.2697 72.2489C57.2193 71.1452 54.9414 69.7961 55.0796 68.38C54.0167 69.6344 52.2765 66.5223 50.5321 68.3178C50.1472 68.0289 50.8604 67.8617 50.6544 67.5334C50.2121 68.1402 49.6786 68.2667 48.6889 67.9944L48.8009 67.8444C46.0212 67.9923 44.8291 67.3938 41.7059 66.9957L41.9374 67.6958C41.2664 67.6018 41.1254 67.3827 40.8109 67.2072C40.041 68.2688 42.6956 67.2673 41.9941 68.4381C41.104 67.013 37.2614 68.4167 36.6601 66.7974C35.6276 66.7891 36.9628 67.6081 35.931 67.5984L35.6573 67.1602L35.3961 67.7248C34.7195 67.6315 34.3781 67.0835 34.3525 66.7131C34.517 66.7573 34.8197 66.6094 34.9952 66.5776C34.1175 66.0614 32.5203 66.7538 32.219 66.5859L33.2108 66.8561C30.3931 67.266 26.9527 66.6909 24.2311 67.5818L24.4378 67.9128C22.3589 68.5238 22.7729 67.55 20.4901 67.8327L20.5731 67.7539C20.1163 68.0829 19.506 68.2494 18.8819 68.2114C19.4583 67.8244 17.7976 67.4595 18.5537 67.031C16.2992 67.6868 17.4389 67.5465 15.9495 68.774L15.6061 68.2259C15.085 68.727 15.0684 68.9806 14.0289 69.0718C14.4719 68.8569 14.3144 68.6406 14.1955 68.4077C14.0704 68.1734 13.9889 67.9232 14.4236 67.6323C13.9813 67.3157 13.6281 67.1505 13.2791 67.1312C12.9439 67.0628 12.608 67.1443 12.3088 67.1561C12.0123 67.1671 11.7324 67.1775 11.5278 67.0559C11.3322 66.9149 11.2064 66.6557 11.2265 66.1809C10.4953 66.6764 10.7448 67.022 11.1553 67.2895C11.5527 67.5631 12.0952 67.6191 11.796 67.6979C11.9128 68.0054 11.6474 68.2086 11.2465 68.2791C10.8477 68.3538 10.3502 68.2155 10.0709 68.0089C9.77722 67.8126 9.76339 67.2376 9.70188 66.6384C9.6542 66.0026 9.56643 65.3771 9.04118 64.8927C9.14347 64.9936 9.22986 64.9169 9.33076 65.0164C9.29759 64.8547 9.21051 64.7593 9.09855 64.6846C8.99627 64.6003 8.86564 64.5409 8.73433 64.4718C8.60509 64.402 8.47033 64.3267 8.3791 64.2064C8.29755 64.0786 8.25124 63.9134 8.28096 63.6908C7.79718 63.818 7.67001 63.6252 7.56773 63.471C7.45577 63.3197 7.33414 63.2181 6.79507 63.4579L7.28783 64.006L7.82621 64.4987C7.46821 64.2727 6.87316 64.2029 6.37349 63.9168C6.11087 63.7841 5.86829 63.6038 5.71071 63.3418C5.54416 63.0854 5.41838 62.7682 5.46261 62.3577C5.71556 62.3888 6.15717 62.6631 6.44675 62.8311C6.57322 62.3452 5.93325 62.2063 6.11916 61.6963C6.71075 61.565 6.86832 61.9389 7.11643 62.3701C7.33552 62.8104 7.65274 63.3245 8.22912 63.4013C8.33003 63.1096 7.98033 62.9182 7.72807 62.7412C7.50346 62.5498 7.41707 62.3991 8.06326 62.2865C7.23047 62.4095 7.09224 62.046 7.06875 61.6355C7.00171 61.2243 7.06322 60.7902 6.34169 60.4315L7.03834 60.3583C6.91187 60.2387 6.53936 59.9803 6.50964 59.6928C6.8393 59.8282 7.16481 59.9457 7.4848 60.0452C7.26848 59.9035 7.18554 59.7301 7.17587 59.5545C7.18623 59.3755 7.27816 59.1924 7.37491 59.0196L7.51936 58.7653C7.56359 58.6879 7.61403 58.5282 7.64513 58.4135C7.7101 58.1633 7.72185 57.9124 7.61611 57.6602C7.62164 58.1896 7.57119 58.4833 7.4855 58.6409C7.39911 58.7978 7.28368 58.7763 7.14201 58.777C6.86211 58.7597 6.50895 58.6112 6.27397 58.9574C6.13575 58.7369 6.08391 58.4259 6.06802 58.2103C6.0535 57.985 6.08323 57.8026 6.14474 57.6484C6.26775 57.3395 6.51586 57.1425 6.78262 56.9352C7.31685 56.5205 7.92642 56.0679 7.75779 54.6062C7.85662 55.0022 7.33621 56.0914 7.01139 55.4728C7.15583 54.9165 7.42467 54.1818 7.79304 53.8404C7.64721 51.9039 7.07151 54.1376 6.64026 53.3138C7.49517 52.6545 6.29194 52.3628 6.01895 51.5141L6.73217 51.5079C7.18969 49.3012 5.24628 50.9232 5.79848 48.9363L6.78747 49.776L6.53176 48.74L7.34312 48.9536C6.74116 47.827 6.89736 47.4759 7.12473 46.3722C6.62229 46.6286 5.83028 46.2278 5.80816 45.2506C6.23182 44.5843 6.48614 45.6238 6.38386 44.2388C6.83031 44.5518 7.39012 44.894 6.73287 45.4973C6.96508 45.5588 7.18071 45.8055 7.41016 45.8691C7.89739 45.1511 7.52143 44.0653 7.51521 43.5636C7.48826 43.7564 7.45024 43.9872 7.34865 44.1061L6.36036 42.0977C6.62851 41.7819 6.84345 42.0321 7.05424 42.2809C6.97683 41.8738 6.64924 41.5925 6.58773 40.9947C7.16758 41.1495 7.76539 41.1122 8.03838 41.9588L7.39495 40.0458C7.64721 39.9179 8.08745 39.0637 8.301 39.3125C8.64172 38.2517 7.17656 36.7105 7.62578 35.3041C7.51313 35.2308 7.40601 35.0843 7.32239 34.7851C7.4537 33.4637 8.16485 32.2922 7.37007 30.7262L8.40951 29.8374C8.17384 28.6107 7.09985 31.0406 6.70799 28.9977C6.37695 27.5512 7.59468 28.4579 7.88357 27.9507C7.3597 27.2312 6.29332 25.981 7.13924 24.652C7.33483 25.0888 7.18071 25.4336 7.25811 25.8441ZM7.5781 12.2389C7.60021 12.4939 7.90914 13.033 7.46199 13.0268C6.78263 12.5299 7.19522 12.449 7.5781 12.2389ZM25.0066 5.72517C24.7889 5.96084 24.4516 5.84404 24.0708 5.57451C24.3472 5.51645 24.6603 5.54272 25.0066 5.72517ZM73.0354 28.6501C73.0237 28.6376 73.0154 28.6286 73.0009 28.619C73.2794 27.9652 73.1695 28.1967 73.0354 28.6501ZM72.7258 30.0081C72.8253 30.1442 72.9241 30.1353 73.0237 30.0772C72.8433 29.9825 72.8308 29.6777 72.8813 29.3301C72.6954 29.4269 72.5661 29.6024 72.7258 30.0081ZM5.24835 69.1859L5.1364 68.8299C5.81646 69.1762 5.5407 69.1734 5.24835 69.1859Z" fill="#34A853"/>
<path d="M22.399 7.15066C22.3161 7.0304 22.2932 6.89702 22.2739 6.76294C22.1585 6.88319 22.1557 7.02211 22.399 7.15066Z" fill="#F9AB00"/>
<path d="M7.63272 35.7046C7.62719 35.7198 7.62926 35.735 7.62442 35.7509C7.66727 35.7765 7.71012 35.7896 7.75297 35.7972L7.63272 35.7046Z" fill="#F9AB00"/>
<path d="M65.2404 11.4134C65.2099 11.1832 65.2348 11.0167 65.2977 10.8708C65.1477 10.9662 65.0959 11.1273 65.2404 11.4134Z" fill="#F9AB00"/>
<path d="M73.938 37.655L73.7527 36.7849C73.788 37.2058 73.6318 37.3558 73.5192 37.5686C73.685 37.5493 73.9262 37.3827 73.938 37.655Z" fill="#F9AB00"/>
<path d="M69.5246 45.2053C69.6117 45.3325 69.5343 45.4749 69.6227 45.6006L69.9545 45.5661C69.9331 45.0243 69.6656 44.6455 69.5246 45.2053Z" fill="#F9AB00"/>
<path d="M71.5682 38.4602C70.9683 38.5293 71.1722 39.0746 71.2828 39.6842C71.2807 39.6475 71.2758 39.613 71.2828 39.5764C72.1225 39.7561 71.8446 39.1064 71.5682 38.4602Z" fill="#F9AB00"/>
<path d="M71.3035 39.8252C71.3319 40.0132 71.3471 40.2046 71.3187 40.3885C71.6546 40.4603 71.3885 40.1604 71.3035 39.8252Z" fill="#F9AB00"/>
<path d="M73.1239 32.1807C72.9691 32.4696 73.891 32.3618 73.6463 32.5256C74.41 32.8483 72.7223 30.5987 73.1239 32.1807Z" fill="#F9AB00"/>
<path d="M69.5916 38.9536L70.3325 38.7352L69.7354 38.3938L69.5916 38.9536Z" fill="#F9AB00"/>
<path d="M70.1355 34.1419L69.9302 35.1157C70.0546 35.1012 70.1272 35.2249 70.1832 35.3769C70.2074 34.7764 70.3553 34.1191 70.1355 34.1419Z" fill="#F9AB00"/>
<path d="M70.1832 35.3762C70.1687 35.6886 70.1846 35.9858 70.3055 36.1599C70.2979 35.9913 70.2737 35.6271 70.1832 35.3762Z" fill="#F9AB00"/>
<path d="M69.3698 37.6224L69.5239 37.3342L69.5785 36.6472L69.3698 37.6224Z" fill="#F9AB00"/>
<path d="M70.2786 23.675L70.0664 22.6121C69.8128 22.5036 69.6573 22.7932 69.7582 23.1892C69.9351 23.4435 70.0332 23.8381 70.2786 23.675Z" fill="#F9AB00"/>
<path d="M68.2502 26.8887C68.4036 26.6012 68.5695 26.5819 68.8135 26.4202L67.895 26.3877L68.2502 26.8887Z" fill="#F9AB00"/>
<path d="M68.0359 23.7899C67.7809 23.6842 67.3047 22.2473 67.362 23.5943C67.615 23.7021 67.8265 24.7665 68.0359 23.7899Z" fill="#F9AB00"/>
<path d="M66.3579 8.76989L66.5424 8.9558L67.6593 7.94678C67.219 8.21355 66.785 8.48791 66.3579 8.76989Z" fill="#F9AB00"/>
<path d="M53.6476 8.65029C54.9068 9.01105 53.9469 7.72144 55.0844 8.17135C55.3802 7.81543 54.1542 7.80437 54.4576 7.49683C53.6981 7.8721 53.2986 7.65992 53.6476 8.65029Z" fill="#F9AB00"/>
<path d="M54.4576 7.49683C54.5793 7.43809 54.7085 7.36551 54.8453 7.26807C54.6256 7.36137 54.5219 7.43394 54.4576 7.49683Z" fill="#F9AB00"/>
<path d="M55.8392 74.3033L56.6492 74.6177L56.126 74.1118L55.8392 74.3033Z" fill="#F9AB00"/>
<path d="M57.3934 73.187L57.5842 74.1463L58.0707 73.2782C57.8876 73.3204 57.5323 73.4033 57.3934 73.187Z" fill="#F9AB00"/>
<path d="M9.95897 12.4413L9.79379 12.2768C9.55674 12.1905 9.44962 12.2561 9.30518 12.4323C9.51182 12.4157 9.7461 12.4296 9.95897 12.4413Z" fill="#F9AB00"/>
<path d="M8.01215 19.8955L8.0315 19.7068L7.16415 20.0599L8.01215 19.8955Z" fill="#F9AB00"/>
<path d="M9.11859 29.1128C9.15453 28.7369 8.96102 28.2945 8.99834 27.9165C9.15522 28.7369 8.037 29.2144 9.11859 29.1128Z" fill="#F9AB00"/>
<path fill-rule="evenodd" clip-rule="evenodd" d="M39.0157 18C28.5005 18 20 26.7083 20 37.4816C20 46.0934 25.4466 53.383 33.0024 55.963C33.9471 56.157 34.2931 55.5438 34.2931 55.0281C34.2931 54.5764 34.262 53.0283 34.262 51.4153C28.9723 52.5767 27.8707 49.093 27.8707 49.093C27.0206 46.8352 25.7611 46.2549 25.7611 46.2549C24.0298 45.0614 25.8872 45.0614 25.8872 45.0614C27.8077 45.1905 28.8154 47.0612 28.8154 47.0612C30.5152 50.0283 33.2543 49.19 34.3562 48.6738C34.5134 47.4158 35.0175 46.545 35.5527 46.0613C31.3338 45.6097 26.8949 43.9325 26.8949 36.4493C26.8949 34.3205 27.65 32.5789 28.8465 31.2243C28.6578 30.7406 27.9965 28.7405 29.0357 26.0635C29.0357 26.0635 30.6413 25.5473 34.2616 28.0632C35.8116 27.6368 37.41 27.4199 39.0157 27.418C40.6213 27.418 42.2581 27.644 43.7695 28.0632C47.3901 25.5473 48.9957 26.0635 48.9957 26.0635C50.035 28.7405 49.3733 30.7406 49.1845 31.2243C50.4125 32.5789 51.1365 34.3205 51.1365 36.4493C51.1365 43.9325 46.6977 45.5772 42.4472 46.0613C43.1401 46.674 43.7379 47.835 43.7379 49.6737C43.7379 52.2861 43.7068 54.3829 43.7068 55.0277C43.7068 55.5438 44.0532 56.157 44.9975 55.9634C52.5533 53.3826 57.9999 46.0934 57.9999 37.4816C58.0311 26.7083 49.4994 18 39.0157 18Z" fill="#34A853"/>
</svg>
