<svg width="76" height="76" viewBox="0 0 76 76" fill="none" xmlns="http://www.w3.org/2000/svg">
<path d="M59.0319 74.9578C58.5606 74.924 58.7306 75.5356 58.6588 75.6496C59.4791 75.4789 59.0008 74.7975 59.0319 74.9578Z" fill="#F9AB00"/>
<path d="M65.7254 71.5921L65.7468 71.8747C65.941 71.5071 66.1386 71.1726 66.2893 70.7959C66.1248 71.082 65.9203 71.3218 65.7254 71.5921Z" fill="#F9AB00"/>
<path d="M70.3793 66.97C70.0724 66.9673 69.8547 67.091 69.6833 67.2941C69.494 67.4849 69.3461 67.7544 69.2003 68.0544C69.0634 68.3612 68.8927 68.6695 68.6985 68.9507C68.5029 69.2293 68.2928 69.4891 68.0046 69.6094L67.6992 69.5631C67.7648 69.8858 67.8229 70.2162 67.8719 70.5527C68.1214 70.277 68.3827 69.9757 68.6142 69.6439C68.8312 69.3053 69.0517 68.9611 69.2645 68.6287C69.6446 67.9369 70.0088 67.337 70.3793 66.97Z" fill="#F9AB00"/>
<path d="M74.0028 64.3928C73.7733 64.4564 73.7457 64.218 73.7422 64.1938C73.7305 64.1682 73.7927 64.3617 73.5743 65.2616C73.6482 65.1897 73.6821 65.1731 73.7319 65.133C73.7761 64.972 73.877 64.764 74.0028 64.3928Z" fill="#F9AB00"/>
<path d="M73.7319 65.1337C73.4803 65.914 74.2406 64.7432 73.7319 65.1337V65.1337Z" fill="#F9AB00"/>
<path d="M74.3228 61.4487C74.3981 61.8094 74.4658 62.1785 74.5308 62.5551C74.8072 62.3754 75.0014 61.4072 75.1238 61.7887C75.0325 60.6325 74.7478 60.8757 74.3228 61.4487Z" fill="#F9AB00"/>
<path d="M73.6089 60.4231L73.7367 60.9525C73.8431 60.8695 73.8867 60.7265 73.6089 60.4231Z" fill="#F9AB00"/>
<path d="M73.9385 62.1066C73.8895 61.7154 73.8369 61.3319 73.7367 60.9531C73.5557 61.09 73.2233 61.0651 73.819 61.4749C73.5204 61.3533 73.7906 61.5952 73.9385 62.1066Z" fill="#F9AB00"/>
<path d="M73.6807 62.7141C73.3518 63.2442 73.0138 63.8835 72.9053 62.8475C72.7519 63.7674 72.8535 64.2249 73.0497 64.2118C73.2357 64.1979 73.5549 63.6934 73.6807 62.7141Z" fill="#F9AB00"/>
<path d="M69.6081 66.1362L69.0185 66.5115C69.0289 66.7306 69.0261 66.9476 69.0082 67.1598C69.0434 66.8605 69.9045 66.2662 69.6081 66.1362Z" fill="#F9AB00"/>
<path d="M74.9496 56.2148C74.725 56.1665 74.3511 56.4747 74.0643 56.5321L74.3221 57.1029C74.4755 56.8092 74.6172 56.2535 74.9496 56.2148Z" fill="#F9AB00"/>
<path d="M74.0643 56.5322L73.6786 55.6787C73.633 56.441 73.8161 56.5806 74.0643 56.5322Z" fill="#F9AB00"/>
<path d="M72.4457 60.2151C72.689 60.7804 72.9413 61.3789 73.0995 62.0037C72.9606 61.2656 72.6848 60.5579 72.4492 59.8923L72.4457 60.2151Z" fill="#F9AB00"/>
<path d="M74.978 52.955L75.4977 53.4387L74.7119 52.5769L74.978 52.955Z" fill="#F9AB00"/>
<path d="M74.8867 50.7923C75.3166 51.1503 75.6152 50.3016 75.8799 50.6797C75.8031 50.0922 75.4334 49.5905 75.101 49.1392C75.2869 49.6188 75.2392 50.1302 74.8867 50.7923Z" fill="#F9AB00"/>
<path d="M74.6172 48.3811C74.7202 48.6209 74.9054 48.869 75.1017 49.1392C75.0015 48.8842 74.8584 48.6334 74.6172 48.3811Z" fill="#F9AB00"/>
<path d="M73.7899 54.2245C73.9254 54.1581 74.2806 54.0317 74.4306 53.5527L73.7989 53.8886C73.7961 53.9909 73.7927 54.107 73.7899 54.2245Z" fill="#F9AB00"/>
<path d="M73.7789 53.9003L73.7989 53.8886C73.8169 53.5243 73.8286 53.2714 73.8341 53.1636C73.8272 53.2562 73.8107 53.478 73.7789 53.9003Z" fill="#F9AB00"/>
<path d="M73.7866 54.3081C73.7873 54.2773 73.7887 54.2547 73.7893 54.2246C73.7278 54.2568 73.7073 54.2759 73.7866 54.3081Z" fill="#F9AB00"/>
<path d="M73.0331 57.9185C72.68 57.4167 72.3013 56.3718 71.7629 57.3829C72.1955 57.7429 72.5017 57.1638 73.0331 57.9185Z" fill="#F9AB00"/>
<path d="M72.9973 54.7263L72.8528 55.6331C73.0194 55.6151 73.2627 55.452 73.4382 55.7001L72.9973 54.7263Z" fill="#F9AB00"/>
<path d="M72.7968 54.282L72.9972 54.7264L73.0504 54.3898L72.7968 54.282Z" fill="#F9AB00"/>
<path d="M74.0256 49.9338C73.7505 49.5419 73.7277 49.1134 73.6835 48.6296C73.5591 49.148 73.492 49.6843 73.4934 50.1936C73.6925 50.2655 74.0477 50.4894 74.0256 49.9338Z" fill="#F9AB00"/>
<path d="M73.8493 51.8606C73.8349 51.8339 73.8281 51.7997 73.8137 51.7744C73.761 51.8271 73.7439 51.8695 73.8493 51.8606Z" fill="#F9AB00"/>
<path d="M73.6877 43.8655L73.573 43.9422C73.6096 43.9484 73.6442 43.9539 73.6822 43.9602L73.6877 43.8655Z" fill="#F9AB00"/>
<path d="M73.376 50.2809C73.2543 50.6706 73.4085 50.9035 73.6033 51.1261C73.5398 50.8344 73.499 50.5255 73.4935 50.1938C73.4043 50.162 73.3449 50.1558 73.376 50.2809Z" fill="#F9AB00"/>
<path d="M74.3214 47.052C74.1894 47.2552 74.0774 47.4853 73.9744 47.7272C74.1742 47.5282 74.4859 47.1239 74.3214 47.052Z" fill="#F9AB00"/>
<path d="M73.989 51.6431C73.9993 51.6625 74.0104 51.6804 74.0173 51.7011C74.1528 51.5733 74.0864 51.5892 73.989 51.6431Z" fill="#F9AB00"/>
<path d="M73.989 51.6432C73.8977 51.4428 73.7422 51.2852 73.6033 51.1262C73.6531 51.3633 73.7208 51.5837 73.8141 51.7745C73.859 51.7261 73.9268 51.6777 73.989 51.6432Z" fill="#F9AB00"/>
<path d="M69.6329 42.4223C70.2182 42.4907 70.7594 43.5163 70.1318 44.401C70.5707 45.2718 72.4961 44.7023 73.5736 43.9421C73.3179 43.9151 73.0822 43.9151 72.736 43.0187C72.416 43.3325 71.9882 45.0071 71.4588 44.251C71.1568 43.0643 71.6661 43.2786 71.9757 42.7015C71.2459 43.1922 70.9142 41.1914 69.8416 41.4499L70.2189 42.4907C70.0517 42.5108 69.7849 42.1334 69.6329 42.4223Z" fill="#F9AB00"/>
<path d="M73.5135 45.6493L73.5861 46.0183C73.6877 45.5981 73.9219 45.2968 74.3801 44.7432C74.0947 44.1295 73.877 44.0024 73.6821 43.9602L73.6006 45.7758L73.5135 45.6493Z" fill="#F9AB00"/>
<path d="M73.5881 47.6735C72.9509 47.3853 72.68 46.5 71.991 47.0425C72.0352 48.1241 72.5231 47.8007 72.7996 48.4469C72.6413 46.7011 73.1548 48.9486 73.5156 47.6867C73.6241 48.0301 73.6572 48.3384 73.6835 48.63C73.7609 48.3156 73.8563 48.0122 73.9745 47.7268C73.9593 47.7426 73.9482 47.7537 73.9351 47.7668L73.9371 47.7751L73.9268 47.7737C73.8473 47.8491 73.7989 47.874 73.8452 47.7889C73.8376 47.7834 73.8342 47.762 73.8321 47.7523C73.7436 47.7406 73.6662 47.7081 73.5916 47.6735C73.7229 47.1676 73.7568 47.594 73.8321 47.7523C73.8632 47.7578 73.8936 47.7717 73.9268 47.7737C73.9302 47.7717 73.9351 47.7675 73.9351 47.7675L73.5861 46.0183C73.4976 46.3881 73.5156 46.8518 73.5881 47.6735Z" fill="#F9AB00"/>
<path d="M70.3931 56.4506C70.4491 56.396 70.4947 56.3988 70.541 56.3947C70.4629 56.2813 70.4097 56.2385 70.3931 56.4506Z" fill="#F9AB00"/>
<path d="M70.7773 55.7312C70.8665 55.8583 71.1208 55.9641 71.0552 56.3774C70.8637 56.7361 70.7497 56.376 70.5403 56.3946C70.7089 56.6434 70.9971 57.2668 71.3067 56.4852L71.2203 56.3615C71.4387 55.6572 72.2335 54.7526 72.3213 54.8756C71.7483 55.0808 71.3399 55.2626 70.7773 55.7312Z" fill="#F9AB00"/>
<path d="M72.0207 51.6522L71.7083 50.196L71.1568 50.9376L71.4878 50.9003C71.3579 51.7282 71.7656 51.5492 72.0207 51.6522Z" fill="#F9AB00"/>
<path d="M74.0049 43.6988L74.6774 43.8924L73.7278 43.0513L74.0049 43.6988Z" fill="#F9AB00"/>
<path d="M73.924 41.8066L74.5094 41.8764L74.1562 41.3767L73.924 41.8066Z" fill="#F9AB00"/>
<path d="M7.66153 19.5667L7.8274 19.9945C7.77626 19.792 7.72027 19.662 7.66153 19.5667Z" fill="#F9AB00"/>
<path d="M7.71891 16.5899L7.43417 16.5256C7.58691 16.6348 7.70164 16.677 7.71891 16.5899Z" fill="#F9AB00"/>
<path d="M55.2025 1.66659C54.5791 1.11992 53.8825 0.272617 53.9578 0.931247L54.1492 1.57191C54.5846 1.45718 54.9184 1.52836 55.2025 1.66659Z" fill="#F9AB00"/>
<path d="M23.3671 5.49547C23.4258 5.55836 23.488 5.62471 23.5495 5.69037C23.7009 5.4699 23.8426 5.26395 23.9704 5.07666C23.7886 5.20313 23.5827 5.34619 23.3671 5.49547Z" fill="#F9AB00"/>
<path d="M22.9275 8.14937L22.1058 7.73608C22.2903 7.88053 22.555 8.01806 22.9275 8.14937Z" fill="#F9AB00"/>
<path d="M8.34091 36.4878L8.99401 36.9874C8.99055 36.2058 8.66159 36.55 8.34091 36.4878Z" fill="#F9AB00"/>
<path d="M73.6877 22.4215C73.9378 21.8831 74.0436 21.4553 74.0747 21.0793C73.707 21.7276 73.1541 22.2501 73.6877 22.4215Z" fill="#F9AB00"/>
<path d="M0.855469 18.3475C0.971576 18.6094 1.10219 18.7214 1.24525 18.7138C1.13537 18.4435 1.01235 18.2915 0.855469 18.3475Z" fill="#F9AB00"/>
<path d="M74.0726 19.5259C74.0083 19.6206 73.9759 19.7139 73.922 19.8099C74.0298 20.2032 74.1162 20.5992 74.0747 21.0795C74.3491 20.6006 74.5177 20.0525 74.0726 19.5259Z" fill="#F9AB00"/>
<path d="M35.5818 67.7149C35.6267 67.7439 35.6799 67.7578 35.7207 67.7916C35.7338 67.7045 35.6723 67.7004 35.5818 67.7149Z" fill="#F9AB00"/>
<path d="M53.4602 74.1865C53.2839 74.2266 52.9971 74.2273 52.7262 74.2356C52.8582 74.2798 53.0794 74.275 53.4602 74.1865Z" fill="#F9AB00"/>
<path d="M74.2039 34.1912C74.2461 34.5927 74.2751 34.2547 74.2039 34.1912V34.1912Z" fill="#F9AB00"/>
<path d="M71.6675 36.143C71.5957 36.0573 71.5037 35.993 71.3558 35.9827C71.51 36.0158 71.6081 36.0718 71.6675 36.143Z" fill="#F9AB00"/>
<path d="M69.997 15.5413C69.9963 15.5297 69.995 15.5208 69.9943 15.5071C69.8883 15.637 69.9088 15.6145 69.997 15.5413Z" fill="#F9AB00"/>
<path d="M73.9122 34.795C73.991 34.6443 74.0567 34.4709 74.103 34.2815C74.0532 34.3644 73.991 34.5206 73.9122 34.795Z" fill="#F9AB00"/>
<path d="M74.2156 34.7136C74.1915 34.8525 74.1721 34.961 74.1534 35.0647C74.2606 35.1152 74.3276 35.0702 74.2156 34.7136Z" fill="#F9AB00"/>
<path d="M74.1693 33.6318C74.1797 33.8613 74.1493 34.0755 74.103 34.2815C74.1465 34.2027 74.1825 34.1695 74.2039 34.1909C74.197 34.0728 74.1866 33.9069 74.1693 33.6318Z" fill="#F9AB00"/>
<path d="M7.03332 63.9678C7.02434 63.9961 7.02365 64.0251 7.00983 64.059C7.3927 64.2428 7.2918 64.1295 7.03332 63.9678Z" fill="#F9AB00"/>
<path d="M44.7549 8.32643C44.7736 8.3202 44.784 8.3029 44.8006 8.29529C44.7819 8.28838 44.7584 8.27938 44.7411 8.27246L44.7549 8.32643Z" fill="#F9AB00"/>
<path d="M43.3132 8.80471C43.9269 8.00648 44.276 8.10462 44.7411 8.27325L44.2642 6.42383L43.3132 8.80471Z" fill="#F9AB00"/>
<path d="M7.84606 26.985L8.42245 25.9725C9.37066 27.1944 9.04377 28.079 9.85444 27.1281C7.84607 26.985 9.64849 23.1929 7.64288 23.0519L8.06515 22.3843C8.0458 22.5757 8.16398 22.6061 8.14393 22.7955C9.10527 21.4976 6.6926 21.8314 6.97803 20.1589C7.13215 19.5763 7.4238 19.1692 7.66154 19.5666L7.16532 18.268C7.20402 17.89 7.55304 17.9826 7.51433 18.3585L7.43417 17.3682L7.39408 16.8727L7.37611 16.5126L7.43485 16.5257C7.12247 16.317 6.66634 15.7793 6.51983 15.4953C6.86469 15.1449 6.7002 15.7247 6.96352 15.657C6.85156 15.3605 6.70918 15.0412 6.64214 14.7226C6.94001 14.61 7.16463 14.7682 7.29111 14.997C7.40652 15.2264 7.49843 15.545 7.40928 15.8077C8.47083 15.5844 8.32363 15.4552 8.17711 15.1566C8.09763 15.0108 7.99949 14.8277 8.01332 14.603C8.02368 14.3805 8.21305 14.1317 8.59454 13.8933L8.60215 14.6162C9.22622 14.592 9.45704 14.4614 9.66438 14.2831C9.90489 14.1262 10.0528 13.8808 10.5407 13.8124C10.4419 13.7958 10.256 13.7958 10.0203 13.8034C9.78325 13.8214 9.50958 13.8414 9.27529 13.8587C8.74797 13.8788 8.22479 13.8553 8.18816 13.3666C8.42729 13.207 8.60975 12.9824 8.52267 12.3777C8.82814 12.5663 8.99332 12.5408 9.12186 12.4164C9.26354 12.301 9.36513 12.077 9.50819 11.8434L10.2221 12.4682C10.3576 11.9049 9.97953 11.6057 9.91456 11.0487C10.4868 10.6582 11.0445 11.1323 11.5359 11.5518C11.934 11.3493 11.6465 11.1945 11.3327 11.0141C11.019 10.8282 10.6706 10.6264 11.1233 10.1682C12.0688 10.0051 12.3445 9.40795 13.272 8.52402C13.9859 8.67952 13.3169 9.1094 13.6127 9.31396C13.7185 9.03061 13.838 8.72997 13.9783 8.44316C14.1234 8.44108 14.1193 8.67537 14.1193 8.79355C14.5478 8.43901 13.9762 7.85503 14.7759 7.48528C14.8083 7.22335 14.95 7.18258 15.149 7.24823C15.2486 7.28071 15.3619 7.34015 15.4815 7.41202C15.5927 7.48114 15.731 7.56891 15.9058 7.66221C16.5624 8.02504 17.344 8.37059 17.984 7.779C18.2998 8.04715 17.8313 8.35885 17.928 8.72445C19.6855 7.94833 19.4346 8.16049 20.8777 7.11622L22.1072 7.73685C21.2039 7.02708 22.358 6.18668 23.3691 5.49626C23.0485 5.15347 22.7748 4.85353 22.591 4.71047L24.204 4.20319C24.3989 4.35869 24.2365 4.68351 23.9718 5.07814C24.0817 5.00004 24.186 4.92264 24.2676 4.85145C24.8447 5.20046 24.5454 5.74644 24.1321 6.27514C23.9359 6.08854 23.7403 5.88951 23.5509 5.69185C23.1528 6.26616 22.7796 6.90267 22.8626 7.45625C22.9676 7.34706 23.1694 7.25307 23.3913 7.20054C23.2869 7.35605 23.2206 7.49565 23.2689 7.59033C23.3235 7.68985 23.4922 7.48044 23.7555 7.23925L24.1225 8.29319L24.2116 7.87437L26.3223 8.53439C27.8323 7.47353 29.1455 5.91161 31.5422 5.47621C30.9479 6.24888 31.4144 6.73888 31.3819 7.6546C30.7281 6.68497 29.5256 8.06651 28.2836 7.86954C28.9319 7.97114 28.7895 8.40791 28.6244 8.55996L30.8394 7.6781C30.7896 8.42727 31.31 8.23997 31.8885 8.54959C31.451 7.06923 33.5395 7.56338 34.4408 7.10932C34.4967 7.60692 34.2804 8.1142 33.1809 7.99463C34.3945 9.1094 34.749 6.25579 35.9398 7.20261C35.6709 7.21505 35.5265 7.13835 35.4208 7.39129C36.0483 6.94967 37.5812 7.29937 37.2204 7.73269L36.9523 7.74307C38.7346 7.91861 42.3789 7.75413 42.6449 6.4963C42.6629 6.65871 42.4114 8.01191 42.3035 8.26623L45.484 4.03593C45.2034 5.11614 46.2795 7.68777 44.8012 8.29733C45.2256 8.45145 45.7508 8.63045 46.6458 8.24965C46.3562 8.09622 45.9243 6.68843 46.3196 6.5896C47.406 7.79214 47.0736 7.23234 48.4123 8.25795C47.9783 8.02642 48.4607 6.3332 49.1462 6.3871C49.0391 6.64074 49.2036 8.0589 48.9527 8.23514L50.6598 6.57301C50.2334 6.87226 50.5845 7.98219 50.9666 8.45214C50.789 8.12663 52.4429 8.48255 52.8976 8.31807L52.174 7.93243C54.1015 8.1833 54.078 5.5944 55.9903 5.68148C55.7588 6.02496 55.4188 7.7949 56.3912 8.0043C56.6137 7.57858 57.1072 6.55436 57.7561 5.55501C58.0886 5.05948 58.4265 4.55289 58.8501 4.16103C59.2821 3.78161 59.7887 3.4485 60.3036 3.36073L60.6111 3.8991C60.8682 3.84657 61.1315 3.78852 61.3976 3.74498L62.202 3.66342C61.8848 3.91914 61.4626 4.21079 61.0085 4.59159C60.5524 4.98207 60.0783 5.3843 59.6422 5.83559C59.1888 6.30209 58.8412 6.74302 58.4458 7.16391C58.0464 7.58411 57.6725 7.94902 57.3629 8.21164C58.0844 8.59728 57.564 8.78526 58.6442 8.74172C58.7776 8.97877 58.7057 9.13981 58.4535 9.26213C58.2192 9.3817 57.8971 9.44734 57.7382 9.46047L58.3671 9.53373L58.6732 9.57175L58.8723 9.62289C59.1356 9.69338 59.3982 9.72656 59.6442 9.83576C59.6712 9.34438 60.023 9.1246 60.4051 8.97532C60.7783 8.84124 61.1889 8.72513 61.2773 8.32152C60.4964 8.46942 59.7845 8.66293 59.1349 8.98845C59.1218 8.50536 59.4438 7.76518 60.0492 7.31319C60.3499 7.07891 60.7244 6.87088 61.1142 6.82112C61.5082 6.74855 61.9284 6.77412 62.2919 6.97178C62.4191 7.22887 62.1799 7.61175 61.9256 7.98149C61.6685 8.34986 61.4004 8.7044 61.361 8.86681C61.4916 8.73827 61.851 8.68228 62.1827 8.72167C62.5048 8.78111 62.8026 8.90206 62.8019 9.03545C62.5435 9.11009 62.296 9.18818 62.0604 9.26904C62.2988 9.59732 62.7093 9.40519 63.115 9.37202C63.3189 9.34714 63.529 9.33953 63.7004 9.42385C63.8607 9.52268 63.9872 9.70859 64.0224 10.0293C64.1365 10.1392 64.0998 10.5455 64.075 10.8482C64.0535 11.1516 64.0528 11.359 64.2788 11.1661C64.7481 10.068 66.8512 7.23372 67.8284 6.97248C67.8464 7.01463 67.9224 7.19155 68.0309 7.44243C68.1242 7.70229 68.2279 8.04646 68.3218 8.39478C68.5195 9.09004 68.5582 9.88137 68.4801 10.22C68.2894 10.7653 67.7199 10.8116 67.149 10.9243C66.5803 11.0238 66.0571 11.1551 65.8864 11.5649C66.111 11.4184 66.5796 11.4619 66.7364 11.5193C66.7261 11.9506 65.9589 11.8621 66.4441 12.4233C67.4144 12.021 67.0488 13.858 67.3667 12.3307C67.6618 12.6195 67.715 12.8345 67.7316 13.0702C67.7323 13.3148 67.7061 13.5774 67.8851 13.9921C68.1498 13.7585 68.742 13.7716 69.3226 14.0163C69.6149 14.1365 69.9128 14.31 70.1664 14.516C70.398 14.7254 70.5887 14.9652 70.6958 15.196C70.4339 15.1767 70.1353 15.4317 69.9985 15.545C70.042 16.4794 69.9045 17.1906 69.7718 17.9031C69.6446 18.6108 69.5285 19.3019 69.5244 20.1796C69.2804 20.3414 68.9853 21.1887 68.5513 20.8279C68.7296 21.0802 69.071 21.3124 69.0959 21.8535C68.2244 22.9012 68.9604 20.6461 67.9134 21.4451C68.4988 21.5135 68.7213 22.8452 69.0869 23.6165C69.9916 23.3795 69.2604 21.8348 68.8948 21.0622C70.1422 21.0587 71.4484 22.4029 72.0255 24.2378C72.3351 25.6961 71.219 24.8702 71.3966 25.1232C71.1789 27.862 73.575 27.457 72.6752 29.7315C71.8804 30.6341 71.0939 29.7723 70.5203 29.972C70.2196 28.784 71.0248 28.1481 70.993 27.343L70.617 28.3341C70.353 27.956 70.1526 27.1633 70.3827 26.7307C69.6688 27.4868 70.2452 31.3584 69.5866 33.4718C69.8527 33.8471 70.1284 34.4953 70.4484 34.1885L70.3371 33.5202C70.9778 32.9058 71.2238 34.7787 71.5231 33.9321C71.9737 34.8291 72.6814 35.8347 72.3192 37.0974L71.4125 37.3344C71.6772 37.3075 71.9523 36.5092 71.6765 36.154C72.078 36.6806 70.4498 38.0905 71.6364 38.6669L72.2646 37.7816C72.7201 38.6821 73.6821 39.7955 73.3967 40.9144C74.2917 40.405 73.2944 40.6566 74.3414 39.8611C73.0387 40.5502 74.396 36.9978 73.0269 38.1057C74.2426 37.2895 73.5425 36.6931 74.5792 35.6267C74.2806 35.6598 74.0076 36.0047 74.1548 35.0648C74.0678 35.0226 73.9565 34.9224 73.8915 34.8588C73.9012 34.8305 73.9053 34.8202 73.9136 34.7953C73.9012 34.8139 73.8908 34.8284 73.8784 34.8471C73.8335 34.8063 73.8245 34.8029 73.866 34.8665C73.7353 35.0904 73.5777 35.2715 73.4112 35.3454C72.7249 34.8789 72.7464 33.3847 72.3911 32.8795C72.5335 32.3218 72.7339 33.1124 73.0532 32.8083L72.5217 32.0536C73.1859 31.979 73.6247 30.5726 74.0138 31.8857L74.0436 30.7039C74.4161 30.0079 74.564 29.0507 74.2848 28.4605C74.4285 27.9028 73.5501 27.0521 74.0698 27.5379L73.6586 25.6843L73.8245 25.6671C73.9081 23.8384 72.7249 21.9019 73.9233 19.8106C73.7561 19.1948 73.5508 18.5583 73.7395 17.5285L74.3138 17.3274C74.2253 17.0143 74.3317 16.1463 74.3794 15.4123C74.3974 14.6735 74.3166 14.0004 73.991 13.8318C74.3186 13.4731 74.3995 12.9513 74.3532 12.341C74.3069 11.7315 74.0415 11.0618 73.7429 10.3956C73.076 9.07622 72.087 7.88405 71.5811 7.04712L70.9418 7.44451C70.1948 6.39678 69.1629 5.62481 67.7517 4.92609L67.4227 5.50801C67.0813 5.42853 66.7827 5.23156 66.4593 5.00557C66.1317 4.78579 65.8076 4.49276 65.4503 4.19144C65.0805 3.91499 64.6914 3.59846 64.2588 3.33031C63.8158 3.08911 63.3486 2.83963 62.8434 2.71592C63.0556 2.49476 63.5435 2.75047 63.8414 3.0207C62.9298 1.84511 61.4252 1.82231 60.128 1.99301C59.8025 2.05521 59.4784 2.11672 59.1591 2.17754C58.8764 2.22592 58.5972 2.2736 58.3242 2.3206C57.846 2.38625 57.3822 2.34341 56.9434 2.07111C56.5059 2.31231 56.1894 2.23007 55.8825 2.06351C55.9233 2.06213 55.9599 2.04968 55.991 2.02895C55.9461 2.02066 55.8798 2.01927 55.8113 2.02065C55.6178 1.90662 55.4195 1.77393 55.2039 1.6675C55.387 1.82853 55.5625 1.96122 55.7153 2.02273C55.378 2.03655 54.8666 2.11879 54.3648 2.28466L54.1513 1.57281C54.1105 1.58249 54.078 1.58111 54.0352 1.59286C53.5431 1.33024 53.6392 1.93012 53.9018 2.46574C53.6495 2.58253 53.418 2.72351 53.2383 2.89491C52.8389 1.74559 51.9224 3.28193 51.3765 2.05659C51.0385 2.6544 48.8553 2.50651 48.5878 3.76364C48.5705 3.59985 48.4227 3.52176 48.6936 3.51139C48.1345 3.36764 47.576 3.22526 47.0743 3.57911L46.8372 2.67376L45.616 3.89081C44.8745 3.3393 44.5669 3.01862 45.303 2.32198C43.5247 3.3932 43.8599 2.72559 42.3478 3.78713L42.4217 3.20176C41.8813 3.22388 41.0167 4.0083 40.6905 3.52452C39.481 2.41252 34.7068 3.37109 31.6031 2.33719C32.205 4.06013 30.16 1.56452 30.037 2.90044C29.8559 2.49338 29.4233 2.26324 29.9264 1.9087C28.3424 2.30885 27.5462 1.2625 26.4522 2.38902C26.2711 1.97988 26.7908 1.79121 26.6298 1.54932C26.5026 1.63778 26.1267 1.90386 25.9615 1.66058C25.8005 1.418 26.1937 1.31848 26.4446 1.14087C24.826 1.20929 24.6629 2.46573 24.5447 3.64407C23.7244 3.08635 23.3152 3.16513 22.7229 3.9378C22.4375 3.55216 21.9613 3.14924 22.9669 3.01033C22.4009 2.95366 19.5113 2.445 19.4533 3.38975C19.2764 3.14993 18.6627 3.31995 18.5134 3.42914C17.2438 3.37316 17.1325 3.28747 15.8858 3.37731L16.2313 3.53212C15.7683 4.67384 15.1428 3.77677 14.0142 4.03939L14.0315 3.91845C12.6673 3.68623 12.3881 3.93089 12.1427 4.06359C11.8808 4.21563 11.6679 4.32897 10.2498 4.38979L10.6575 4.98138C10.8441 5.74023 10.2885 5.73815 9.49576 5.77063C9.11081 5.80519 8.65882 5.83698 8.24622 5.9593C7.84884 6.10167 7.48323 6.32283 7.27452 6.66424L7.95526 6.65872C7.78456 7.09135 7.06235 7.04573 6.19777 7.01809C5.34493 6.98284 4.40018 7.02361 4.00901 7.31872C3.77334 7.39405 4.05324 6.93239 4.18317 6.65318C3.58052 6.96625 3.34347 7.22611 3.27021 7.39682C3.19971 7.57098 3.30892 7.6781 3.45751 7.78937C3.7616 8.01398 4.19216 8.25725 3.78648 9.03061C3.19074 9.04581 2.95852 7.94072 2.21143 8.98776C1.85689 9.15294 1.76497 10.1979 1.68757 11.276C1.61293 12.3749 1.58321 13.4952 0.972958 14.2333C1.41458 13.9299 1.84169 13.6894 2.00202 14.5229C1.99304 14.8277 1.85482 15.1656 1.70692 15.5374C1.57353 15.9099 1.40352 16.3156 1.27083 16.731C1.02963 17.4525 0.942544 18.0683 1.54865 18.5341C1.4436 18.662 1.342 18.7103 1.24594 18.7152C1.5597 19.4837 1.76773 21.2121 2.42775 21.6745C-0.0215553 22.3843 3.61853 26.4508 1.35998 26.4335L1.48023 28.7964L1.25009 28.7349C1.10081 30.2457 1.64195 30.7792 2.18379 31.3107C2.03036 31.6597 1.81957 31.4047 1.70139 31.3763C1.24595 33.5838 1.342 33.8028 2.46713 35.6536L1.73456 35.8458C2.16028 36.3475 0.585241 39.0366 1.44015 41.2012C1.35721 41.1798 1.21484 41.1348 1.11186 40.9634C1.97161 43.3989 -0.920688 46.7937 1.7477 47.6866L2.40494 49.2941C2.61227 47.2145 3.56255 49.6037 4.00624 48.7481C4.16313 49.5657 3.2011 50.8622 3.06426 49.8574L3.19764 49.7005C1.80644 49.3314 2.70488 52.2839 1.75737 52.2286C1.79192 54.2743 1.61638 56.2944 1.42494 58.2813C1.37656 58.7783 1.32888 59.2731 1.28119 59.7658C1.2577 60.3319 1.22245 60.9843 1.26046 61.5883C1.31368 62.202 1.35306 62.8206 1.50096 63.4191C1.568 63.719 1.62329 64.0231 1.71106 64.3168L2.00686 65.1862C2.27709 64.8794 2.55353 64.585 2.83481 64.3037C2.98893 64.8082 3.15618 65.3093 3.38287 65.7882C3.33794 66.2699 2.87973 66.6984 2.40079 65.5891C2.25359 65.9969 2.59707 66.415 2.991 66.6839C3.40982 66.9437 3.88116 67.0522 3.98759 67.0046C4.17695 67.5409 4.20321 67.8014 4.11337 67.9058C4.02352 68.0108 3.79684 67.9721 3.57568 67.8581C3.12853 67.6376 2.60329 67.1759 2.78505 67.5022C2.98686 67.7745 3.17346 68.0557 3.39047 68.3121C3.38079 68.2271 3.36973 68.1442 3.36696 68.0557C3.77818 68.2658 4.09817 68.2983 4.40157 68.4324C4.70289 68.5692 5.00145 68.7897 5.4562 69.3108C5.89437 70.1077 5.29033 70.1125 5.51702 70.391C5.46173 70.4442 5.52807 70.5555 5.9068 70.7891C6.40164 71.3074 6.97941 71.7373 7.54681 72.1789C7.45835 71.7919 7.40721 71.3786 7.35745 70.993C7.60072 71.0434 7.81358 71.1388 7.99465 71.2348C8.1854 71.3171 8.34366 71.4 8.46253 71.4394C8.70373 71.5196 8.77008 71.4132 8.65328 70.7753C8.76801 71.7594 10.4122 72.8341 12.1945 73.2743C12.4164 73.3296 12.6369 73.3842 12.8539 73.4381C13.075 73.4706 13.2927 73.5024 13.5049 73.5335C13.9292 73.5922 14.3287 73.6489 14.6881 73.6537C15.0468 73.6724 15.3605 73.6931 15.6128 73.7256C15.8415 73.7519 15.9846 73.7837 16.0765 73.8424C17.1222 73.2204 18.154 73.2308 19.4326 73.3061C19.1147 73.1285 18.9246 72.1685 20.0269 72.286C19.624 74.2668 22.0463 73.1458 22.9372 74.5708C22.141 73.6261 26.0721 74.3373 24.8225 72.9958C25.7431 73.1561 24.8785 73.7374 25.5765 74.2032C27.7667 73.4361 30.4026 74.7022 33.1097 74.443C33.1518 74.1831 32.6985 73.7858 33.279 73.3987L34.7082 74.6987C35.2431 74.5708 35.2003 73.1976 36.1775 74.1002C36.0393 73.8818 35.8333 73.5515 36.192 73.4685C41.4949 74.7353 47.028 72.4305 52.4138 74.8114C51.6847 74.3075 52.1706 74.2578 52.7276 74.2391C52.3655 74.1189 52.7359 73.5971 52.6647 73.2446L54.9191 74.2232C55.3303 73.2453 57.3366 74.1569 57.5716 73.2218L56.8577 73.3897C57.8073 72.286 55.5294 70.937 55.6676 69.5209C54.6047 70.7753 52.8644 67.6632 51.1201 69.4587C50.7351 69.1698 51.4483 69.0026 51.2424 68.6743C50.8001 69.2811 50.2665 69.4076 49.2769 69.1353L49.3888 68.9853C46.6092 69.1332 45.417 68.5347 42.2939 68.1366L42.5254 68.8367C41.8543 68.7427 41.7133 68.5236 41.3989 68.3481C40.629 69.4096 43.2836 68.4082 42.5821 69.5789C41.6919 68.1539 37.8493 69.5575 37.2481 67.9383C36.2155 67.93 37.5508 68.7489 36.5189 68.7393L36.2452 68.3011L35.984 68.8657C35.3074 68.7724 34.966 68.2244 34.9404 67.8539C35.1049 67.8982 35.4076 67.7503 35.5832 67.7185C34.7055 67.2022 33.1083 67.8947 32.807 67.7268L33.7987 67.997C30.9811 68.4068 27.5407 67.8318 24.8191 68.7226L25.0257 69.0537C22.9469 69.6646 23.3608 68.6909 21.0781 68.9735L21.161 68.8948C20.7042 69.2237 20.094 69.3903 19.4699 69.3523C20.0463 68.9652 18.3855 68.6003 19.1416 68.1718C16.8872 68.8277 18.0268 68.6874 16.5375 69.9148L16.194 69.3668C15.6729 69.8678 15.6563 70.1215 14.6169 70.2127C15.0599 69.9978 14.9023 69.7814 14.7835 69.5485C14.6584 69.3142 14.5768 69.0641 15.0115 68.7731C14.5692 68.4566 14.2161 68.2914 13.867 68.2721C13.5318 68.2036 13.196 68.2852 12.8967 68.2969C12.6002 68.308 12.3203 68.3184 12.1158 68.1967C11.9202 68.0557 11.7944 67.7966 11.8144 67.3218C11.0832 67.8173 11.3327 68.1629 11.7433 68.4303C12.1406 68.704 12.6832 68.76 12.3839 68.8388C12.5007 69.1463 12.2353 69.3495 11.8345 69.42C11.4357 69.4946 10.9381 69.3564 10.6589 69.1498C10.3652 68.9535 10.3513 68.3785 10.2898 67.7793C10.2421 67.1435 10.1544 66.518 9.62914 66.0335C9.73142 66.1344 9.81781 66.0577 9.91872 66.1573C9.88554 65.9955 9.79846 65.9002 9.6865 65.8255C9.58422 65.7412 9.45359 65.6818 9.32228 65.6126C9.19304 65.5428 9.05828 65.4675 8.96705 65.3473C8.8855 65.2194 8.83919 65.0542 8.86891 64.8317C8.38513 64.9589 8.25797 64.766 8.15568 64.6119C8.04372 64.4606 7.92209 64.359 7.38302 64.5988L7.87578 65.1469L8.41416 65.6396C8.05617 65.4136 7.46112 65.3438 6.96144 65.0577C6.69882 64.925 6.45624 64.7446 6.29867 64.4827C6.13211 64.2263 6.00633 63.9091 6.05056 63.4985C6.30351 63.5296 6.74512 63.804 7.0347 63.972C7.16117 63.4861 6.52121 63.3472 6.70711 62.8371C7.29871 62.7058 7.45628 63.0797 7.70438 63.511C7.92347 63.9512 8.24069 64.4654 8.81708 64.5421C8.91798 64.2505 8.56828 64.059 8.31603 63.8821C8.09141 63.6907 8.00503 63.54 8.65122 63.4274C7.81843 63.5504 7.6802 63.1869 7.6567 62.7763C7.58966 62.3651 7.65117 61.9311 6.92965 61.5724L7.6263 61.4991C7.49982 61.3796 7.12731 61.1211 7.09759 60.8336C7.42726 60.9691 7.75277 61.0866 8.07275 61.1861C7.85643 61.0444 7.7735 60.8709 7.76382 60.6954C7.77419 60.5164 7.86611 60.3333 7.96287 60.1605L8.10731 59.9061C8.15154 59.8287 8.20199 59.6691 8.23309 59.5544C8.29805 59.3042 8.3098 59.0533 8.20406 58.8011C8.20959 59.3304 8.15914 59.6242 8.07345 59.7817C7.98706 59.9386 7.87164 59.9172 7.72996 59.9179C7.45006 59.9006 7.0969 59.752 6.86192 60.0983C6.7237 59.8778 6.67186 59.5668 6.65597 59.3512C6.64146 59.1259 6.67118 58.9434 6.73269 58.7893C6.85571 58.4804 7.10381 58.2834 7.37058 58.0761C7.90481 57.6614 8.51437 57.2087 8.34574 55.747C8.44457 56.143 7.92416 57.2322 7.59934 56.6137C7.74378 56.0573 8.01262 55.3227 8.38099 54.9813C8.23516 53.0448 7.65947 55.2785 7.22821 54.4546C8.08312 53.7953 6.87989 53.5037 6.6069 52.655L7.32013 52.6488C7.77764 50.442 5.83424 52.0641 6.38644 50.0772L7.37542 50.9169L7.11971 49.8809L7.93107 50.0944C7.32911 48.9679 7.48531 48.6168 7.71268 47.5131C7.21025 47.7695 6.41823 47.3687 6.39612 46.3914C6.81977 45.7252 7.07409 46.7646 6.97181 45.3796C7.41827 45.6927 7.97807 46.0348 7.32082 46.6382C7.55304 46.6997 7.76866 46.9464 7.99811 47.01C8.48534 46.2919 8.10938 45.2062 8.10316 44.7044C8.07621 44.8973 8.03819 45.1281 7.9366 45.247L6.94831 43.2386C7.21646 42.9227 7.4314 43.1729 7.64219 43.4217C7.56478 43.0147 7.23719 42.7334 7.17568 42.1356C7.75553 42.2904 8.35334 42.2531 8.62633 43.0997L7.9829 41.1867C8.23516 41.0588 8.6754 40.2046 8.88895 40.4534C9.22967 39.3925 7.76451 37.8514 8.21373 36.445C8.10108 36.3717 7.99396 36.2252 7.91034 35.9259C8.04165 34.6045 8.7528 33.4331 7.95803 31.867L8.99746 30.9783C8.76179 29.7515 7.68781 32.1815 7.29595 30.1386C6.9649 28.6921 8.18263 29.5988 8.47152 29.0915C7.94766 28.3721 6.88127 27.1218 7.72719 25.7928C7.92278 26.2296 7.76866 26.5745 7.84606 26.985ZM8.16605 13.3798C8.18816 13.6348 8.49709 14.1739 8.04994 14.1676C7.37058 13.6707 7.78317 13.5899 8.16605 13.3798ZM25.5945 6.86604C25.3768 7.10171 25.0396 6.98491 24.6588 6.71538C24.9352 6.65732 25.2483 6.68359 25.5945 6.86604ZM73.6234 29.7909C73.6116 29.7785 73.6033 29.7695 73.5888 29.7598C73.8673 29.106 73.7574 29.3376 73.6234 29.7909ZM73.3137 31.149C73.4133 31.2851 73.5121 31.2761 73.6116 31.2181C73.4312 31.1234 73.4188 30.8186 73.4693 30.471C73.2833 30.5677 73.1541 30.7433 73.3137 31.149ZM5.83631 70.3267L5.72436 69.9708C6.40441 70.317 6.12865 70.3143 5.83631 70.3267Z" fill="#F9AB00"/>
<path d="M22.9869 7.84182C22.904 7.72157 22.8812 7.58818 22.8618 7.4541C22.7464 7.57436 22.7437 7.71327 22.9869 7.84182Z" fill="#F9AB00"/>
<path d="M8.22067 36.3958C8.21514 36.411 8.21721 36.4262 8.21237 36.4421C8.25522 36.4676 8.29807 36.4808 8.34092 36.4884L8.22067 36.3958Z" fill="#F9AB00"/>
<path d="M65.8283 12.1045C65.7979 11.8744 65.8228 11.7078 65.8857 11.562C65.7357 11.6574 65.6839 11.8184 65.8283 12.1045Z" fill="#F9AB00"/>
<path d="M74.5259 38.3462L74.3407 37.4761C74.3759 37.897 74.2198 38.0469 74.1071 38.2598C74.273 38.2404 74.5142 38.0739 74.5259 38.3462Z" fill="#F9AB00"/>
<path d="M70.1125 45.8965C70.1996 46.0237 70.1222 46.166 70.2107 46.2918L70.5424 46.2573C70.521 45.7154 70.2535 45.3367 70.1125 45.8965Z" fill="#F9AB00"/>
<path d="M72.1561 39.1514C71.5562 39.2205 71.7601 39.7658 71.8707 40.3753C71.8686 40.3387 71.8638 40.3042 71.8707 40.2675C72.7104 40.4472 72.4326 39.7976 72.1561 39.1514Z" fill="#F9AB00"/>
<path d="M71.8914 40.5164C71.9198 40.7043 71.935 40.8958 71.9067 41.0796C72.2425 41.1515 71.9765 40.8515 71.8914 40.5164Z" fill="#F9AB00"/>
<path d="M73.7118 32.8719C73.557 33.1608 74.4789 33.0529 74.2343 33.2167C74.998 33.5395 73.3103 31.2899 73.7118 32.8719Z" fill="#F9AB00"/>
<path d="M70.1796 39.6448L70.9205 39.4264L70.3233 39.085L70.1796 39.6448Z" fill="#F9AB00"/>
<path d="M70.7234 34.8331L70.5182 35.8069C70.6426 35.7924 70.7152 35.9161 70.7711 36.0681C70.7953 35.4675 70.9432 34.8103 70.7234 34.8331Z" fill="#F9AB00"/>
<path d="M70.7712 36.0674C70.7566 36.3798 70.7725 36.6769 70.8935 36.8511C70.8859 36.6825 70.8617 36.3183 70.7712 36.0674Z" fill="#F9AB00"/>
<path d="M69.9577 38.3135L70.1118 38.0253L70.1665 37.3384L69.9577 38.3135Z" fill="#F9AB00"/>
<path d="M70.8666 24.3662L70.6544 23.3033C70.4008 23.1948 70.2452 23.4843 70.3461 23.8803C70.5231 24.1347 70.6212 24.5293 70.8666 24.3662Z" fill="#F9AB00"/>
<path d="M68.8381 27.5799C68.9916 27.2924 69.1574 27.2731 69.4014 27.1113L68.4829 27.0789L68.8381 27.5799Z" fill="#F9AB00"/>
<path d="M68.6239 24.4811C68.3689 24.3753 67.8927 22.9385 67.95 24.2855C68.203 24.3933 68.4145 25.4576 68.6239 24.4811Z" fill="#F9AB00"/>
<path d="M66.9459 9.46105L67.1304 9.64696L68.2472 8.63794C67.807 8.90471 67.373 9.17908 66.9459 9.46105Z" fill="#F9AB00"/>
<path d="M54.2356 9.34145C55.4948 9.70221 54.5348 8.4126 55.6724 8.86251C55.9682 8.50659 54.7422 8.49553 55.0456 8.18799C54.286 8.56326 53.8866 8.35108 54.2356 9.34145Z" fill="#F9AB00"/>
<path d="M55.0456 8.18799C55.1672 8.12925 55.2964 8.05668 55.4333 7.95923C55.2135 8.05253 55.1099 8.1251 55.0456 8.18799Z" fill="#F9AB00"/>
<path d="M56.4271 74.9944L57.2371 75.3089L56.7139 74.803L56.4271 74.9944Z" fill="#F9AB00"/>
<path d="M57.9814 73.8782L58.1721 74.8374L58.6587 73.9694C58.4755 74.0116 58.1203 74.0945 57.9814 73.8782Z" fill="#F9AB00"/>
<path d="M10.5469 13.1325L10.3817 12.968C10.1447 12.8816 10.0376 12.9473 9.89313 13.1235C10.0998 13.1069 10.3341 13.1207 10.5469 13.1325Z" fill="#F9AB00"/>
<path d="M8.6001 20.5866L8.61945 20.3979L7.75211 20.7511L8.6001 20.5866Z" fill="#F9AB00"/>
<path d="M9.70654 29.804C9.74248 29.428 9.54897 28.9857 9.58629 28.6077C9.74318 29.428 8.62495 29.9056 9.70654 29.804Z" fill="#F9AB00"/>
<path d="M55.6075 24.0816C55.2488 23.9787 54.87 23.9241 54.4803 23.9241H23.2848C22.9925 23.9241 22.7057 23.9559 22.4299 24.0132C20.5771 24.4065 19.1859 26.0527 19.1859 28.0231V48.319C19.1859 50.5823 21.0214 52.4179 23.2848 52.4179H23.752H54.2992H54.4796C56.743 52.4179 58.5786 50.5823 58.5786 48.319V28.0231C58.5793 26.1495 57.3228 24.5716 55.6075 24.0816ZM54.257 25.0713L39.018 36.306L23.8591 25.0713H54.257ZM23.7527 51.27V31.3584L39.0173 41.8992L54.2992 31.3584V51.27H23.7527Z" fill="#F9AB00"/>
</svg>
