<svg width="327" height="206" viewBox="0 0 327 206" fill="none" xmlns="http://www.w3.org/2000/svg">
<path d="M234.196 170.706C227.743 168.776 215.613 167.641 210.511 163.161C198.738 152.809 214.501 132.091 219.544 121.74C224.965 110.633 230.543 99.0483 232.428 86.7083C235.328 67.9583 228.16 49.4276 211.504 39.6747C195.483 30.2804 175.649 30.5975 159.091 38.3411C148.769 43.1568 139.795 50.5241 132.249 59.0411C123.494 68.954 118.055 83.6026 108.167 92.1226C87.2016 110.155 52.0625 85.0754 27.6235 85.354C10.7279 85.5525 -8.26932 91.1269 -17.7014 106.253C-27.9257 122.635 -22.5047 142.12 -10.3739 155.775C-2.84829 164.275 6.66066 170.027 17.0032 174.445C29.6483 179.881 49.6624 181.75 60.4217 190.309C65.9402 194.707 65.423 189.891 64.8495 199.404C64.4121 206.27 63.1617 206.73 58.3969 210.79C52.9758 215.386 47.1794 219.547 41.3623 223.648C32.4297 229.958 23.2962 236.009 14.7981 242.896C-1.68075 256.232 -15.656 273.408 -17.9408 295.226C-22.8653 341.862 21.0498 379.042 65.7983 364.992C88.6707 357.806 102.684 340.469 110.328 318.356C115.193 304.323 117.892 288.756 126.946 276.796C146.262 264.574 174.494 268.338 194.744 280.26C216.127 292.84 230.578 316.604 254.364 325.044C296.889 340.131 332.824 294.651 326.212 255.02C322.2 231.016 307.33 210.393 288.114 196.082C277.771 188.38 266.373 182.586 254.461 177.771C247.814 175.083 241.045 172.774 234.196 170.706Z" fill="#81C995"/>
<path d="M311.412 199.742C303.457 178.944 287.185 162.375 267.857 151.816C244.701 139.168 182.07 138.83 202.016 99.7743C207.425 89.1828 214.965 81.1281 218.246 69.3334C221.235 58.5848 221.569 47.0449 219.18 36.1541C214.658 15.5341 199.474 2.42063 178.54 0.325445C156.72 -1.85865 133.877 7.11481 118.259 22.3027C109.308 31.0065 104.139 43.0205 94.9843 51.3953C79.9627 65.137 58.8816 61.9068 40.6854 58.2617C19.8881 54.0951 -4.7519 48.417 -22.7796 63.4182C-36.3647 74.721 -41.8596 94.5616 -35.1262 111.053C-26.903 131.184 -5.49083 141.293 14.1153 146.977C26.7575 150.64 51.628 155.888 38.7612 177.456C35.3945 183.099 26.8432 188.658 21.9808 193.05C10.0215 203.855 -3.40993 213.081 -15.0767 224.155C-19.0937 227.966 -22.4308 232.071 -25.1886 236.356C-27.3523 238.904 -29.1642 241.806 -30.5624 244.891C-30.6924 245.125 -30.852 245.353 -30.9703 245.59C-31.7181 247.078 -32.4304 248.77 -32.6758 250.444C-34.0975 249.982 -35.7115 250.403 -36.0366 252.296C-42.7907 291.764 -15.8452 333.828 25.4125 337.826C45.8197 339.802 66.7412 332.497 81.8959 318.744C99.3974 302.86 101.957 280.127 113.506 260.645C136.748 221.444 176.518 252.67 200.298 273.426C217.306 288.273 236.522 301.073 260.125 297.739C306.416 291.192 327.107 240.789 311.412 199.742ZM280.81 282.989C228.222 313.813 200.656 246.438 155.562 235.206C138.509 230.959 121.77 235.811 110.887 249.872C97.2604 267.481 95.815 291.696 80.7756 308.484C62.5765 328.805 31.0937 336.243 6.15519 325.006C-17.0453 314.551 -31.0294 290.801 -31.3634 265.997C-28.9603 240.048 -7.95308 225.382 11.5112 209.628C20.7364 202.16 29.5833 194.2 38.3089 186.151C43.1772 181.662 48.3411 177.193 49.1835 170.225C50.9245 155.793 36.7807 147.407 25.1022 143.714C2.18254 136.465 -30.8106 128.043 -32.5723 98.2985C-33.3438 85.3066 -26.6636 70.987 -15.1151 64.5266C-0.717156 56.4718 16.2435 59.1804 31.5843 62.3958C49.284 66.1031 69.0764 71.2893 86.6164 63.9724C104.529 56.5014 110.618 37.2269 124.448 25.0469C145.402 6.59621 189.793 -5.77933 207.726 23.7163C215.137 35.9081 215.651 51.668 212.624 65.2289C209.727 78.2001 201.587 87.3306 195.253 98.5148C171.31 140.786 237.554 144.31 260.405 155.358C283.231 166.391 301.616 186.086 308.021 210.974C315.047 238.255 305.665 268.421 280.81 282.989Z" fill="#626062"/>
</svg>
