<svg width="301" height="205" viewBox="0 0 301 205" fill="none" xmlns="http://www.w3.org/2000/svg">
<path d="M190.774 284.595C211.544 313.528 249.575 326.369 284.1 324.885C323.979 323.168 363.453 303.025 379.23 264.784C394.198 228.536 378.639 190.412 348.761 167.282C332.682 154.827 314.307 148.882 294.881 143.789C274.185 138.377 250.138 131.725 238.519 111.912C226.655 91.6803 238.1 67.3943 232.384 45.7638C228.4 30.7269 217.258 19.1554 203.82 11.8829C170.97 -5.93843 129.128 -1.52338 95.2247 10.7721C58.8671 23.9335 19.9545 50.8148 4.9593 87.8281C-2.02684 105.044 -2.24386 125.995 8.26436 141.898C18.2525 157.006 35.8027 163.097 53.181 164.22C76.8084 165.75 100.09 157.799 123.732 160.54C135.725 161.926 147.173 166.427 157.131 173.166C157.348 173.396 157.621 173.613 157.969 173.757C157.997 173.772 158.027 173.787 158.055 173.8C163.092 177.306 167.725 181.376 171.838 185.922C179.069 197.957 178.895 214.782 178.246 228.491C177.294 248.736 178.607 267.653 190.774 284.595ZM74.0234 111.39C62.7072 98.5768 67.2823 79.6146 77.9774 68.041C88.1676 57.0152 103.221 50.5226 117.554 46.9734C146.277 39.8749 182.591 48.5031 192.261 80.0336C196.778 94.7096 189.693 108.808 190.673 123.555C191.423 134.896 197.803 144.089 206.565 150.943C216.755 158.894 228.995 163.7 240.713 168.908C255.998 175.719 271.296 182.473 286.569 189.342C309.042 199.444 342.585 216.571 339.654 246.095C338.05 262.185 324.686 274.998 310.325 280.814C301.781 284.277 292.73 285.691 283.58 286.009C263.287 283.224 244.349 270.093 234.954 251.853C227.708 237.798 228.617 222.185 226.625 206.946C224.979 194.464 220.548 182.819 213.203 172.573C197.543 150.698 172.977 137.971 147.271 131.766C133.935 128.532 120.382 127.568 106.887 125.387C95.2698 123.512 82.1635 120.596 74.0234 111.39Z" fill="#FDE293"/>
<path d="M317.146 180.701C301.841 171.482 285.37 165.709 268.565 159.938C244.97 151.837 224.598 138.497 229.274 110.578C232.453 91.603 233.826 74.3316 225.81 56.1709C219.761 42.4703 209.897 32.7679 196.14 26.8726C144.682 4.82529 43.3175 19.5464 35.8801 88.4018C32.3537 121.045 55.7963 141.262 85.9628 146.506C105.312 149.869 125.739 148.343 144.3 155.573C161.697 162.349 174.844 176.327 184.486 191.918C203.474 222.623 205.825 266.454 236.454 288.862C256.737 303.701 281.156 306.277 304.459 301.274C332.044 296.929 365.718 286.965 367.974 253.984C370.155 222.071 342.105 195.736 317.146 180.701ZM351.629 275.621C338.136 290.22 317.199 293.582 298.549 296.635C297.765 296.764 297.245 297.129 296.929 297.604C275.975 299.563 255.048 295.662 237.722 281.458C214.193 262.172 210.501 228.117 197.533 202.033C186.91 180.669 171.561 160.295 149.113 150.537C119.699 137.749 80.2768 149.177 55.2075 126.27C27.9141 101.333 46.7815 60.7234 72.5492 43.8453C100.352 25.6351 138.16 20.236 170.491 26.3161C188.423 29.6892 206.494 36.0185 216.381 52.381C227.201 70.2818 226.225 89.1408 222.797 108.797C218.128 135.577 232.953 153.085 257.137 162.886C291.64 176.868 328.597 186.691 350.577 219.742C361.833 236.666 366.715 259.299 351.629 275.621Z" fill="#5F6468"/>
</svg>
