<svg width="76" height="75" viewBox="0 0 76 75" fill="none" xmlns="http://www.w3.org/2000/svg">
<path d="M47.4898 30.4478C47.4898 31.4679 46.6626 32.2952 45.6425 32.2952C44.6224 32.2952 43.7951 31.4679 43.7951 30.4478C43.7951 29.4277 44.6224 28.6005 45.6425 28.6005C46.6626 28.6005 47.4898 29.4277 47.4898 30.4478ZM45.1898 38.7294C45.1898 43.0081 41.7087 46.4892 37.4307 46.4892C33.152 46.4892 29.6709 43.0081 29.6709 38.7294C29.6709 34.4507 33.152 30.9703 37.4307 30.9703C41.7087 30.9696 45.1898 34.4507 45.1898 38.7294ZM42.4005 38.7294C42.4005 35.9892 40.1703 33.7589 37.43 33.7589C34.6891 33.7589 32.4588 35.9892 32.4588 38.7294C32.4588 41.4704 34.6891 43.6999 37.43 43.6999C40.171 43.6999 42.4005 41.4704 42.4005 38.7294ZM53.1355 32.4956C53.1355 27.2687 48.8983 23.0315 43.6707 23.0315H30.7559C25.5291 23.0315 21.2912 27.2687 21.2912 32.4956V45.4118C21.2912 50.6387 25.5291 54.8759 30.7559 54.8759H43.6707C48.8976 54.8759 53.1355 50.6387 53.1355 45.4118V32.4956ZM50.029 45.2687C50.029 48.8584 47.1187 51.7686 43.5284 51.7686H30.8983C27.308 51.7686 24.3977 48.8584 24.3977 45.2687V32.638C24.3977 29.0483 27.308 26.138 30.8983 26.138H43.5284C47.118 26.138 50.029 29.0483 50.029 32.638V45.2687Z" fill="#EA4335"/>
<path d="M58.446 74.2664C57.9754 74.2325 58.1454 74.8442 58.0728 74.9582C58.8939 74.7882 58.4156 74.1061 58.446 74.2664Z" fill="#EA4335"/>
<path d="M65.1395 70.9009L65.1609 71.1836C65.3551 70.8159 65.5527 70.4814 65.7034 70.1047C65.5396 70.3909 65.3344 70.6307 65.1395 70.9009Z" fill="#EA4335"/>
<path d="M69.7934 66.2786C69.4866 66.2758 69.2689 66.3996 69.0975 66.6027C68.9081 66.7935 68.7602 67.063 68.6144 67.3637C68.4775 67.6705 68.3068 67.9788 68.1126 68.2593C67.9163 68.5379 67.7069 68.7977 67.4187 68.9187L67.1133 68.8724C67.1789 69.1951 67.237 69.5255 67.2854 69.862C67.5349 69.5863 67.7961 69.285 68.0276 68.9532C68.2439 68.6146 68.4651 68.2704 68.678 67.938C69.0588 67.2462 69.423 66.6463 69.7934 66.2786Z" fill="#EA4335"/>
<path d="M73.4169 63.7015C73.1875 63.7651 73.1598 63.5266 73.1564 63.5031C73.1446 63.4776 73.2068 63.6704 72.9884 64.5709C73.0624 64.499 73.0962 64.4824 73.146 64.4423C73.1902 64.2806 73.2918 64.0726 73.4169 63.7015Z" fill="#EA4335"/>
<path d="M73.146 64.4423C72.8944 65.2226 73.6546 64.0518 73.146 64.4423V64.4423Z" fill="#EA4335"/>
<path d="M73.7369 60.7573C73.8122 61.118 73.88 61.4871 73.9449 61.8637C74.2214 61.684 74.4156 60.7158 74.5386 61.0973C74.4467 59.9411 74.1619 60.1843 73.7369 60.7573Z" fill="#EA4335"/>
<path d="M73.023 59.7324L73.1508 60.2618C73.2573 60.1789 73.3008 60.0351 73.023 59.7324Z" fill="#EA4335"/>
<path d="M73.3526 61.4152C73.3036 61.0233 73.251 60.6404 73.1508 60.2617C72.9698 60.3986 72.6367 60.3737 73.2331 60.7835C72.9345 60.6619 73.2054 60.9038 73.3526 61.4152Z" fill="#EA4335"/>
<path d="M73.0949 62.0227C72.7659 62.5528 72.4279 63.1921 72.3194 62.1561C72.166 63.076 72.2676 63.5335 72.4639 63.5203C72.6505 63.5072 72.9691 63.0027 73.0949 62.0227Z" fill="#EA4335"/>
<path d="M69.0228 65.4451L68.4333 65.821C68.4437 66.0401 68.4409 66.2571 68.4229 66.4693C68.4575 66.1694 69.3186 65.5757 69.0228 65.4451Z" fill="#EA4335"/>
<path d="M74.3637 55.5237C74.1391 55.4753 73.7652 55.7835 73.4777 55.8409L73.7355 56.4118C73.8896 56.1187 74.0313 55.5624 74.3637 55.5237Z" fill="#EA4335"/>
<path d="M73.4784 55.8408L73.0928 54.9873C73.0472 55.7496 73.2303 55.8892 73.4784 55.8408Z" fill="#EA4335"/>
<path d="M71.8598 59.5237C72.1038 60.089 72.3554 60.6875 72.5143 61.3123C72.3754 60.5742 72.0997 59.8665 71.864 59.2009L71.8598 59.5237Z" fill="#EA4335"/>
<path d="M74.3921 52.2635L74.9118 52.7473L74.1267 51.8855L74.3921 52.2635Z" fill="#EA4335"/>
<path d="M74.3009 50.1011C74.7307 50.4591 75.0293 49.6104 75.294 49.9885C75.2173 49.401 74.8475 48.8993 74.5151 48.448C74.701 48.9283 74.6533 49.4397 74.3009 50.1011Z" fill="#EA4335"/>
<path d="M74.0313 47.6897C74.1343 47.9295 74.3195 48.1776 74.5158 48.4478C74.4163 48.1935 74.2732 47.9426 74.0313 47.6897Z" fill="#EA4335"/>
<path d="M73.2041 53.5331C73.3395 53.4667 73.6948 53.3396 73.8454 52.8613L73.2137 53.1972C73.2103 53.2995 73.2075 53.4156 73.2041 53.5331Z" fill="#EA4335"/>
<path d="M73.193 53.2089L73.213 53.1971C73.231 52.8329 73.2435 52.58 73.2483 52.4722C73.2414 52.5648 73.2248 52.7866 73.193 53.2089Z" fill="#EA4335"/>
<path d="M73.2008 53.6171C73.2021 53.5864 73.2028 53.5638 73.2035 53.5337C73.1419 53.5652 73.1214 53.5843 73.2008 53.6171Z" fill="#EA4335"/>
<path d="M72.4473 57.2276C72.0941 56.7259 71.7154 55.6802 71.177 56.692C71.6097 57.0521 71.9165 56.4729 72.4473 57.2276Z" fill="#EA4335"/>
<path d="M72.4113 54.0347L72.2669 54.9414C72.4334 54.9234 72.6767 54.7603 72.8523 55.0084L72.4113 54.0347Z" fill="#EA4335"/>
<path d="M72.2109 53.5911L72.4113 54.0348L72.4646 53.6989L72.2109 53.5911Z" fill="#EA4335"/>
<path d="M73.4397 49.2428C73.1647 48.851 73.1419 48.4225 73.0976 47.9387C72.9732 48.4571 72.9062 48.9934 72.9076 49.5027C73.1066 49.5753 73.4625 49.7992 73.4397 49.2428Z" fill="#EA4335"/>
<path d="M73.2634 51.1692C73.249 51.1425 73.2422 51.1083 73.2278 51.083C73.1751 51.1364 73.158 51.1788 73.2634 51.1692Z" fill="#EA4335"/>
<path d="M73.1024 43.1748L72.9877 43.2515C73.0244 43.2577 73.0589 43.2633 73.0969 43.2695L73.1024 43.1748Z" fill="#EA4335"/>
<path d="M72.7901 49.5905C72.6684 49.9803 72.8225 50.2132 73.0174 50.4357C72.9539 50.1441 72.9131 49.8351 72.9075 49.5041C72.8184 49.4709 72.7597 49.4647 72.7901 49.5905Z" fill="#EA4335"/>
<path d="M73.7362 46.3606C73.6042 46.5638 73.4923 46.7939 73.3893 47.0358C73.589 46.8375 73.9007 46.4325 73.7362 46.3606Z" fill="#EA4335"/>
<path d="M73.4031 50.9517C73.4128 50.971 73.4245 50.989 73.4314 51.0097C73.5669 50.8818 73.5005 50.8984 73.4031 50.9517Z" fill="#EA4335"/>
<path d="M73.4031 50.9518C73.3119 50.7513 73.1564 50.5931 73.0174 50.4348C73.0672 50.6719 73.1349 50.8923 73.2282 51.0831C73.2732 51.0347 73.3409 50.9863 73.4031 50.9518Z" fill="#EA4335"/>
<path d="M69.047 41.7309C69.6324 41.7993 70.1735 42.8249 69.546 43.7096C69.9848 44.5804 71.911 44.0109 72.9877 43.2507C72.732 43.2237 72.4963 43.2237 72.1508 42.3273C71.8308 42.6411 71.403 44.3157 70.8729 43.5596C70.5716 42.373 71.0803 42.5872 71.3899 42.0101C70.6601 42.5008 70.3283 40.5 69.2557 40.7585L69.6331 41.7993C69.4658 41.8194 69.199 41.442 69.047 41.7309Z" fill="#EA4335"/>
<path d="M72.9276 44.9584L73.0002 45.3274C73.1018 44.9072 73.3361 44.6059 73.7943 44.0523C73.5088 43.4386 73.2911 43.3114 73.0962 43.2693L73.0147 45.0848L72.9276 44.9584Z" fill="#EA4335"/>
<path d="M73.0022 46.9821C72.365 46.6946 72.0941 45.8086 71.4051 46.3511C71.4493 47.4334 71.9372 47.1092 72.2137 47.7554C72.0554 46.0097 72.5689 48.2572 72.9297 46.9952C73.0382 47.3387 73.0714 47.6469 73.0976 47.9386C73.175 47.6241 73.2704 47.3207 73.3886 47.0353C73.3734 47.0512 73.3623 47.0622 73.3492 47.0754L73.3513 47.0837L73.3409 47.0816C73.2614 47.1569 73.213 47.1818 73.2593 47.0968C73.2517 47.0913 73.2483 47.0698 73.2462 47.0602C73.1577 47.0484 73.0803 47.0159 73.0057 46.9814C73.137 46.4755 73.1709 46.9019 73.2462 47.0602C73.2773 47.0657 73.3077 47.0795 73.3409 47.0816C73.3443 47.0802 73.3492 47.0754 73.3492 47.0754L73.0002 45.3262C72.9117 45.6973 72.9297 46.1603 73.0022 46.9821Z" fill="#EA4335"/>
<path d="M69.8072 55.759C69.8632 55.7044 69.9088 55.7072 69.9551 55.703C69.877 55.5897 69.8238 55.5468 69.8072 55.759Z" fill="#EA4335"/>
<path d="M70.1915 55.0398C70.2806 55.1669 70.535 55.2727 70.4693 55.686C70.2779 56.0447 70.1638 55.6846 69.9544 55.7032C70.1231 55.952 70.4113 56.5754 70.7209 55.7938L70.6345 55.6701C70.8536 54.9658 71.6484 54.0612 71.7354 54.1842C71.1625 54.3901 70.7541 54.5712 70.1915 55.0398Z" fill="#EA4335"/>
<path d="M71.4348 50.9608L71.1224 49.5046L70.5709 50.2462L70.902 50.2089C70.772 51.0368 71.1798 50.8578 71.4348 50.9608Z" fill="#EA4335"/>
<path d="M73.419 43.0081L74.0914 43.2009L73.1419 42.3599L73.419 43.0081Z" fill="#EA4335"/>
<path d="M73.3381 41.1152L73.9235 41.185L73.5703 40.6853L73.3381 41.1152Z" fill="#EA4335"/>
<path d="M7.07566 18.875L7.24153 19.3028C7.19039 19.1003 7.13441 18.9704 7.07566 18.875Z" fill="#EA4335"/>
<path d="M7.13303 15.8985L6.84829 15.8342C7.00172 15.9434 7.11575 15.9856 7.13303 15.8985Z" fill="#EA4335"/>
<path d="M54.6166 0.975429C53.9932 0.42876 53.2966 -0.418546 53.3719 0.240084L53.5633 0.880746C53.9987 0.766022 54.3332 0.837207 54.6166 0.975429Z" fill="#EA4335"/>
<path d="M22.7819 4.80431C22.8406 4.86721 22.9028 4.93355 22.9643 4.99921C23.1157 4.77874 23.2567 4.57279 23.3852 4.3855C23.2028 4.51266 22.9975 4.65503 22.7819 4.80431Z" fill="#EA4335"/>
<path d="M22.3416 7.45865L21.5199 7.04468C21.7044 7.18912 21.9691 7.32734 22.3416 7.45865Z" fill="#EA4335"/>
<path d="M7.75572 35.7971L8.40882 36.2968C8.40537 35.5152 8.07571 35.8586 7.75572 35.7971Z" fill="#EA4335"/>
<path d="M73.1025 21.7303C73.3526 21.1926 73.4584 20.7641 73.4895 20.3882C73.1211 21.0364 72.5689 21.5596 73.1025 21.7303Z" fill="#EA4335"/>
<path d="M0.269592 17.656C0.385699 17.918 0.516319 18.0299 0.659379 18.0223C0.549492 17.7528 0.427166 17.6 0.269592 17.656Z" fill="#EA4335"/>
<path d="M73.4867 18.8345C73.4224 18.9292 73.3899 19.0225 73.336 19.1185C73.4432 19.5118 73.5302 19.9078 73.4888 20.3881C73.7631 19.9098 73.9325 19.3618 73.4867 18.8345Z" fill="#EA4335"/>
<path d="M34.9959 67.0236C35.0401 67.0527 35.094 67.0665 35.1348 67.1004C35.148 67.014 35.0864 67.0091 34.9959 67.0236Z" fill="#EA4335"/>
<path d="M52.8743 73.4951C52.6981 73.5345 52.4113 73.5359 52.1403 73.5442C52.2723 73.5884 52.4935 73.5843 52.8743 73.4951Z" fill="#EA4335"/>
<path d="M73.618 33.4998C73.6602 33.9013 73.6892 33.5633 73.618 33.4998V33.4998Z" fill="#EA4335"/>
<path d="M71.0816 35.4521C71.0098 35.3671 70.9178 35.3021 70.7699 35.2917C70.9248 35.3249 71.0229 35.3802 71.0816 35.4521Z" fill="#EA4335"/>
<path d="M69.4118 14.8506C69.4112 14.839 69.4098 14.8301 69.4091 14.8164C69.3031 14.9464 69.3229 14.9231 69.4118 14.8506Z" fill="#EA4335"/>
<path d="M73.3264 34.1038C73.4052 33.9532 73.4708 33.7797 73.5171 33.5903C73.4674 33.6733 73.4052 33.8295 73.3264 34.1038Z" fill="#EA4335"/>
<path d="M73.6298 34.0222C73.6056 34.1611 73.5862 34.2696 73.5676 34.3733C73.6747 34.4238 73.7417 34.3788 73.6298 34.0222Z" fill="#EA4335"/>
<path d="M73.5835 32.9407C73.5938 33.1701 73.5634 33.3844 73.5171 33.5903C73.5607 33.5115 73.5966 33.4784 73.618 33.4998C73.6111 33.3823 73.6007 33.2157 73.5835 32.9407Z" fill="#EA4335"/>
<path d="M6.44744 63.2771C6.43846 63.3054 6.43777 63.3345 6.42395 63.3683C6.80682 63.5515 6.70592 63.4381 6.44744 63.2771Z" fill="#EA4335"/>
<path d="M44.1691 7.63575C44.1877 7.62952 44.1974 7.61223 44.2147 7.60462C44.196 7.5977 44.1725 7.58871 44.1552 7.58179L44.1691 7.63575Z" fill="#EA4335"/>
<path d="M42.7274 8.1133C43.3411 7.31507 43.6908 7.41321 44.1559 7.58184L43.679 5.73242L42.7274 8.1133Z" fill="#EA4335"/>
<path d="M7.26019 26.2944L7.83589 25.2819C8.78409 26.5038 8.4572 27.3884 9.26787 26.4375C7.2595 26.2944 9.06192 22.5023 7.05631 22.3613L7.47858 21.6937C7.45923 21.8851 7.57741 21.9155 7.55737 22.1042C8.51871 20.8063 6.10603 21.1401 6.39146 19.4676C6.54558 18.885 6.83723 18.4779 7.07497 18.8753L6.57875 17.5767C6.61746 17.1987 6.96647 17.2913 6.92776 17.6673L6.8476 16.6769L6.80751 16.1814L6.78954 15.8213L6.84829 15.8344C6.53591 15.6257 6.07977 15.088 5.93326 14.804C6.27812 14.4536 6.11363 15.0334 6.37695 14.965C6.26499 14.6685 6.12262 14.3492 6.05558 14.0306C6.35345 13.918 6.57806 14.0762 6.70454 14.305C6.81995 14.5344 6.91187 14.8531 6.82272 15.1157C7.88426 14.8924 7.73706 14.7632 7.59054 14.4646C7.51106 14.3188 7.41293 14.1357 7.42675 13.9111C7.43711 13.6885 7.62648 13.4397 8.00866 13.2013L8.01627 13.9242C8.64034 13.9 8.87117 13.7694 9.07851 13.5911C9.3197 13.4342 9.46691 13.1889 9.95484 13.1204C9.85601 13.1032 9.6701 13.1038 9.43443 13.1114C9.19738 13.1294 8.9237 13.1495 8.68941 13.1674C8.16209 13.1875 7.63892 13.164 7.60229 12.6754C7.84142 12.5157 8.02387 12.2911 7.9361 11.6864C8.24157 11.8744 8.40674 11.8488 8.53529 11.7251C8.67697 11.609 8.77857 11.3857 8.92163 11.1521L9.63554 11.7769C9.771 11.2137 9.39296 10.9144 9.328 10.3574C9.90024 9.96689 10.458 10.441 10.9493 10.8605C11.3474 10.658 11.0599 10.5032 10.7469 10.3228C10.4331 10.1369 10.0848 9.9351 10.5374 9.47689C11.4829 9.31379 11.7586 8.71667 12.6854 7.83273C13.3993 7.98823 12.7303 8.4181 13.0261 8.62267C13.1319 8.33932 13.2514 8.03869 13.3917 7.75188C13.5369 7.7498 13.5327 7.98409 13.5327 8.10227C13.9612 7.74773 13.3897 7.16374 14.1893 6.79399C14.2218 6.53206 14.3634 6.49128 14.5625 6.55694C14.662 6.59011 14.7747 6.64886 14.8949 6.72073C15.0062 6.78984 15.1444 6.87692 15.3193 6.97092C15.9758 7.33375 16.7575 7.6793 17.3974 7.08771C17.7133 7.35586 17.2454 7.66687 17.3414 8.03316C19.0989 7.25704 18.8481 7.46921 20.2911 6.42494L21.5206 7.04556C20.6173 6.33578 21.7715 5.49539 22.7826 4.80497C22.4619 4.46218 22.1882 4.16224 22.0044 4.01918L23.6174 3.5119C23.8123 3.6674 23.6499 3.99153 23.3852 4.38685C23.4951 4.30875 23.5995 4.23135 23.681 4.16016C24.2581 4.50917 23.9588 5.05515 23.5456 5.58386C23.3493 5.39726 23.1537 5.19821 22.9643 5.00056C22.5663 5.57556 22.1931 6.21139 22.276 6.76497C22.381 6.65577 22.5828 6.56178 22.8047 6.50925C22.7003 6.66544 22.634 6.80436 22.6824 6.89904C22.737 6.99856 22.9056 6.78915 23.1689 6.54796L23.5359 7.6019L23.625 7.18309L25.7357 7.8431C27.2458 6.78224 28.5589 5.22033 30.9557 4.78493C30.3613 5.55759 30.8278 6.04759 30.7953 6.96331C30.1415 5.99368 28.939 7.37522 27.6971 7.17825C28.3453 7.27984 28.203 7.71663 28.0378 7.86936L30.2528 6.9875C30.203 7.73667 30.7235 7.54938 31.3019 7.859C30.8644 6.37863 32.953 6.87278 33.8542 6.41872C33.9102 6.91632 33.6938 7.4236 32.5943 7.30403C33.8079 8.4188 34.1624 5.56519 35.3532 6.51202C35.0844 6.52446 34.9399 6.44774 34.8335 6.70069C35.461 6.25907 36.9939 6.60878 36.6331 7.0421L36.365 7.05247C38.1474 7.22801 41.7916 7.06353 42.0577 5.8057C42.0757 5.96811 41.8241 7.32131 41.7163 7.57564L44.8968 3.34534C44.6169 4.42486 45.6922 6.99718 44.214 7.60674C44.6383 7.76016 45.1635 7.93986 46.0585 7.55906C45.769 7.40563 45.337 5.99783 45.7323 5.899C46.8181 7.10154 46.4863 6.54173 47.825 7.56734C47.391 7.33582 47.8734 5.6426 48.559 5.6965C48.4519 5.95014 48.6163 7.36831 48.3655 7.54454L50.0725 5.88242C49.6461 6.18167 49.9972 7.29159 50.3794 7.76086C50.2024 7.43535 51.8556 7.79127 52.3103 7.62678L51.5867 7.24114C53.5143 7.49201 53.4908 4.90311 55.4031 4.99019C55.1715 5.33367 54.8315 7.10361 55.8039 7.31302C56.0264 6.88729 56.5199 5.86307 57.1689 4.86372C57.5013 4.36819 57.8392 3.8616 58.2629 3.46974C58.6948 3.09032 59.2014 2.7572 59.7163 2.66943L60.0238 3.20781C60.2809 3.15528 60.5449 3.09723 60.8103 3.05369L61.6148 2.97214C61.2976 3.22785 60.8753 3.5195 60.4212 3.9003C59.9651 4.29078 59.491 4.69301 59.0549 5.14431C58.6015 5.61081 58.2539 6.05174 57.8586 6.47262C57.4591 6.89282 57.0852 7.25773 56.7756 7.52035C57.4971 7.90599 56.9767 8.09398 58.0569 8.04974C58.1903 8.2868 58.1184 8.44782 57.8662 8.57015C57.6312 8.68971 57.3092 8.75537 57.1509 8.7685L57.7798 8.84176L58.086 8.87977L58.2857 8.92884C58.549 9.00002 58.8116 9.03319 59.0577 9.1417C59.0853 8.65032 59.4364 8.43055 59.8186 8.28127C60.1918 8.14719 60.6023 8.03108 60.6908 7.62748C59.9098 7.77537 59.198 7.96888 58.5476 8.2944C58.5345 7.81131 58.8566 7.07113 59.4627 6.61845C59.7633 6.38416 60.1379 6.17614 60.5277 6.12638C60.9216 6.05381 61.3418 6.07938 61.7053 6.27704C61.8325 6.53413 61.5934 6.9177 61.339 7.28675C61.0819 7.65512 60.8138 8.00966 60.7744 8.17207C60.905 8.04352 61.2644 7.98754 61.5961 8.02693C61.9182 8.08637 62.2161 8.20732 62.2154 8.3407C61.9569 8.41534 61.7095 8.49344 61.4738 8.5743C61.7122 8.90257 62.1228 8.71114 62.5284 8.67727C62.7323 8.65239 62.9424 8.64479 63.1138 8.7291C63.2741 8.82793 63.4006 9.01384 63.4359 9.33452C63.5499 9.4444 63.5133 9.85078 63.4884 10.1535C63.467 10.4569 63.4663 10.6642 63.6916 10.4714C64.1608 9.37322 66.2639 6.53897 67.2411 6.27773C67.2591 6.31989 67.3351 6.49681 67.4429 6.74769C67.5369 7.00755 67.6399 7.35172 67.7339 7.70004C67.9316 8.3953 67.9702 9.18731 67.8922 9.52527C67.7014 10.0706 67.1319 10.1169 66.5611 10.2295C65.9923 10.329 65.4691 10.4603 65.2984 10.8702C65.523 10.7237 65.9916 10.7672 66.1485 10.8246C66.1381 11.2558 65.371 11.1674 65.8561 11.7285C66.8265 11.3256 66.4609 13.1626 66.7788 11.6359C67.0739 11.9248 67.1271 12.1397 67.1437 12.3754C67.1444 12.6201 67.1181 12.8827 67.2971 13.2974C67.5618 13.0638 68.1541 13.0769 68.7346 13.3215C69.027 13.4418 69.3248 13.6153 69.5785 13.8212C69.81 14.0306 70.0007 14.2704 70.1079 14.5013C69.8459 14.4819 69.5474 14.7369 69.4105 14.8503C69.4541 15.7847 69.3165 16.4958 69.1838 17.2084C69.0567 17.9161 68.9406 18.6072 68.9357 19.4856C68.6918 19.6473 68.3967 20.4946 67.9626 20.1338C68.141 20.3861 68.4824 20.6183 68.5072 21.1601C67.6357 22.2079 68.3718 19.9528 67.3248 20.7517C67.9101 20.8201 68.1327 22.1519 68.4983 22.9232C69.4029 22.6861 68.6717 21.1415 68.3061 20.3688C69.5536 20.3654 70.8598 21.7096 71.4369 23.5445C71.7465 25.0027 70.6303 24.1768 70.808 24.4298C70.5896 27.1694 72.9863 26.7637 72.0865 29.0381C71.2917 29.9407 70.5052 29.0789 69.9316 29.2793C69.6303 28.0913 70.4361 27.4555 70.4044 26.6503L70.0284 27.6414C69.7644 27.2634 69.5633 26.4707 69.7941 26.038C69.0802 26.7941 69.6566 30.6657 68.9979 32.7791C69.264 33.1544 69.5398 33.8027 69.8597 33.4958L69.7485 32.8275C70.3891 32.2131 70.6352 34.086 70.9344 33.2394C71.385 34.1365 72.0927 35.142 71.7306 36.4047L70.8239 36.6417C71.0885 36.6148 71.3636 35.8166 71.0879 35.4613C71.4894 35.988 69.8611 37.3978 71.0478 37.9742L71.676 37.0889C72.1314 37.9894 73.0935 39.1028 72.808 40.2217C73.703 39.7124 72.7058 39.9639 73.7528 39.1685C72.45 39.8575 73.8074 36.3052 72.4383 37.413C73.654 36.5968 72.9539 36.0011 73.9898 34.934C73.6913 34.9672 73.4183 35.312 73.5655 34.3721C73.4784 34.3293 73.3671 34.2298 73.3022 34.1662C73.3119 34.1378 73.316 34.1275 73.3243 34.1026C73.3119 34.1213 73.3015 34.1358 73.2891 34.1544C73.2441 34.1137 73.2351 34.1102 73.2766 34.1738C73.146 34.3977 72.9884 34.5788 72.8219 34.6527C72.1356 34.1862 72.157 32.692 71.8018 32.1868C71.9442 31.6291 72.1446 32.4197 72.4639 32.1157L71.9324 31.361C72.5966 31.2863 73.0354 29.8799 73.4245 31.193L73.4542 30.0112C73.8267 29.3153 73.9746 28.3581 73.6954 27.7679C73.8392 27.2101 72.9608 26.3594 73.4805 26.8452L73.0693 24.9917L73.2351 24.9744C73.3188 23.1457 72.1356 21.2092 73.334 19.1179C73.1667 18.5021 72.9615 17.8656 73.1501 16.8359L73.7245 16.6347C73.636 16.3217 73.7417 15.4529 73.7901 14.7197C73.8081 13.9809 73.7272 13.3077 73.4017 13.1391C73.7293 12.7804 73.8102 12.2586 73.7638 11.6484C73.7175 11.0388 73.4522 10.3691 73.1536 9.70288C72.4867 8.38355 71.4977 7.19138 70.9918 6.35444L70.3525 6.75183C69.6061 5.70411 68.5736 4.93283 67.1623 4.23342L66.8334 4.81534C66.492 4.73586 66.1934 4.53889 65.87 4.3129C65.5424 4.09312 65.2182 3.8001 64.8609 3.49877C64.4912 3.22233 64.1021 2.9058 63.6695 2.63764C63.2265 2.39645 62.76 2.14765 62.2541 2.02324C62.4662 1.8014 62.9542 2.0578 63.2513 2.32803C62.3398 1.15244 60.8352 1.12963 59.538 1.30034C59.2125 1.36254 58.8884 1.42405 58.5691 1.48487C58.2864 1.53325 58.0072 1.58093 57.7342 1.62793C57.2559 1.69359 56.7922 1.65074 56.3533 1.37775C55.9159 1.61895 55.5993 1.5367 55.2925 1.37014C55.3333 1.36876 55.3699 1.35632 55.401 1.33559C55.3561 1.32729 55.2897 1.3266 55.2213 1.32729C55.0285 1.21326 54.8294 1.08057 54.6138 0.974829C54.797 1.13586 54.9725 1.26855 55.1252 1.33006C54.788 1.34388 54.2759 1.42612 53.7748 1.59199L53.5613 0.880146C53.5205 0.889821 53.488 0.887747 53.4451 0.900187C52.9531 0.637565 53.0491 1.23745 53.3118 1.77306C53.0595 1.88986 52.828 2.03084 52.6483 2.20224C52.2488 1.05292 51.3324 2.58926 50.7864 1.36392C50.4485 1.96173 48.2653 1.81384 47.9978 3.07097C47.9805 2.90718 47.8326 2.82908 48.1035 2.81872C47.5444 2.67496 46.9853 2.5319 46.4843 2.88644L46.2472 1.98108L45.026 3.19813C44.2845 2.64663 43.9769 2.32595 44.7136 1.62931C42.9354 2.70054 43.2706 2.03292 41.7584 3.09447L41.8324 2.50909C41.2919 2.53121 40.4274 3.31562 40.1018 2.83185C38.8924 1.71985 34.1182 2.67842 31.0144 1.64451C31.6164 3.36746 29.5714 0.871851 29.4484 2.20777C29.2673 1.80071 28.8346 1.57057 29.3378 1.21603C27.7537 1.61618 26.9576 0.569837 25.8635 1.69566C25.6825 1.28652 26.2029 1.09784 26.0412 0.855954C25.914 0.944417 25.538 1.2105 25.3729 0.967225C25.2118 0.724645 25.6051 0.625126 25.8559 0.44751C24.2381 0.51593 24.0743 1.77237 23.9561 2.95071C23.1357 2.39299 22.7266 2.47178 22.1343 3.24444C21.8489 2.8588 21.3727 2.45519 22.3783 2.31696C21.8122 2.26098 18.9227 1.75164 18.8647 2.69639C18.6877 2.45657 18.074 2.62658 17.9247 2.73578C16.6552 2.67911 16.5439 2.5941 15.2971 2.68395L15.6427 2.83807C15.1796 3.97978 14.5542 3.08272 13.4256 3.34534L13.4429 3.2244C12.0786 2.99218 11.7994 3.23684 11.5541 3.37022C11.2921 3.52227 11.0793 3.63561 9.66111 3.69574L10.0689 4.28733C10.2555 5.04617 9.69981 5.0441 8.90711 5.07658C8.52285 5.11113 8.07017 5.14293 7.65758 5.26525C7.26019 5.40762 6.89459 5.62878 6.68588 5.97019L7.36662 5.96465C7.19592 6.39729 6.4737 6.35168 5.60981 6.32404C4.75698 6.28879 3.81223 6.32956 3.42106 6.62536C3.18539 6.70069 3.46529 6.23903 3.59522 5.95982C2.99326 6.27289 2.75552 6.53275 2.68296 6.70345C2.61246 6.87761 2.72166 6.98474 2.87025 7.09601C3.17434 7.32062 3.6049 7.56389 3.19921 8.33725C2.60348 8.35245 2.37126 7.24736 1.62417 8.2944C1.26963 8.45957 1.17771 9.50454 1.09962 10.5827C1.02498 11.6815 0.995259 12.8018 0.385006 13.5399C0.826627 13.2365 1.25373 12.996 1.41407 13.8295C1.40509 14.1343 1.26756 14.4722 1.11897 14.8441C0.985583 15.2166 0.815569 15.623 0.683566 16.0376C0.442368 16.7584 0.355288 17.3749 0.961394 17.8407C0.855654 17.9686 0.754751 18.017 0.658687 18.0218C0.972452 18.7903 1.18048 20.5188 1.84049 20.9811C-0.608814 21.6909 3.03128 25.7574 0.772721 25.7401L0.892974 28.1031L0.662834 28.0415C0.513554 29.5523 1.05469 30.0859 1.59652 30.6173C1.4431 30.9663 1.23231 30.7113 1.11344 30.683C0.657996 32.8897 0.754059 33.1095 1.87919 34.9596L1.14661 35.1517C1.57234 35.6535 -0.00270847 38.3426 0.852197 40.5071C0.769264 40.4857 0.626896 40.4408 0.52392 40.2694C1.38366 42.7049 -1.50864 46.1003 1.15974 46.9925L1.81699 48.5994C2.02432 46.5198 2.9746 48.909 3.4183 48.0534C3.57449 48.871 2.61315 50.1675 2.47631 49.1626L2.6097 49.0051C1.21849 48.636 2.11693 51.5891 1.17011 51.5331C1.20397 53.5788 1.02912 55.599 0.837684 57.5859C0.789997 58.0828 0.741619 58.5777 0.693933 59.0704C0.670435 59.6371 0.635189 60.2888 0.6732 60.8929C0.726416 61.5066 0.765809 62.1258 0.913016 62.7243C0.980054 63.0243 1.03534 63.3284 1.12311 63.6221L1.41891 64.4915C1.68913 64.1846 1.96558 63.8902 2.24686 63.609C2.40098 64.1135 2.56823 64.6145 2.79491 65.0935C2.74999 65.5752 2.29178 66.0037 1.81284 64.8944C1.66564 65.3015 2.00912 65.7203 2.40305 65.9891C2.82187 66.249 3.29321 66.3575 3.39964 66.3098C3.589 66.8461 3.61526 67.1067 3.52542 67.211C3.43557 67.3161 3.20889 67.2774 2.98773 67.1633C2.54058 66.9429 2.01534 66.4812 2.1971 66.8074C2.39891 67.0797 2.58551 67.3603 2.80252 67.6174C2.79284 67.5324 2.78178 67.4495 2.77902 67.361C3.19023 67.5711 3.51021 67.6036 3.81361 67.7377C4.11494 67.8745 4.4135 68.095 4.86825 68.6161C5.30642 69.4129 4.70238 69.4177 4.92907 69.6963C4.87378 69.7495 4.94013 69.8608 5.31886 70.0944C5.81369 70.612 6.39146 71.0426 6.95887 71.4842C6.8704 71.0965 6.81926 70.6839 6.7695 70.2975C7.01277 70.348 7.22564 70.4434 7.40671 70.5394C7.59745 70.6217 7.75572 70.7046 7.87459 70.744C8.11579 70.8242 8.18213 70.7177 8.06534 70.0798C8.18006 71.064 9.82422 72.1387 11.6066 72.5789C11.8284 72.6335 12.0489 72.6888 12.2659 72.7427C12.4871 72.7752 12.7048 72.807 12.9169 72.8374C13.3413 72.8961 13.7408 72.9528 14.1001 72.9576C14.4588 72.9763 14.7726 72.997 15.0248 73.0295C15.2536 73.0551 15.3967 73.0876 15.4886 73.1463C16.5342 72.5243 17.5661 72.5347 18.8446 72.61C18.5267 72.4324 18.3366 71.4724 19.439 71.5899C19.0361 73.5706 21.4584 72.4497 22.3492 73.8747C21.5531 72.93 25.4841 73.6411 24.2346 72.2997C25.1545 72.46 24.2906 73.0412 24.9886 73.5071C27.1787 72.7399 29.8146 74.006 32.5217 73.7469C32.5639 73.487 32.1105 73.0896 32.6911 72.7026L34.1203 74.0026C34.6552 73.8747 34.6123 72.5022 35.5896 73.4041C35.4514 73.185 35.2454 72.8553 35.6041 72.7724C40.907 74.0392 46.44 71.7344 51.8259 74.1152C51.0961 73.6114 51.5826 73.5617 52.1396 73.543C51.7775 73.4227 52.1479 72.901 52.0767 72.5485L54.3312 73.5271C54.7424 72.5492 56.7487 73.4608 56.9836 72.5257L56.2697 72.6936C57.2193 71.5899 54.9407 70.2409 55.0796 68.8248C54.0167 70.0791 52.2765 66.9671 50.5321 68.7626C50.1472 68.4737 50.8604 68.3064 50.6544 67.9782C50.2121 68.585 49.6786 68.7114 48.6889 68.4391L48.8009 68.2892C46.0212 68.4371 44.8291 67.8386 41.7059 67.4405L41.9367 68.1406C41.2657 68.0466 41.1247 67.8275 40.8102 67.652C40.0403 68.7135 42.6949 67.7121 41.9934 68.8828C41.1033 67.4578 37.2607 68.8614 36.6594 67.2421C35.6269 67.2338 36.9621 68.0528 35.9296 68.0431L35.6559 67.605L35.3947 68.1696C34.7181 68.0763 34.3767 67.5289 34.3511 67.1578C34.5156 67.202 34.8176 67.0541 34.9938 67.0224C34.1161 66.5061 32.519 67.1986 32.2176 67.03L33.2094 67.3002C30.3917 67.71 26.9514 67.135 24.2291 68.0258L24.4357 68.3569C22.3568 68.9678 22.7708 67.9941 20.4888 68.2767L20.5717 68.1979C20.1149 68.5269 19.5046 68.6935 18.8806 68.6555C19.4569 68.2684 17.7962 67.9035 18.5523 67.475C16.2979 68.1309 17.4375 67.9906 15.9482 69.218L15.6047 68.67C15.0836 69.171 15.067 69.4247 14.0276 69.5159C14.4706 69.3009 14.313 69.0846 14.1941 68.8517C14.069 68.6168 13.9875 68.3673 14.4222 68.0763C13.9799 67.7598 13.6267 67.5946 13.2777 67.5752C12.9425 67.5068 12.6066 67.5884 12.3074 67.6001C12.0109 67.6112 11.731 67.6216 11.5257 67.4999C11.3302 67.3589 11.2044 67.0998 11.2244 66.625C10.4932 67.1205 10.7434 67.4654 11.1532 67.7335C11.5506 68.0072 12.0931 68.0639 11.7932 68.142C11.9107 68.4495 11.6446 68.6527 11.2438 68.7232C10.845 68.7978 10.3474 68.6596 10.0682 68.453C9.77446 68.2567 9.76064 67.6817 9.69913 67.0825C9.65144 66.4467 9.56367 65.8212 9.03842 65.3367C9.1414 65.4376 9.22709 65.3609 9.328 65.4604C9.29482 65.2987 9.20774 65.2034 9.09579 65.1287C8.9935 65.0444 8.86288 64.9849 8.73157 64.9158C8.60164 64.846 8.46756 64.7707 8.37634 64.6505C8.29479 64.5226 8.24848 64.3574 8.2782 64.1349C7.79442 64.2621 7.66726 64.0692 7.56497 63.9151C7.45301 63.7638 7.33138 63.6622 6.79231 63.902L7.28507 64.45L7.82345 64.9428C7.46545 64.7168 6.8704 64.647 6.37073 64.3609C6.10811 64.2282 5.86553 64.0478 5.70795 63.7859C5.54139 63.5295 5.41561 63.2123 5.45984 62.8017C5.71279 62.8328 6.15441 63.1072 6.44399 63.2751C6.57046 62.7893 5.93049 62.6504 6.11709 62.1403C6.70868 62.009 6.86626 62.3829 7.11437 62.8142C7.33345 63.2544 7.65067 63.7686 8.22706 63.8453C8.32796 63.5537 7.97825 63.3615 7.726 63.1853C7.50139 62.9939 7.415 62.8432 8.06119 62.7305C7.2284 62.8536 7.09018 62.49 7.06668 62.0795C6.99964 61.6683 7.06115 61.2343 6.33963 60.8756L7.03627 60.8023C6.9098 60.6828 6.53729 60.4243 6.50757 60.1368C6.83723 60.2723 7.16274 60.3897 7.48273 60.4893C7.26641 60.3476 7.18348 60.1741 7.1738 59.9986C7.18417 59.8196 7.27678 59.6364 7.37284 59.4637L7.51728 59.2093C7.56152 59.1319 7.61197 58.9723 7.64307 58.8576C7.70803 58.6074 7.71978 58.3565 7.61404 58.1042C7.61957 58.6336 7.56912 58.9274 7.48342 59.0856C7.39703 59.2425 7.28161 59.2211 7.13994 59.2218C6.86004 59.2045 6.50688 59.0559 6.2719 59.4021C6.13368 59.1817 6.08185 58.8707 6.06595 58.6551C6.05144 58.4298 6.08115 58.248 6.14266 58.0932C6.26568 57.7843 6.51379 57.5873 6.78056 57.38C7.31479 56.9653 7.92366 56.5126 7.75572 55.0509C7.85455 55.4462 7.33414 56.5361 7.00932 55.9176C7.15376 55.3612 7.4226 54.6266 7.79096 54.2852C7.64514 52.3487 7.06944 54.5823 6.63819 53.7585C7.4924 53.0992 6.29056 52.8076 6.01688 51.9589L6.73011 51.9527C7.18762 49.7466 5.24352 51.368 5.79641 49.381L6.7854 50.2207L6.52968 49.1847L7.34105 49.3983C6.73909 48.2718 6.89528 47.9207 7.12266 46.817C6.62022 47.0734 5.8282 46.6726 5.80609 45.6953C6.22974 45.0291 6.48407 46.0685 6.38179 44.6835C6.82824 44.9959 7.38805 45.3387 6.7308 45.942C6.96301 46.0036 7.17864 46.2503 7.40809 46.3139C7.89532 45.5958 7.51936 44.5101 7.51314 44.0083C7.48618 44.2011 7.44817 44.432 7.34658 44.5508L6.35829 42.5425C6.62644 42.2266 6.84138 42.4775 7.05217 42.7256C6.97476 42.3186 6.64717 42.0373 6.58567 41.4394C7.16551 41.5943 7.76332 41.5569 8.03631 42.4036L7.39288 40.4899C7.64514 40.362 8.08538 39.5078 8.29893 39.7566C8.63965 38.6957 7.17449 37.1546 7.62371 35.7481C7.51106 35.6749 7.40325 35.5284 7.32032 35.2298C7.45163 33.9084 8.16278 32.737 7.368 31.1709L8.40744 30.2821C8.17177 29.0554 7.09778 31.4854 6.70592 29.4424C6.37488 27.9959 7.59262 28.9027 7.8815 28.3954C7.35764 27.6759 6.29125 26.4257 7.13717 25.0967C7.3369 25.5383 7.18278 25.8832 7.26019 26.2944ZM7.58017 12.6885C7.60229 12.9435 7.91122 13.4826 7.46407 13.4764C6.78471 12.9801 7.1973 12.8993 7.58017 12.6885ZM25.0093 6.17544C24.7916 6.41111 24.4544 6.29432 24.0736 6.02479C24.3493 5.96604 24.6624 5.99299 25.0093 6.17544ZM73.0382 29.1003C73.0264 29.0879 73.0181 29.0789 73.0036 29.0692C73.2815 28.4147 73.1716 28.647 73.0382 29.1003ZM72.7286 30.4584C72.8281 30.5945 72.9269 30.5855 73.0264 30.5275C72.846 30.4328 72.8336 30.128 72.8841 29.7804C72.6975 29.8771 72.5689 30.0527 72.7286 30.4584ZM5.25044 69.6361L5.13847 69.2802C5.81922 69.6258 5.54347 69.623 5.25044 69.6361Z" fill="#EA4335"/>
<path d="M22.4011 7.15114C22.3181 7.03089 22.2953 6.8975 22.276 6.76343C22.1606 6.88299 22.1578 7.0219 22.4011 7.15114Z" fill="#EA4335"/>
<path d="M7.63477 35.7046C7.62924 35.7198 7.63132 35.735 7.62648 35.7509C7.66933 35.7765 7.71287 35.7896 7.75502 35.7972L7.63477 35.7046Z" fill="#EA4335"/>
<path d="M65.2424 11.4134C65.212 11.1832 65.2369 11.0167 65.2998 10.8708C65.1498 10.9662 65.098 11.1272 65.2424 11.4134Z" fill="#EA4335"/>
<path d="M73.9401 37.6548L73.7548 36.7847C73.7901 37.2056 73.6346 37.3555 73.5213 37.5684C73.6878 37.549 73.929 37.3832 73.9401 37.6548Z" fill="#EA4335"/>
<path d="M69.5273 45.2058C69.6144 45.333 69.537 45.4753 69.6255 45.6011L69.9565 45.5666C69.9351 45.024 69.6676 44.6453 69.5273 45.2058Z" fill="#EA4335"/>
<path d="M71.5703 38.46C70.9704 38.5291 71.1743 39.0744 71.2848 39.6839C71.2828 39.6473 71.2779 39.6127 71.2848 39.5761C72.1252 39.7558 71.8467 39.1068 71.5703 38.46Z" fill="#EA4335"/>
<path d="M71.3056 39.8257C71.3339 40.0137 71.3498 40.2051 71.3208 40.3889C71.6573 40.4601 71.3906 40.1609 71.3056 39.8257Z" fill="#EA4335"/>
<path d="M73.126 32.1805C72.9712 32.4693 73.8931 32.3615 73.6485 32.5253C74.4121 32.8481 72.7244 30.5985 73.126 32.1805Z" fill="#EA4335"/>
<path d="M69.5944 38.9534L70.3346 38.735L69.7381 38.3936L69.5944 38.9534Z" fill="#EA4335"/>
<path d="M70.1376 34.1419L69.9323 35.1157C70.0567 35.1012 70.1293 35.2249 70.1846 35.377C70.2101 34.7771 70.3574 34.1191 70.1376 34.1419Z" fill="#EA4335"/>
<path d="M70.1853 35.377C70.1708 35.6893 70.1867 35.9865 70.3083 36.1607C70.3 35.9913 70.2758 35.6271 70.1853 35.377Z" fill="#EA4335"/>
<path d="M69.3718 37.6224L69.5266 37.3349L69.5805 36.6472L69.3718 37.6224Z" fill="#EA4335"/>
<path d="M70.2806 23.675L70.0685 22.6121C69.8148 22.5036 69.6593 22.7932 69.7602 23.1892C69.9372 23.4435 70.0353 23.8381 70.2806 23.675Z" fill="#EA4335"/>
<path d="M68.2522 26.8888C68.4057 26.6012 68.5715 26.5819 68.8155 26.4202L67.897 26.3877L68.2522 26.8888Z" fill="#EA4335"/>
<path d="M68.038 23.7899C67.783 23.6842 67.3068 22.2473 67.3642 23.5943C67.6171 23.7021 67.8286 24.7671 68.038 23.7899Z" fill="#EA4335"/>
<path d="M66.36 8.76965L66.5445 8.95556L67.6613 7.94653C67.2211 8.2133 66.7871 8.48768 66.36 8.76965Z" fill="#EA4335"/>
<path d="M53.6504 8.65029C54.9096 9.01105 53.9497 7.72144 55.0872 8.17135C55.383 7.81543 54.157 7.80368 54.4604 7.49683C53.7002 7.8721 53.3007 7.65993 53.6504 8.65029Z" fill="#EA4335"/>
<path d="M54.4597 7.49658C54.5813 7.43715 54.7106 7.36527 54.8474 7.26782C54.6276 7.36181 54.524 7.43369 54.4597 7.49658Z" fill="#EA4335"/>
<path d="M55.8412 74.3037L56.6512 74.6175L56.128 74.1116L55.8412 74.3037Z" fill="#EA4335"/>
<path d="M57.3955 73.187L57.5863 74.1463L58.0728 73.2782C57.8897 73.3211 57.5352 73.404 57.3955 73.187Z" fill="#EA4335"/>
<path d="M9.96106 12.4408L9.79588 12.2763C9.55883 12.19 9.45171 12.2556 9.30727 12.4318C9.51391 12.416 9.7482 12.4291 9.96106 12.4408Z" fill="#EA4335"/>
<path d="M8.01489 19.8955L8.03424 19.7068L7.1662 20.0599L8.01489 19.8955Z" fill="#EA4335"/>
<path d="M9.12135 29.1126C9.15729 28.7366 8.96378 28.2943 9.00041 27.9163C9.15729 28.7366 8.03907 29.2149 9.12135 29.1126Z" fill="#EA4335"/>
</svg>
