<svg width="76" height="76" viewBox="0 0 76 76" fill="none" xmlns="http://www.w3.org/2000/svg">
<path d="M27.9108 26.2624C27.9108 28.1713 26.3766 29.718 24.4829 29.718C22.5893 29.718 21.055 28.1713 21.055 26.2624C21.055 24.355 22.5893 22.8069 24.4829 22.8069C26.3766 22.8069 27.9108 24.355 27.9108 26.2624ZM27.9385 32.4825H21.0273V54.598H27.9385V32.4825ZM38.9714 32.4825H32.1045V54.598H38.9728V42.9887C38.9728 36.5338 47.3062 36.0057 47.3062 42.9887V54.598H54.2007V40.5947C54.2007 29.7028 41.8685 30.0995 38.9714 35.4611V32.4825Z" fill="#4285F4"/>
<path d="M58.74 74.9578C58.2694 74.924 58.4394 75.5356 58.3668 75.6496C59.1878 75.4789 58.7096 74.7975 58.74 74.9578Z" fill="#4285F4"/>
<path d="M65.4334 71.5921L65.4549 71.8747C65.6491 71.5071 65.8467 71.1726 65.9974 70.7959C65.8336 71.082 65.6283 71.3218 65.4334 71.5921Z" fill="#4285F4"/>
<path d="M70.0874 66.97C69.7805 66.9673 69.5628 67.091 69.3914 67.2941C69.2021 67.4849 69.0542 67.7544 68.9084 68.0544C68.7715 68.3612 68.6008 68.6695 68.4066 68.9507C68.2103 69.2293 68.0009 69.4891 67.7127 69.6094L67.4073 69.5631C67.4729 69.8858 67.531 70.2162 67.5793 70.5527C67.8288 70.277 68.0901 69.9757 68.3216 69.6439C68.5379 69.3053 68.7591 68.9611 68.9719 68.6287C69.3527 67.9369 69.717 67.337 70.0874 66.97Z" fill="#4285F4"/>
<path d="M73.7109 64.3928C73.4814 64.4564 73.4538 64.218 73.4503 64.1938C73.4386 64.1682 73.5008 64.3617 73.2824 65.2616C73.3564 65.1897 73.3902 65.1731 73.44 65.133C73.4842 64.972 73.5858 64.764 73.7109 64.3928Z" fill="#4285F4"/>
<path d="M73.44 65.1337C73.1884 65.914 73.9487 64.7432 73.44 65.1337V65.1337Z" fill="#4285F4"/>
<path d="M74.0309 61.4487C74.1062 61.8094 74.174 62.1785 74.2389 62.5551C74.5154 62.3754 74.7096 61.4072 74.8326 61.7887C74.7407 60.6325 74.4559 60.8757 74.0309 61.4487Z" fill="#4285F4"/>
<path d="M73.317 60.4231L73.4448 60.9525C73.5512 60.8695 73.5948 60.7265 73.317 60.4231Z" fill="#4285F4"/>
<path d="M73.6466 62.1066C73.5976 61.7154 73.545 61.3319 73.4448 60.9531C73.2638 61.09 72.9306 61.0651 73.5271 61.4749C73.2285 61.3533 73.4994 61.5952 73.6466 62.1066Z" fill="#4285F4"/>
<path d="M73.3888 62.7141C73.0599 63.2442 72.7219 63.8835 72.6134 62.8475C72.46 63.7674 72.5616 64.2249 72.7578 64.2118C72.9444 64.1979 73.263 63.6934 73.3888 62.7141Z" fill="#4285F4"/>
<path d="M69.3168 66.1362L68.7273 66.5115C68.7377 66.7306 68.7349 66.9476 68.7169 67.1598C68.7515 66.8605 69.6126 66.2662 69.3168 66.1362Z" fill="#4285F4"/>
<path d="M74.6577 56.2148C74.4331 56.1665 74.0592 56.4747 73.7717 56.5321L74.0295 57.1029C74.1836 56.8092 74.3253 56.2535 74.6577 56.2148Z" fill="#4285F4"/>
<path d="M73.7724 56.5322L73.3868 55.6787C73.3412 56.441 73.5243 56.5806 73.7724 56.5322Z" fill="#4285F4"/>
<path d="M72.1538 60.2151C72.3978 60.7804 72.6493 61.3789 72.8083 62.0037C72.6694 61.2656 72.3936 60.5579 72.158 59.8923L72.1538 60.2151Z" fill="#4285F4"/>
<path d="M74.686 52.955L75.2058 53.4387L74.4207 52.5769L74.686 52.955Z" fill="#4285F4"/>
<path d="M74.5948 50.7923C75.0247 51.1503 75.3232 50.3016 75.5879 50.6797C75.5112 50.0922 75.1415 49.5905 74.8091 49.1392C74.995 49.6188 74.9473 50.1302 74.5948 50.7923Z" fill="#4285F4"/>
<path d="M74.3253 48.3811C74.4283 48.6209 74.6135 48.869 74.8097 49.1392C74.7102 48.8842 74.5672 48.6334 74.3253 48.3811Z" fill="#4285F4"/>
<path d="M73.498 54.2245C73.6335 54.1581 73.9887 54.0317 74.1394 53.5527L73.5077 53.8886C73.5042 53.9909 73.5015 54.107 73.498 54.2245Z" fill="#4285F4"/>
<path d="M73.487 53.9003L73.507 53.8886C73.525 53.5243 73.5374 53.2714 73.5423 53.1636C73.5354 53.2562 73.5188 53.478 73.487 53.9003Z" fill="#4285F4"/>
<path d="M73.4947 54.3081C73.4961 54.2773 73.4968 54.2547 73.4975 54.2246C73.4359 54.2568 73.4154 54.2759 73.4947 54.3081Z" fill="#4285F4"/>
<path d="M72.7412 57.9185C72.3881 57.4167 72.0094 56.3718 71.471 57.3829C71.9036 57.7429 72.2105 57.1638 72.7412 57.9185Z" fill="#4285F4"/>
<path d="M72.7053 54.7263L72.5609 55.6331C72.7274 55.6151 72.9707 55.452 73.1463 55.7001L72.7053 54.7263Z" fill="#4285F4"/>
<path d="M72.5049 54.282L72.7053 54.7264L72.7585 54.3898L72.5049 54.282Z" fill="#4285F4"/>
<path d="M73.7337 49.9338C73.4586 49.5419 73.4358 49.1134 73.3916 48.6296C73.2672 49.148 73.2001 49.6843 73.2015 50.1936C73.4006 50.2655 73.7565 50.4894 73.7337 49.9338Z" fill="#4285F4"/>
<path d="M73.5573 51.8606C73.543 51.8339 73.5361 51.7997 73.5218 51.7744C73.4691 51.8271 73.452 51.8695 73.5573 51.8606Z" fill="#4285F4"/>
<path d="M73.3964 43.8655L73.2817 43.9422C73.3183 43.9484 73.3529 43.9539 73.3909 43.9602L73.3964 43.8655Z" fill="#4285F4"/>
<path d="M73.084 50.2809C72.9624 50.6706 73.1165 50.9035 73.3114 51.1261C73.2478 50.8344 73.2071 50.5255 73.2015 50.1938C73.1124 50.162 73.0536 50.1558 73.084 50.2809Z" fill="#4285F4"/>
<path d="M74.0302 47.052C73.8982 47.2552 73.7862 47.4853 73.6833 47.7272C73.883 47.5282 74.1947 47.1239 74.0302 47.052Z" fill="#4285F4"/>
<path d="M73.6971 51.6431C73.7068 51.6625 73.7185 51.6804 73.7254 51.7011C73.8609 51.5733 73.7945 51.5892 73.6971 51.6431Z" fill="#4285F4"/>
<path d="M73.6971 51.6432C73.6058 51.4428 73.4503 51.2852 73.3114 51.1262C73.3612 51.3633 73.4289 51.5837 73.5222 51.7745C73.5671 51.7261 73.6349 51.6777 73.6971 51.6432Z" fill="#4285F4"/>
<path d="M69.341 42.4223C69.9263 42.4907 70.4675 43.5163 69.84 44.401C70.2788 45.2718 72.2049 44.7023 73.2817 43.9421C73.026 43.9151 72.7903 43.9151 72.4448 43.0187C72.1248 43.3325 71.697 45.0071 71.1669 44.251C70.8656 43.0643 71.3742 43.2786 71.6838 42.7015C70.954 43.1922 70.6223 41.1914 69.5497 41.4499L69.927 42.4907C69.7598 42.5108 69.493 42.1334 69.341 42.4223Z" fill="#4285F4"/>
<path d="M73.2216 45.6493L73.2942 46.0183C73.3957 45.5981 73.63 45.2968 74.0882 44.7432C73.8028 44.1295 73.5851 44.0024 73.3902 43.9602L73.3087 45.7758L73.2216 45.6493Z" fill="#4285F4"/>
<path d="M73.2962 47.6735C72.659 47.3853 72.3881 46.5 71.6991 47.0425C71.7433 48.1241 72.2312 47.8007 72.5077 48.4469C72.3494 46.7011 72.8629 48.9486 73.2237 47.6867C73.3322 48.0301 73.3653 48.3384 73.3916 48.63C73.469 48.3156 73.5644 48.0122 73.6826 47.7268C73.6674 47.7426 73.6563 47.7537 73.6432 47.7668L73.6452 47.7751L73.6349 47.7737C73.5554 47.8491 73.507 47.874 73.5533 47.7889C73.5457 47.7834 73.5423 47.762 73.5402 47.7523C73.4517 47.7406 73.3743 47.7081 73.2997 47.6735C73.431 47.1676 73.4649 47.594 73.5402 47.7523C73.5713 47.7578 73.6017 47.7717 73.6349 47.7737C73.6383 47.7717 73.6432 47.7675 73.6432 47.7675L73.2942 46.0183C73.2057 46.3881 73.2237 46.8518 73.2962 47.6735Z" fill="#4285F4"/>
<path d="M70.1012 56.4506C70.1572 56.396 70.2028 56.3988 70.2491 56.3947C70.171 56.2813 70.1178 56.2385 70.1012 56.4506Z" fill="#4285F4"/>
<path d="M70.4855 55.7312C70.5747 55.8583 70.829 55.9641 70.7633 56.3774C70.5719 56.7361 70.4579 56.376 70.2484 56.3946C70.4171 56.6434 70.7053 57.2668 71.0149 56.4852L70.9285 56.3615C71.1476 55.6572 71.9424 54.7526 72.0294 54.8756C71.4565 55.0808 71.0481 55.2626 70.4855 55.7312Z" fill="#4285F4"/>
<path d="M71.7288 51.6522L71.4164 50.196L70.8649 50.9376L71.1959 50.9003C71.066 51.7282 71.4738 51.5492 71.7288 51.6522Z" fill="#4285F4"/>
<path d="M73.713 43.6988L74.3854 43.8924L73.4359 43.0513L73.713 43.6988Z" fill="#4285F4"/>
<path d="M73.6321 41.8066L74.2175 41.8764L73.8643 41.3767L73.6321 41.8066Z" fill="#4285F4"/>
<path d="M7.36966 19.5667L7.53552 19.9945C7.48438 19.792 7.4284 19.662 7.36966 19.5667Z" fill="#4285F4"/>
<path d="M7.427 16.5899L7.14226 16.5256C7.29568 16.6348 7.40972 16.677 7.427 16.5899Z" fill="#4285F4"/>
<path d="M54.9106 1.66659C54.2872 1.11992 53.5905 0.272617 53.6659 0.931247L53.8573 1.57191C54.2927 1.45718 54.6272 1.52836 54.9106 1.66659Z" fill="#4285F4"/>
<path d="M23.0759 5.49547C23.1346 5.55836 23.1968 5.62471 23.2583 5.69037C23.4097 5.4699 23.5506 5.26395 23.6792 5.07666C23.4967 5.20313 23.2915 5.34619 23.0759 5.49547Z" fill="#4285F4"/>
<path d="M22.6356 8.14937L21.8139 7.73608C21.9984 7.88053 22.2631 8.01806 22.6356 8.14937Z" fill="#4285F4"/>
<path d="M8.0497 36.4878L8.7028 36.9874C8.69934 36.2058 8.36968 36.55 8.0497 36.4878Z" fill="#4285F4"/>
<path d="M73.3964 22.4215C73.6466 21.8831 73.7524 21.4553 73.7835 21.0793C73.4151 21.7276 72.8629 22.2501 73.3964 22.4215Z" fill="#4285F4"/>
<path d="M0.563568 18.3475C0.679675 18.6094 0.810295 18.7214 0.953355 18.7138C0.843468 18.4435 0.721142 18.2915 0.563568 18.3475Z" fill="#4285F4"/>
<path d="M73.7807 19.5259C73.7164 19.6206 73.6839 19.7139 73.63 19.8099C73.7371 20.2032 73.8242 20.5992 73.7827 21.0795C74.0571 20.6006 74.2264 20.0525 73.7807 19.5259Z" fill="#4285F4"/>
<path d="M35.2899 67.7149C35.3341 67.7439 35.388 67.7578 35.4288 67.7916C35.4419 67.7045 35.3804 67.7004 35.2899 67.7149Z" fill="#4285F4"/>
<path d="M53.1683 74.1865C52.992 74.2266 52.7052 74.2273 52.4343 74.2356C52.5663 74.2798 52.7875 74.275 53.1683 74.1865Z" fill="#4285F4"/>
<path d="M73.912 34.1912C73.9541 34.5927 73.9832 34.2547 73.912 34.1912V34.1912Z" fill="#4285F4"/>
<path d="M71.3757 36.143C71.3038 36.0573 71.2119 35.993 71.064 35.9827C71.2188 36.0158 71.3169 36.0718 71.3757 36.143Z" fill="#4285F4"/>
<path d="M69.7058 15.5413C69.7051 15.5297 69.7038 15.5208 69.7031 15.5071C69.5971 15.637 69.6169 15.6145 69.7058 15.5413Z" fill="#4285F4"/>
<path d="M73.6204 34.795C73.6991 34.6443 73.7648 34.4709 73.8111 34.2815C73.7613 34.3644 73.6991 34.5206 73.6204 34.795Z" fill="#4285F4"/>
<path d="M73.9238 34.7136C73.8996 34.8525 73.8802 34.961 73.8616 35.0647C73.9687 35.1152 74.0357 35.0702 73.9238 34.7136Z" fill="#4285F4"/>
<path d="M73.8774 33.6318C73.8878 33.8613 73.8574 34.0755 73.8111 34.2815C73.8546 34.2027 73.8906 34.1695 73.912 34.1909C73.9051 34.0728 73.8947 33.9069 73.8774 33.6318Z" fill="#4285F4"/>
<path d="M6.74141 63.9678C6.73242 63.9961 6.73173 64.0251 6.71791 64.059C7.10079 64.2428 6.99988 64.1295 6.74141 63.9678Z" fill="#4285F4"/>
<path d="M44.463 8.32643C44.4817 8.3202 44.4914 8.3029 44.5087 8.29529C44.49 8.28838 44.4665 8.27938 44.4492 8.27246L44.463 8.32643Z" fill="#4285F4"/>
<path d="M43.0214 8.80471C43.6351 8.00648 43.9848 8.10462 44.4499 8.27325L43.973 6.42383L43.0214 8.80471Z" fill="#4285F4"/>
<path d="M7.55417 26.9851L8.12986 25.9726C9.07807 27.1945 8.75117 28.0791 9.56185 27.1282C7.55348 26.9851 9.3559 23.193 7.35029 23.052L7.77256 22.3844C7.75321 22.5758 7.87139 22.6062 7.85134 22.7956C8.81268 21.4977 6.40001 21.8315 6.68544 20.159C6.83956 19.5764 7.13121 19.1693 7.36895 19.5667L6.87273 18.2681C6.91143 17.8901 7.26044 17.9827 7.22174 18.3586L7.14157 17.3683L7.10149 16.8727L7.08352 16.5127L7.14226 16.5258C6.82988 16.3171 6.37375 15.7794 6.22723 15.4954C6.5721 15.145 6.40761 15.7248 6.67092 15.6571C6.55896 15.3606 6.41659 15.0413 6.34956 14.7227C6.64743 14.61 6.87204 14.7683 6.99851 14.9971C7.11393 15.2265 7.20584 15.5451 7.11669 15.8077C8.17824 15.5845 8.03103 15.4553 7.88452 15.1567C7.80504 15.0109 7.7069 14.8277 7.72072 14.6031C7.73109 14.3806 7.92045 14.1318 8.30264 13.8933L8.31024 14.6163C8.93432 14.5921 9.16515 14.4614 9.37248 14.2831C9.61368 14.1263 9.76089 13.8809 10.2488 13.8125C10.15 13.7959 9.96407 13.7959 9.7284 13.8035C9.49135 13.8215 9.21767 13.8415 8.98339 13.8588C8.45607 13.8788 7.9329 13.8553 7.89627 13.3667C8.13539 13.2071 8.31784 12.9825 8.23007 12.3777C8.53555 12.5664 8.70072 12.5408 8.82927 12.4164C8.97095 12.301 9.07254 12.0771 9.2156 11.8435L9.92952 12.4683C10.065 11.905 9.68694 11.6058 9.62197 11.0487C10.1942 10.6583 10.7519 11.1324 11.2433 11.5519C11.6414 11.3494 11.3539 11.1946 11.0408 11.0142C10.7271 10.8283 10.3787 10.6265 10.8314 10.1683C11.7769 10.0051 12.0526 9.40803 12.9794 8.5241C13.6933 8.6796 13.0243 9.10947 13.3201 9.31404C13.4259 9.03069 13.5454 8.73005 13.6857 8.44323C13.8308 8.44116 13.8267 8.67545 13.8267 8.79363C14.2552 8.43909 13.6836 7.85511 14.4833 7.48536C14.5157 7.22343 14.6574 7.18265 14.8565 7.24831C14.956 7.28079 15.0686 7.34023 15.1889 7.4121C15.3002 7.48121 15.4384 7.56898 15.6132 7.66229C16.2698 8.02512 17.0514 8.37067 17.6914 7.77908C18.0072 8.04723 17.5394 8.35893 17.6354 8.72453C19.3929 7.94841 19.142 8.16057 20.5851 7.1163L21.8146 7.73693C20.9113 7.02715 22.0654 6.18676 23.0765 5.49634C22.7559 5.15355 22.4822 4.85361 22.2984 4.71055L23.9114 4.20326C24.1063 4.35877 23.9439 4.68359 23.6792 5.07822C23.7891 5.00012 23.8934 4.92272 23.975 4.85153C24.5521 5.20054 24.2528 5.74652 23.8395 6.27522C23.6433 6.08862 23.4477 5.88958 23.2583 5.69193C22.8602 6.26624 22.487 6.90275 22.57 7.45633C22.675 7.34714 22.8768 7.25315 23.0987 7.20062C22.9943 7.35612 22.928 7.49572 22.9763 7.59041C23.0309 7.68993 23.1996 7.48052 23.4629 7.23933L23.8299 8.29327L23.919 7.87445L26.0297 8.53446C27.5398 7.47361 28.8529 5.91169 31.2496 5.47629C30.6553 6.24895 31.1218 6.73896 31.0893 7.65468C30.4355 6.68505 29.233 8.06659 27.991 7.86962C28.6393 7.97121 28.4969 8.40799 28.3318 8.56004L30.5468 7.67818C30.497 8.42734 31.0174 8.24005 31.5959 8.54967C31.1584 7.06931 33.247 7.56345 34.1482 7.10939C34.2041 7.60699 33.9878 8.11427 32.8883 7.99471C34.1019 9.10948 34.4564 6.25587 35.6472 7.20269C35.3783 7.21513 35.2339 7.13842 35.1275 7.39137C35.755 6.94975 37.2879 7.29944 36.9271 7.73277L36.659 7.74315C38.4414 7.91869 42.0856 7.75421 42.3517 6.49638C42.3696 6.65879 42.1181 8.01198 42.0103 8.26631L45.1908 4.03601C44.9109 5.11622 45.9862 7.68785 44.5079 8.29741C44.9323 8.45153 45.4575 8.63053 46.3525 8.24972C46.0629 8.0963 45.631 6.68851 46.0263 6.58968C47.112 7.79221 46.7803 7.23241 48.119 8.25802C47.685 8.0265 48.1674 6.33328 48.853 6.38718C48.7458 6.64082 48.9103 8.05898 48.6595 8.23521L50.3665 6.57309C49.9401 6.87234 50.2912 7.98226 50.6733 8.45222C50.4964 8.12671 52.1496 8.48263 52.6043 8.31814L51.8807 7.9325C53.8082 8.18338 53.7847 5.59448 55.697 5.68156C55.4655 6.02504 55.1255 7.79498 56.0979 8.00438C56.3204 7.57866 56.8139 6.55443 57.4628 5.55509C57.7953 5.05956 58.1332 4.55296 58.5569 4.1611C58.9888 3.78168 59.4954 3.44857 60.0103 3.3608L60.3178 3.89917C60.5749 3.84665 60.8389 3.7886 61.1043 3.74506L61.9088 3.6635C61.5915 3.91921 61.1693 4.21086 60.7152 4.59167C60.2591 4.98215 59.785 5.38438 59.3489 5.83567C58.8955 6.30217 58.5479 6.7431 58.1526 7.16399C57.7531 7.58418 57.3792 7.9491 57.0696 8.21172C57.7911 8.59736 57.2707 8.78534 58.3509 8.7418C58.4843 8.97885 58.4124 9.13988 58.1602 9.26221C57.9252 9.38177 57.6031 9.44742 57.4449 9.46055L58.0738 9.53381L58.3799 9.57183L58.5797 9.6202C58.843 9.69069 59.1056 9.72387 59.3517 9.83306C59.3793 9.34168 59.7304 9.12191 60.1126 8.97263C60.4858 8.83856 60.8963 8.72245 60.9847 8.31884C60.2038 8.46674 59.4919 8.66025 58.8416 8.98576C58.8285 8.50267 59.1505 7.76249 59.7566 7.31051C60.0573 7.07622 60.4319 6.86819 60.8216 6.81843C61.2156 6.74586 61.6358 6.77144 61.9993 6.9691C62.1265 7.22619 61.8873 7.60906 61.633 7.97881C61.3759 8.34717 61.1078 8.70172 61.0684 8.86413C61.199 8.73558 61.5584 8.6796 61.8901 8.71899C62.2122 8.77843 62.51 8.89938 62.5093 9.03276C62.2509 9.1074 62.0034 9.1855 61.7678 9.26636C62.0062 9.59464 62.4167 9.40251 62.8224 9.36933C63.0263 9.34445 63.2364 9.33685 63.4078 9.42116C63.5681 9.51999 63.6946 9.7059 63.7298 10.0266C63.8439 10.1365 63.8072 10.5428 63.7824 10.8456C63.7609 11.1489 63.7603 11.3563 63.9856 11.1635C64.4548 10.0653 66.5579 7.23103 67.5351 6.96979C67.5531 7.01195 67.6291 7.18887 67.7369 7.43974C67.8309 7.6996 67.9339 8.04378 68.0279 8.3921C68.2255 9.08736 68.2642 9.87868 68.1861 10.2173C67.9954 10.7626 67.4259 10.8089 66.855 10.9216C66.2863 11.0211 65.7631 11.1524 65.5924 11.5622C65.817 11.4157 66.2856 11.4593 66.4425 11.5166C66.4321 11.9479 65.665 11.8594 66.1501 12.4206C67.1204 12.0184 66.7548 13.8553 67.0728 12.328C67.3679 12.6169 67.4211 12.8318 67.4377 13.0675C67.4383 13.3121 67.4121 13.5747 67.5911 13.9894C67.8558 13.7558 68.4481 13.769 69.0286 14.0136C69.3209 14.1339 69.6188 14.3073 69.8724 14.5133C70.104 14.7227 70.2947 14.9625 70.4018 15.1933C70.1399 15.174 69.8413 15.429 69.7045 15.5423C69.748 16.4767 69.6105 17.1879 69.4778 17.9004C69.3507 18.6081 69.2346 19.2992 69.2297 20.1769C68.9858 20.3387 68.6906 21.186 68.2566 20.8252C68.4349 21.0775 68.7763 21.3097 68.8012 21.8508C67.9297 22.8985 68.6658 20.6434 67.6187 21.4424C68.2041 21.5108 68.4266 22.8426 68.7922 23.6138C69.6969 23.3768 68.9657 21.8322 68.6001 21.0595C69.8476 21.056 71.1538 22.4003 71.7309 24.2352C72.0405 25.6934 70.9243 24.8675 71.1019 25.1205C70.8835 27.8594 73.2803 27.4544 72.3805 29.7288C71.5857 30.6314 70.7992 29.7696 70.2256 29.9693C69.9243 28.7813 70.7301 28.1455 70.6983 27.3403L70.3224 28.3314C70.0584 27.9533 69.8572 27.1606 70.0881 26.728C69.3742 27.4841 69.9505 31.3557 69.2919 33.4691C69.558 33.8444 69.8337 34.4926 70.1537 34.1858L70.0425 33.5175C70.6831 32.9031 70.9292 34.776 71.2284 33.9294C71.679 34.8265 72.3867 35.832 72.0246 37.0947L71.1178 37.3317C71.3825 37.3048 71.6576 36.5065 71.3818 36.1513C71.7834 36.6779 70.1551 38.0878 71.3418 38.6642L71.97 37.7789C72.4254 38.6794 73.3874 39.7928 73.102 40.9117C73.997 40.4023 72.9997 40.6539 74.0468 39.8584C72.744 40.5475 74.1014 36.9952 72.7323 38.103C73.9479 37.2868 73.2478 36.6904 74.2838 35.624C73.9853 35.6572 73.7123 36.002 73.8595 35.0621C73.7724 35.02 73.6611 34.9197 73.5962 34.8562C73.6058 34.8278 73.61 34.8175 73.6183 34.7926C73.6058 34.8113 73.5955 34.8258 73.583 34.8444C73.5381 34.8036 73.5291 34.8002 73.5706 34.8638C73.44 35.0877 73.2824 35.2688 73.1158 35.3427C72.4296 34.8762 72.451 33.382 72.0958 32.8768C72.2381 32.3191 72.4385 33.1097 72.7578 32.8056L72.2264 32.0509C72.8905 31.9763 73.3294 30.5699 73.7185 31.883L73.7482 30.7012C74.1207 30.0053 74.2686 29.0481 73.9894 28.4579C74.1331 27.9001 73.2547 27.0494 73.7745 27.5352L73.3633 25.6817L73.5291 25.6644C73.6127 23.8357 72.4296 21.8992 73.628 19.8079C73.4607 19.1921 73.2554 18.5556 73.4441 17.5258L74.0184 17.3247C73.93 17.0117 74.0357 16.1436 74.0841 15.4096C74.1021 14.6708 74.0212 13.9977 73.6957 13.8291C74.0233 13.4704 74.1041 12.9486 74.0578 12.3383C74.0115 11.7288 73.7461 11.0591 73.4476 10.3929C72.7806 9.07354 71.7917 7.88137 71.2858 7.04443L70.6465 7.44182C69.9001 6.39409 68.8676 5.62212 67.4563 4.92341L67.1273 5.50532C66.7859 5.42584 66.4874 5.22887 66.1639 5.00288C65.8363 4.78311 65.5122 4.49008 65.1549 4.18875C64.7852 3.91231 64.3961 3.59578 63.9634 3.32763C63.5204 3.08643 63.0539 2.83693 62.548 2.71322C62.7602 2.49207 63.2481 2.74778 63.5453 3.01801C62.6337 1.84243 61.1292 1.81962 59.832 1.99033C59.5065 2.05253 59.1823 2.11403 58.863 2.17485C58.5804 2.22323 58.3012 2.27092 58.0282 2.31791C57.5499 2.38357 57.0862 2.34071 56.6473 2.06842C56.2099 2.30961 55.8933 2.22738 55.5865 2.06082C55.6272 2.05944 55.6639 2.047 55.695 2.02627C55.65 2.01797 55.5837 2.01658 55.5153 2.01797C55.3225 1.90393 55.1234 1.77124 54.9078 1.66481C55.0909 1.82584 55.2665 1.95853 55.4192 2.02004C55.082 2.03387 54.5698 2.11611 54.0688 2.28197L53.8552 1.57013C53.8145 1.5798 53.782 1.57842 53.7391 1.59017C53.2471 1.32754 53.3431 1.92743 53.6057 2.46304C53.3535 2.57984 53.122 2.72083 52.9423 2.89222C52.5428 1.7429 51.6264 3.27925 51.0804 2.05391C50.7425 2.65172 48.5592 2.50382 48.2918 3.76095C48.2745 3.59716 48.1266 3.51906 48.3975 3.50869C47.8384 3.36494 47.2793 3.22258 46.7782 3.57643L46.5412 2.67107L45.32 3.88812C44.5784 3.33661 44.2709 3.01594 45.0076 2.31929C43.2294 3.39052 43.5646 2.7229 42.0524 3.78445L42.1264 3.19908C41.5859 3.22119 40.7213 4.00561 40.3958 3.52183C39.1864 2.40983 34.4122 3.3684 31.3084 2.3345C31.9103 4.05744 29.8653 1.56184 29.7423 2.89776C29.5613 2.49069 29.1286 2.26054 29.6317 1.906C28.0477 2.30616 27.2516 1.25982 26.1575 2.38633C25.9765 1.97719 26.4969 1.78852 26.3351 1.54663C26.208 1.6351 25.832 1.90117 25.6668 1.6579C25.5058 1.41532 25.899 1.3158 26.1499 1.13818C24.532 1.2066 24.3682 2.46304 24.2501 3.64139C23.4297 3.08366 23.0206 3.16245 22.4283 3.93511C22.1429 3.54947 21.6667 3.14656 22.6722 3.00764C22.1062 2.95097 19.2167 2.44231 19.1586 3.38706C18.9817 3.14725 18.368 3.31726 18.2187 3.42646C16.9491 3.37048 16.8379 3.28477 15.5911 3.37462L15.9367 3.52944C15.4736 4.67115 14.8482 3.77409 13.7196 4.03671L13.7369 3.91576C12.3726 3.68355 12.0934 3.92821 11.848 4.0609C11.5861 4.21294 11.3733 4.32629 9.95509 4.38711L10.3628 4.9787C10.5494 5.73754 9.99379 5.73547 9.20109 5.76795C8.81683 5.8025 8.36415 5.83429 7.95156 5.95662C7.55417 6.09899 7.18857 6.32015 6.97985 6.66156L7.6606 6.65602C7.48989 7.08866 6.76768 7.04305 5.90379 7.0154C5.05096 6.98015 4.10621 7.02093 3.71504 7.31603C3.47937 7.39136 3.75927 6.9297 3.8892 6.65049C3.28724 6.96357 3.0495 7.22343 2.97693 7.39413C2.90644 7.56829 3.01563 7.67541 3.16422 7.78668C3.46831 8.01129 3.89887 8.25457 3.49319 9.02792C2.89745 9.04313 2.66524 7.93804 1.91815 8.98507C1.56361 9.15025 1.47169 10.1952 1.39359 11.2733C1.31895 12.3722 1.28923 13.4925 0.678982 14.2306C1.1206 13.9272 1.54771 13.6867 1.70805 14.5202C1.69906 14.825 1.56153 15.1629 1.41294 15.5347C1.27956 15.9072 1.10954 16.3129 0.977542 16.7283C0.736344 17.4498 0.649264 18.0656 1.25537 18.5314C1.14963 18.6593 1.04873 18.7076 0.952663 18.7125C1.26643 19.481 1.47445 21.2095 2.13446 21.6718C-0.314838 22.3816 3.32525 26.4481 1.0667 26.4308L1.18695 28.7937L0.95681 28.7322C0.807529 30.243 1.34867 30.7765 1.8905 31.308C1.73707 31.657 1.52629 31.402 1.40742 31.3736C0.951972 33.5811 1.04804 33.8001 2.17317 35.6509L1.44059 35.8431C1.86631 36.3448 0.291267 39.0339 1.14617 41.1985C1.06324 41.1771 0.920872 41.1322 0.817896 40.9608C1.67764 43.3962 -1.21467 46.791 1.45372 47.6839L2.11097 49.2914C2.3183 47.2119 3.26858 49.6011 3.71227 48.7455C3.86846 49.563 2.90713 50.8596 2.77029 49.8547L2.90367 49.6978C1.51246 49.3288 2.41091 52.2812 1.46408 52.2259C1.49795 54.2716 1.3231 56.2917 1.13166 58.2786C1.08397 58.7756 1.0356 59.2704 0.987908 59.7632C0.964411 60.3292 0.929165 60.9816 0.967176 61.5856C1.02039 62.1993 1.05979 62.8179 1.20699 63.4164C1.27403 63.7163 1.32932 64.0204 1.41709 64.3141L1.71288 65.1836C1.98311 64.8767 2.25956 64.5823 2.54084 64.301C2.69496 64.8055 2.86221 65.3066 3.08889 65.7855C3.04397 66.2672 2.58576 66.6957 2.10682 65.5865C1.95961 65.9942 2.30309 66.4124 2.69703 66.6812C3.11584 66.9411 3.58718 67.0496 3.69361 67.0019C3.88298 67.5382 3.90924 67.7987 3.8194 67.9031C3.72955 68.0081 3.50287 67.9694 3.28171 67.8554C2.83456 67.6349 2.30931 67.1733 2.49108 67.4995C2.69288 67.7718 2.87948 68.0531 3.09649 68.3095C3.08682 68.2244 3.07576 68.1415 3.073 68.053C3.48421 68.2631 3.80419 68.2956 4.10759 68.4297C4.40891 68.5666 4.70747 68.787 5.16223 69.3081C5.60039 70.105 4.99636 70.1098 5.22305 70.3883C5.16776 70.4415 5.2341 70.5528 5.61283 70.7864C6.10767 71.3047 6.68544 71.7346 7.25284 72.1762C7.16438 71.7892 7.11324 71.3759 7.06348 70.9903C7.30675 71.0407 7.51961 71.1361 7.70068 71.2322C7.89143 71.3144 8.04969 71.3973 8.16856 71.4367C8.40976 71.5169 8.47611 71.4105 8.35931 70.7726C8.47404 71.7567 10.1182 72.8314 11.9006 73.2716C12.1224 73.3269 12.3429 73.3815 12.5599 73.4354C12.781 73.4679 12.9987 73.4997 13.2109 73.5308C13.6353 73.5895 14.0347 73.6462 14.3941 73.6511C14.7528 73.6697 15.0666 73.6905 15.3188 73.7229C15.5476 73.7492 15.6906 73.781 15.7825 73.8397C16.8282 73.2177 17.86 73.2281 19.1386 73.3034C18.8207 73.1258 18.6306 72.1659 19.7329 72.2833C19.33 74.2641 21.7524 73.1431 22.6432 74.5682C21.8471 73.6234 25.7781 74.3346 24.5286 72.9931C25.4484 73.1535 24.5846 73.7347 25.2826 74.2005C27.4727 73.4334 30.1086 74.6995 32.8157 74.4403C32.8579 74.1805 32.4045 73.7831 32.985 73.396L34.4142 74.696C34.9492 74.5682 34.9063 73.1949 35.8835 74.0975C35.7453 73.8791 35.5394 73.5488 35.8981 73.4658C41.201 74.7327 46.734 72.4278 52.1198 74.8087C51.39 74.3048 51.8766 74.2551 52.4336 74.2365C52.0715 74.1162 52.4419 73.5944 52.3707 73.2419L54.6251 74.2205C55.0363 73.2426 57.0426 74.1542 57.2776 73.2191L56.5637 73.3871C57.5133 72.2834 55.2347 70.9343 55.3736 69.5182C54.3107 70.7726 52.5704 67.6605 50.8261 69.456C50.4411 69.1671 51.1544 68.9999 50.9484 68.6716C50.5061 69.2784 49.9726 69.4049 48.9829 69.1326L49.0948 68.9826C46.3152 69.1305 45.123 68.532 41.9999 68.1339L42.2307 68.834C41.5597 68.74 41.4187 68.5209 41.1042 68.3454C40.3343 69.4069 42.9889 68.4055 42.2874 69.5763C41.3972 68.1512 37.5547 69.5548 36.9534 67.9356C35.9209 67.9273 37.2561 68.7462 36.2236 68.7366L35.9499 68.2984L35.6887 68.863C35.0121 68.7697 34.6706 68.2217 34.6451 67.8512C34.8096 67.8955 35.1116 67.7476 35.2878 67.7158C34.4101 67.1995 32.8129 67.892 32.5116 67.7241L33.5034 67.9943C30.6857 68.4041 27.2453 67.8291 24.523 68.72L24.7297 69.051C22.6508 69.662 23.0648 68.6882 20.7827 68.9708L20.8657 68.8921C20.4089 69.221 19.7986 69.3876 19.1745 69.3496C19.7509 68.9626 18.0902 68.5976 18.8463 68.1692C16.5918 68.825 17.7315 68.6847 16.2421 69.9121L15.8987 69.3641C15.3776 69.8652 15.361 70.1188 14.3215 70.21C14.7645 69.9951 14.607 69.7788 14.4881 69.5459C14.363 69.3116 14.2815 69.0614 14.7162 68.7704C14.2738 68.4539 13.9207 68.2887 13.5717 68.2694C13.2365 68.201 12.9006 68.2825 12.6014 68.2943C12.3049 68.3053 12.025 68.3157 11.8197 68.194C11.6241 68.0531 11.4983 67.7939 11.5184 67.3191C10.7872 67.8146 11.0374 68.1602 11.4472 68.4277C11.8446 68.7013 12.3871 68.7573 12.0872 68.8361C12.2047 69.1436 11.9386 69.3468 11.5377 69.4173C11.139 69.4919 10.6414 69.3537 10.3622 69.1471C10.0684 68.9508 10.0546 68.3758 9.9931 67.7766C9.94542 67.1408 9.85764 66.5153 9.3324 66.0309C9.43537 66.1318 9.52107 66.0551 9.62197 66.1546C9.5888 65.9929 9.50172 65.8975 9.38976 65.8228C9.28748 65.7385 9.15686 65.6791 9.02554 65.61C8.89561 65.5402 8.76154 65.4648 8.67031 65.3446C8.58876 65.2167 8.54246 65.0516 8.57217 64.829C8.08839 64.9562 7.96123 64.7634 7.85895 64.6092C7.74699 64.4579 7.62535 64.3563 7.08628 64.5961L7.57905 65.1442L8.11742 65.6369C7.75943 65.4109 7.16438 65.3411 6.6647 65.055C6.40208 64.9223 6.1595 64.7419 6.00193 64.48C5.83537 64.2236 5.70959 63.9064 5.75382 63.4959C6.00677 63.527 6.44839 63.8013 6.73796 63.9693C6.86444 63.4834 6.22447 63.3445 6.41107 62.8345C7.00266 62.7032 7.16023 63.077 7.40834 63.5083C7.62742 63.9485 7.94464 64.4627 8.52103 64.5394C8.62193 64.2478 8.27223 64.0563 8.01997 63.8794C7.79536 63.688 7.70897 63.5373 8.35516 63.4247C7.52237 63.5477 7.38415 63.1842 7.36065 62.7737C7.29362 62.3624 7.35513 61.9284 6.63361 61.5697L7.33025 61.4965C7.20377 61.3769 6.83126 61.1184 6.80155 60.8309C7.13121 60.9664 7.45672 61.0839 7.7767 61.1834C7.56039 61.0417 7.47745 60.8683 7.46778 60.6927C7.47814 60.5137 7.57075 60.3306 7.66682 60.1578L7.81126 59.9035C7.85549 59.8261 7.90594 59.6664 7.93704 59.5517C8.00201 59.3015 8.01376 59.0506 7.90802 58.7984C7.91354 59.3278 7.86309 59.6215 7.7774 59.7791C7.69101 59.9359 7.57559 59.9145 7.43391 59.9152C7.15401 59.8979 6.80085 59.7494 6.56587 60.0956C6.42765 59.8751 6.37582 59.5641 6.35993 59.3485C6.34541 59.1232 6.37513 58.9407 6.43664 58.7866C6.55965 58.4777 6.80776 58.2807 7.07453 58.0734C7.60876 57.6587 8.21763 57.206 8.04969 55.7443C8.14852 56.1404 7.62811 57.2295 7.30329 56.611C7.44773 56.0546 7.71658 55.32 8.08494 54.9786C7.93912 53.0421 7.36342 55.2758 6.93217 54.452C7.78638 53.7926 6.58453 53.501 6.31085 52.6523L7.02408 52.6461C7.4816 50.4394 5.5375 52.0614 6.09039 50.0745L7.07937 50.9142L6.82366 49.8782L7.63503 50.0917C7.03307 48.9652 7.18926 48.6141 7.41664 47.5104C6.9142 47.7668 6.12218 47.366 6.10006 46.3888C6.52372 45.7225 6.77805 46.762 6.67576 45.377C7.12222 45.69 7.68202 46.0321 7.02477 46.6355C7.25699 46.697 7.47261 46.9437 7.70206 47.0073C8.1893 46.2892 7.81333 45.2035 7.80711 44.7018C7.78016 44.8946 7.74215 45.1254 7.64055 45.2443L6.65226 43.2359C6.92041 42.9201 7.13535 43.1703 7.34614 43.4191C7.26874 43.012 6.94115 42.7307 6.87964 42.1329C7.45948 42.2877 8.0573 42.2504 8.33029 43.097L7.68686 41.184C7.93912 41.0561 8.37935 40.2019 8.59291 40.4507C8.93363 39.3899 7.46847 37.8487 7.91769 36.4423C7.80504 36.369 7.69723 36.2225 7.61429 35.9232C7.7456 34.6018 8.45676 33.4304 7.66198 31.8643L8.70141 30.9756C8.46574 29.7489 7.39176 32.1788 6.99989 30.1359C6.66885 28.6894 7.88659 29.5961 8.17548 29.0888C7.65161 28.3694 6.58523 27.1192 7.43115 25.7902C7.63088 26.2297 7.47676 26.5746 7.55417 26.9851ZM7.87415 13.3799C7.89627 13.6349 8.20519 14.1739 7.75804 14.1677C7.07868 13.6708 7.49127 13.59 7.87415 13.3799ZM25.3033 6.86612C25.0856 7.10179 24.7483 6.98499 24.3675 6.71545C24.6433 6.6574 24.9564 6.68366 25.3033 6.86612ZM73.3322 29.791C73.3204 29.7786 73.3121 29.7696 73.2976 29.7599C73.5754 29.1061 73.4655 29.3376 73.3322 29.791ZM73.0225 31.149C73.1221 31.2852 73.2209 31.2762 73.3204 31.2182C73.14 31.1235 73.1276 30.8187 73.178 30.4711C72.9914 30.5678 72.8629 30.7434 73.0225 31.149ZM5.54441 70.3268L5.43245 69.9709C6.1132 70.3171 5.83744 70.3144 5.54441 70.3268Z" fill="#4285F4"/>
<path d="M22.6951 7.84182C22.6121 7.72157 22.5893 7.58818 22.57 7.4541C22.4546 7.57436 22.4518 7.71327 22.6951 7.84182Z" fill="#4285F4"/>
<path d="M7.92876 36.3958C7.92323 36.411 7.92531 36.4262 7.92047 36.4421C7.96332 36.4676 8.00686 36.4808 8.04902 36.4884L7.92876 36.3958Z" fill="#4285F4"/>
<path d="M65.5364 12.1045C65.506 11.8744 65.5309 11.7078 65.5938 11.562C65.4438 11.6574 65.392 11.8184 65.5364 12.1045Z" fill="#4285F4"/>
<path d="M74.2341 38.3462L74.0488 37.4761C74.0841 37.897 73.9286 38.0469 73.8152 38.2598C73.9818 38.2404 74.223 38.0739 74.2341 38.3462Z" fill="#4285F4"/>
<path d="M69.8213 45.8965C69.9084 46.0237 69.831 46.166 69.9195 46.2918L70.2505 46.2573C70.2291 45.7154 69.9616 45.3367 69.8213 45.8965Z" fill="#4285F4"/>
<path d="M71.8642 39.1514C71.2643 39.2205 71.4682 39.7658 71.5788 40.3753C71.5767 40.3387 71.5719 40.3042 71.5788 40.2675C72.4192 40.4472 72.1407 39.7976 71.8642 39.1514Z" fill="#4285F4"/>
<path d="M71.5995 40.5164C71.6279 40.7043 71.6438 40.8958 71.6147 41.0796C71.9513 41.1515 71.6846 40.8515 71.5995 40.5164Z" fill="#4285F4"/>
<path d="M73.42 32.8719C73.2651 33.1608 74.1871 33.0529 73.9424 33.2167C74.7061 33.5395 73.0184 31.2899 73.42 32.8719Z" fill="#4285F4"/>
<path d="M69.8883 39.6448L70.6285 39.4264L70.0321 39.085L69.8883 39.6448Z" fill="#4285F4"/>
<path d="M70.4315 34.8331L70.2263 35.8069C70.3507 35.7924 70.4232 35.9161 70.4785 36.0681C70.5041 35.4675 70.6513 34.8103 70.4315 34.8331Z" fill="#4285F4"/>
<path d="M70.4793 36.0674C70.4647 36.3798 70.4806 36.6769 70.6023 36.8511C70.594 36.6825 70.5698 36.3183 70.4793 36.0674Z" fill="#4285F4"/>
<path d="M69.6658 38.3135L69.8206 38.0253L69.8745 37.3384L69.6658 38.3135Z" fill="#4285F4"/>
<path d="M70.5747 24.3662L70.3625 23.3033C70.1088 23.1948 69.9533 23.4843 70.0542 23.8803C70.2312 24.1347 70.3293 24.5293 70.5747 24.3662Z" fill="#4285F4"/>
<path d="M68.5462 27.5799C68.6996 27.2924 68.8655 27.2731 69.1095 27.1113L68.191 27.0789L68.5462 27.5799Z" fill="#4285F4"/>
<path d="M68.332 24.4811C68.0769 24.3753 67.6008 22.9385 67.6581 24.2855C67.9111 24.3933 68.1226 25.4576 68.332 24.4811Z" fill="#4285F4"/>
<path d="M66.6539 9.46105L66.8385 9.64696L67.9553 8.63794C67.5151 8.90471 67.081 9.17908 66.6539 9.46105Z" fill="#4285F4"/>
<path d="M53.9444 9.34145C55.2036 9.70221 54.2436 8.4126 55.3812 8.86251C55.677 8.50659 54.451 8.49553 54.7544 8.18799C53.9941 8.56326 53.5947 8.35108 53.9444 9.34145Z" fill="#4285F4"/>
<path d="M54.7537 8.18799C54.8753 8.12925 55.0046 8.05668 55.1414 7.95923C54.9216 8.05253 54.818 8.1251 54.7537 8.18799Z" fill="#4285F4"/>
<path d="M56.1352 74.9944L56.9452 75.3089L56.422 74.803L56.1352 74.9944Z" fill="#4285F4"/>
<path d="M57.6895 73.8782L57.8803 74.8374L58.3668 73.9694C58.1837 74.0116 57.8291 74.0945 57.6895 73.8782Z" fill="#4285F4"/>
<path d="M10.255 13.1325L10.0899 12.968C9.85281 12.8816 9.74568 12.9473 9.60124 13.1235C9.80788 13.1069 10.0422 13.1207 10.255 13.1325Z" fill="#4285F4"/>
<path d="M8.30886 20.5866L8.32821 20.3979L7.46017 20.7511L8.30886 20.5866Z" fill="#4285F4"/>
<path d="M9.41533 29.804C9.45127 29.428 9.25776 28.9857 9.29439 28.6077C9.45127 29.428 8.33305 29.9056 9.41533 29.804Z" fill="#4285F4"/>
</svg>
