<svg width="157" height="158" viewBox="0 0 157 158" fill="none" xmlns="http://www.w3.org/2000/svg">
<path d="M73.7291 99.3288C59.5933 95.8533 39.9204 109.157 44.4909 125.076C44.4921 131.215 46.895 137.633 51.2627 141.859C63.3212 153.536 82.8535 149.864 90.5552 135.175C98.1202 120.75 89.3272 103.167 73.7291 99.3288ZM79.9882 128.15C76.939 135.96 68.4866 138.841 61.2827 134.577C57.1998 132.161 54.7351 127.773 54.5439 123.457C57.0907 117.186 60.5399 110.716 68.5443 111.057C76.9995 111.419 83.0455 120.317 79.9882 128.15Z" fill="#8AB4F8"/>
<path d="M69.1437 23.9859C55.008 20.5103 35.335 33.8142 39.9055 49.7334C39.9067 55.8716 42.3097 62.2896 46.6774 66.5163C58.7359 78.1926 78.2681 74.521 85.9698 59.8319C93.5359 45.403 84.7402 27.8212 69.1437 23.9859ZM75.4012 52.8045C72.352 60.6146 63.8981 63.4925 56.6957 59.2314C52.6128 56.8154 50.1466 52.4245 49.9569 48.1112C52.5037 41.8402 55.9529 35.3702 63.9574 35.7113C72.4126 36.0737 78.4585 44.9713 75.4012 52.8045Z" fill="#FDE293"/>
<path d="M120.348 55.0522C106.212 51.5766 86.5392 64.8805 91.1097 80.7997C91.1109 86.9379 93.5139 93.3559 97.8816 97.5826C109.94 109.259 129.472 105.587 137.174 90.8981C144.742 76.472 135.946 58.8902 120.348 55.0522ZM126.607 83.8735C123.558 91.6836 115.105 94.5641 107.902 90.3003C103.819 87.8843 101.354 83.4962 101.163 79.1802C103.71 72.9092 107.159 66.4392 115.163 66.7803C123.618 67.1427 129.664 76.0403 126.607 83.8735Z" fill="#F28B82"/>
</svg>
