<svg width="307" height="223" viewBox="0 0 307 223" fill="none" xmlns="http://www.w3.org/2000/svg">
<path d="M268.564 229.219C253.446 197.166 231.786 169.044 205.455 145.402C181.036 123.492 152.365 103.861 120.177 95.5422C60.8193 80.1695 -1.35976 103.9 -48.0953 140.786C-82.1871 167.69 -110.519 201.582 -136.37 236.201C-137.971 238.376 -136.766 242.305 -133.753 242.333C-1.89699 243.983 129.78 244.285 261.627 239.249C263.435 239.183 263.692 237.274 262.809 236.142L262.871 235.392C266.3 236.251 270.497 233.286 268.564 229.219Z" fill="#81C995"/>
<path d="M247.313 235.405C253.857 236 260.419 235.822 266.97 236.645C273.488 237.467 279.778 239.11 286.215 240.297C291.735 241.313 293.625 233.019 288.638 230.97C276.316 225.91 260.618 222.781 247.285 223.064C240.164 223.215 240.368 234.772 247.313 235.405Z" fill="#5F6368"/>
<path d="M225.378 193.884C232.622 193.861 239.648 191.392 246.665 189.635C253.622 187.894 260.608 186.229 267.406 183.919C272.29 182.258 269.888 175.212 265.18 175.598C257.989 176.187 250.88 177.467 243.764 178.644C237.168 179.735 230.072 180.133 223.898 182.796C218.994 184.919 219.283 193.905 225.378 193.884Z" fill="#5F6368"/>
<path d="M204.083 157.537C212.48 150.167 222.472 142.951 229.297 134.07C231.369 131.374 228.341 127.488 225.22 128.844C214.938 133.305 205.516 141.241 196.325 147.593C189.595 152.241 197.921 162.942 204.083 157.537Z" fill="#5F6368"/>
<path d="M140.131 119.645C137.255 124.704 143.228 132.736 148.324 127.636C153.412 122.547 157.434 116.581 162.416 111.368C168.236 105.271 175.064 100.29 180.958 94.3113C183.77 91.4612 181.483 86.2276 177.23 87.9091C163.525 93.3236 147.457 106.768 140.131 119.645Z" fill="#5F6368"/>
</svg>
