<svg width="360" height="287" viewBox="0 0 360 287" fill="none" xmlns="http://www.w3.org/2000/svg">
<path d="M139.866 286.921C154.816 286.207 170.012 280.609 180.724 269.928C197.013 253.715 199.581 228.447 210.511 209.07C218.97 194.062 229.077 177.314 249.206 183.603C262.037 187.617 270.25 200.487 279.287 209.584C292.832 223.211 309.098 233.537 329.091 229.5C366.647 221.896 377.491 187.059 378.63 153.162C384.79 124.438 385.192 91.6561 356.182 75.5757C322.889 57.1313 303.922 96.9387 275.247 102.829C254.652 107.066 235.572 70.2234 224.927 56.444C213.814 42.0604 202.099 27.9224 187.371 17.0616C158.275 -4.46078 121.364 -5.72915 90.8848 13.8708C21.3753 58.5856 14.4583 161.014 52.9938 227.986C70.9343 259.137 101.373 288.728 139.866 286.921Z" fill="#FDE293"/>
<path d="M76.8613 65.8173C75.25 63.7155 72.5091 63.0747 70.2167 63.6226C60.5919 56.3378 45.8176 52.3268 36.751 52.3401C15.9965 52.3667 -5.43243 71.3689 1.2421 93.4856C7.62095 114.616 37.8042 121.031 56.6118 116.037C78.569 110.203 91.6955 85.1682 76.8613 65.8173ZM54.1533 100.744C44.5385 104.008 30.1063 102.281 21.9168 96.1286C6.37838 84.461 22.6976 67.763 36.751 67.0724C45.0933 66.664 61.3494 69.8515 68.2067 77.7273C69.0738 87.7016 64.9408 97.0782 54.1533 100.744Z" fill="#636061"/>
<path d="M85.5891 153.205C83.9777 151.103 81.2368 150.462 78.9444 151.01C69.3197 143.726 54.5453 139.715 45.4787 139.728C24.7242 139.754 3.29529 158.757 9.96982 180.873C16.3487 202.004 46.5319 208.419 65.3395 203.425C87.3 197.591 100.427 172.553 85.5891 153.205ZM62.881 188.132C53.2662 191.395 38.8341 189.669 30.6446 183.516C15.1061 171.849 31.4253 155.151 45.4787 154.46C53.8211 154.052 70.0772 157.239 76.9344 165.115C77.8016 175.089 73.6686 184.466 62.881 188.132Z" fill="#636061"/>
<path d="M168.534 107.315C166.923 105.213 164.182 104.572 161.889 105.12C152.268 97.8352 137.49 93.8243 128.424 93.8376C107.669 93.8641 86.2402 112.866 92.9148 134.983C99.2936 156.114 129.477 162.529 148.284 157.535C170.242 151.704 183.368 126.666 168.534 107.315ZM145.826 142.245C136.211 145.509 121.779 143.782 113.59 137.629C98.051 125.962 114.37 109.264 128.424 108.573C136.766 108.165 153.022 111.352 159.879 119.228C160.747 129.202 156.614 138.579 145.826 142.245Z" fill="#636061"/>
</svg>
