<svg width="157" height="193" viewBox="0 0 157 193" fill="none" xmlns="http://www.w3.org/2000/svg">
<path d="M19.2953 570.313C31.4748 553.265 29.5249 533.33 26.0226 513.752C23.8533 501.672 20.4337 488.538 23.6049 476.322C27.248 462.163 39.2577 454.917 52.7744 452.109C85.1688 445.445 132.773 459.716 153.125 423.982C162.829 406.933 152.736 389.967 140.167 377.892C121.981 360.401 99.5714 347.044 84.3326 326.551C68.1499 304.753 62.7556 275.711 83.1941 254.859C96.1767 241.585 113.361 233.395 126.849 220.679C167.809 182.084 124.32 138.437 94.4835 109.809C50.8825 67.9935 2.55775 31.3951 -49.3851 0.522308C-52.1671 -1.1437 -54.7214 1.4938 -54.502 3.96594C-55.4459 4.93744 -56.0876 6.21484 -56.1414 7.93459C-60.6455 131.021 -62.0655 254.223 -60.2025 377.391C-59.2545 438.033 -57.6979 498.704 -55.1146 559.317C-54.2784 579.226 -48.4123 593.749 -25.8624 593.997C-8.06926 594.191 9.06152 584.642 19.2953 570.313Z" fill="#F28B82"/>
</svg>
